<?xml version="1.0" encoding="UTF-8"?>
<svg width="24" height="24" viewBox="0 0 24 24" version="1.1" xmlns="http://www.w3.org/2000/svg" xmlns:xlink="http://www.w3.org/1999/xlink">
  <g stroke="none" stroke-width="1" fill="none" fill-rule="evenodd">
    <g transform="translate(0 .375)">
      <path d="M0.0368671174,15.153831 C0.0368671174,14.2968891 0.413001825,15.0579984 0.924370834,13.4153635 L0.0368671174,13.4153635 C0.0368671174,12.556885 0.597107235,12.8238171 0.924370834,11.6768959 L0.0368671174,11.6768959 C0.0368671174,10.816881 0.633085579,11.3106926 0.914375188,9.9384283 L0.0368671174,9.9384283 C0.0368671174,9.9384283 -0.333310739,7.24966018 1.27232302,5.16126248 C2.01377143,4.19465672 3.43923991,3.41707355 5.53479236,4.13118371 C7.1857984,4.60952051 7.91815563,4.13118371 7.91815563,4.13118371 C7.91815563,4.13118371 6.47542072,2.81936771 8.36991124,1.640951 C9.29033357,0.23863415 12.5387647,-0.19008163 13.2904761,1.26228865 C14.5585833,4.6278696 15.6119706,5.10329902 18,3.95637779 C19.5391338,3.35542882 21.7160874,4.19465672 22.477957,5.16126248 C24.0734325,7.25468604 23.9994675,9.9384283 23.9994675,9.9384283 L23.1119638,9.9384283 C23.3982801,11.3056667 23.9994675,10.816881 23.9994675,11.6768959 L23.1119638,11.6768959 C23.4136746,12.828843 23.9994675,12.556885 23.9994675,13.4153635 L23.1119638,13.4153635 C23.623228,15.0579984 23.9994675,14.2968891 23.9994675,15.153831 L23.1119638,15.153831 L23.1119638,16.0230648 C21.0006121,17.9988936 16.8994377,19.5 12.4619192,19.5 C8.02440057,19.5 3.49057387,18.4336051 0.924370834,16.0230648 L0.924370834,15.153831 C0.924370834,15.153831 0.0368671174,15.153831 0.0368671174,15.153831 Z" fill="#FFF"/>
      <path d="M1.90506197,14.4919219 C1.90506197,13.6819956 2.14898497,14.2793992 2.62494703,12.7268865 L1.90506197,12.7268865 C1.90506197,11.9155079 2.320343,12.3988541 2.62494703,11.3148581 L1.90506197,11.3148581 C1.90506197,10.5020274 2.18861619,10.8467984 2.45042944,9.5498226 L1.5560268,9.5498226 C1.5560268,9.5498226 1.13048659,7.95276361 2.62494703,5.97894463 C3.3150579,5.06537113 4.74808052,4.81194802 6.18074289,5.37992628 C7.84375,6.04181458 9.22586368,5.6486957 10.20625,4.49848882 C11.1879114,3.37175518 10.271875,2.28885329 8.77669202,3.41632431 C8.58035973,3.41632431 8.4542346,2.58914231 9.23480069,2.48968068 C9.38750358,1.71747766 11.3878367,0.849877382 12.0875,2.22256422 C13.267804,5.40349453 15.432591,6.50804823 17.6552743,5.42405216 C19.0878392,4.8560739 20.4146932,5.12824108 21.1238114,6.04181458 C22.6088169,8.02038368 22.4981374,9.5498226 22.4981374,9.5498226 L21.4510319,9.5498226 C21.7175238,10.8420483 22.1491022,10.1490203 22.1491022,10.961851 L21.4510319,10.961851 C21.7318524,12.0505972 22.1491022,11.9155079 22.1491022,12.7268865 L21.4510319,12.7268865 C21.9268965,14.2793992 22.1491022,13.6819956 22.1491022,14.4919219 L21.4510319,14.4919219 L21.4510319,15.5509432 C19.4858692,17.4183693 15.3039871,18.375 12.3761173,18.375 C9.51149516,18.375 5.01346737,17.8292306 2.62494703,15.5509432 L2.62494703,14.4919219 C2.62494703,14.4919219 1.90506197,14.4919219 1.90506197,14.4919219 Z" fill="#EB1A20"/>
      <path d="M0.0368671174,15.153831 C0.0368671174,14.2968891 0.413001825,15.0579984 0.924370834,13.4153635 L0.0368671174,13.4153635 C0.0368671174,12.556885 0.597107235,12.8238171 0.924370834,11.6768959 L0.0368671174,11.6768959 C0.0368671174,10.816881 0.633085579,11.3106926 0.914375188,9.9384283 L0.0368671174,9.9384283 C0.0368671174,9.9384283 -0.333310739,7.24966018 1.27232302,5.16126248 C2.01377143,4.19465672 3.43923991,3.41707355 5.53479236,4.13118371 C7.1857984,4.60952051 7.91815563,4.13118371 7.91815563,4.13118371 C7.91815563,4.13118371 6.47542072,2.81936771 8.36991124,1.640951 C9.29033357,0.23863415 12.5387647,-0.19008163 13.2904761,1.26228865 C14.5585833,4.6278696 15.6119706,5.10329902 18,3.95637779 C19.5391338,3.35542882 21.7160874,4.19465672 22.477957,5.16126248 C24.0734325,7.25468604 23.9994675,9.9384283 23.9994675,9.9384283 L23.1119638,9.9384283 C23.3982801,11.3056667 23.9994675,10.816881 23.9994675,11.6768959 L23.1119638,11.6768959 C23.4136746,12.828843 23.9994675,12.556885 23.9994675,13.4153635 L23.1119638,13.4153635 C23.623228,15.0579984 23.9994675,14.2968891 23.9994675,15.153831 L23.1119638,15.153831 L23.1119638,16.0230648 C21.0006121,17.9988936 16.8994377,19.5 12.4619192,19.5 C8.02440057,19.5 3.49057387,18.4336051 0.924370834,16.0230648 L0.924370834,15.153831 C0.924370834,15.153831 0.0368671174,15.153831 0.0368671174,15.153831 Z" fill="#FFF"/>
      <path d="M1.90506197,14.4919219 C1.90506197,13.6819956 2.14898497,14.2793992 2.62494703,12.7268865 L1.90506197,12.7268865 C1.90506197,11.9155079 2.320343,12.3988541 2.62494703,11.3148581 L1.90506197,11.3148581 C1.90506197,10.5020274 2.18861619,10.8467984 2.45042944,9.5498226 L1.5560268,9.5498226 C1.5560268,9.5498226 1.13048659,7.95276361 2.62494703,5.97894463 C3.3150579,5.06537113 4.74808052,4.81194802 6.18074289,5.37992628 C7.84375,6.04181458 9.22586368,5.6486957 10.20625,4.49848882 C11.1879114,3.37175518 10.271875,2.28885329 8.77669202,3.41632431 C8.58035973,3.41632431 8.4542346,2.58914231 9.23480069,2.48968068 C9.38750358,1.71747766 11.3878367,0.849877382 12.0875,2.22256422 C13.267804,5.40349453 15.432591,6.50804823 17.6552743,5.42405216 C19.0878392,4.8560739 20.4146932,5.12824108 21.1238114,6.04181458 C22.6088169,8.02038368 22.4981374,9.5498226 22.4981374,9.5498226 L21.4510319,9.5498226 C21.7175238,10.8420483 22.1491022,10.1490203 22.1491022,10.961851 L21.4510319,10.961851 C21.7318524,12.0505972 22.1491022,11.9155079 22.1491022,12.7268865 L21.4510319,12.7268865 C21.9268965,14.2793992 22.1491022,13.6819956 22.1491022,14.4919219 L21.4510319,14.4919219 L21.4510319,15.5509432 C19.4858692,17.4183693 15.3039871,18.375 12.3761173,18.375 C9.51149516,18.375 5.01346737,17.8292306 2.62494703,15.5509432 L2.62494703,14.4919219 C2.62494703,14.4919219 1.90506197,14.4919219 1.90506197,14.4919219 Z" fill="#4A90E2"/>
      <g>
        <path d="M0.0368671174,15.153831 C0.0368671174,14.2968891 0.413001825,15.0579984 0.924370834,13.4153635 L0.0368671174,13.4153635 C0.0368671174,12.556885 0.597107235,12.8238171 0.924370834,11.6768959 L0.0368671174,11.6768959 C0.0368671174,10.816881 0.633085579,11.3106926 0.914375188,9.9384283 L0.0368671174,9.9384283 C0.0368671174,9.9384283 -0.333310739,7.24966018 1.27232302,5.16126248 C2.01377143,4.19465672 3.43923991,3.41707355 5.53479236,4.13118371 C7.1857984,4.60952051 7.91815563,4.13118371 7.91815563,4.13118371 C7.91815563,4.13118371 6.47542072,2.81936771 8.36991124,1.640951 C9.29033357,0.23863415 12.5387647,-0.19008163 13.2904761,1.26228865 C14.5585833,4.6278696 15.6119706,5.10329902 18,3.95637779 C19.5391338,3.35542882 21.7160874,4.19465672 22.477957,5.16126248 C24.0734325,7.25468604 23.9994675,9.9384283 23.9994675,9.9384283 L23.1119638,9.9384283 C23.3982801,11.3056667 23.9994675,10.816881 23.9994675,11.6768959 L23.1119638,11.6768959 C23.4136746,12.828843 23.9994675,12.556885 23.9994675,13.4153635 L23.1119638,13.4153635 C23.623228,15.0579984 23.9994675,14.2968891 23.9994675,15.153831 L23.1119638,15.153831 L23.1119638,16.0230648 C21.0006121,17.9988936 16.8994377,19.5 12.4619192,19.5 C8.02440057,19.5 3.49057387,18.4336051 0.924370834,16.0230648 L0.924370834,15.153831 C0.924370834,15.153831 0.0368671174,15.153831 0.0368671174,15.153831 Z" fill="#FFF"/>
        <path d="M1.90506197,14.4919219 C1.90506197,13.6819956 2.14898497,14.2793992 2.62494703,12.7268865 L1.90506197,12.7268865 C1.90506197,11.9155079 2.320343,12.3988541 2.62494703,11.3148581 L1.90506197,11.3148581 C1.90506197,10.5020274 2.18861619,10.8467984 2.45042944,9.5498226 L1.5560268,9.5498226 C1.5560268,9.5498226 1.13048659,7.95276361 2.62494703,5.97894463 C3.3150579,5.06537113 4.74808052,4.81194802 6.18074289,5.37992628 C7.84375,6.04181458 9.22586368,5.6486957 10.20625,4.49848882 C11.1879114,3.37175518 10.271875,2.28885329 8.77669202,3.41632431 C8.58035973,3.41632431 8.4542346,2.58914231 9.23480069,2.48968068 C9.38750358,1.71747766 11.3878367,0.849877382 12.0875,2.22256422 C13.267804,5.40349453 15.432591,6.50804823 17.6552743,5.42405216 C19.0878392,4.8560739 20.4146932,5.12824108 21.1238114,6.04181458 C22.6088169,8.02038368 22.4981374,9.5498226 22.4981374,9.5498226 L21.4510319,9.5498226 C21.7175238,10.8420483 22.1491022,10.1490203 22.1491022,10.961851 L21.4510319,10.961851 C21.7318524,12.0505972 22.1491022,11.9155079 22.1491022,12.7268865 L21.4510319,12.7268865 C21.9268965,14.2793992 22.1491022,13.6819956 22.1491022,14.4919219 L21.4510319,14.4919219 L21.4510319,15.5509432 C19.4858692,17.4183693 15.3039871,18.375 12.3761173,18.375 C9.51149516,18.375 5.01346737,17.8292306 2.62494703,15.5509432 L2.62494703,14.4919219 C2.62494703,14.4919219 1.90506197,14.4919219 1.90506197,14.4919219 Z" fill="#096"/>
      </g>
    </g>
    <g transform="translate(0 -1)"/>
  </g>
</svg>
