<?xml version="1.0" encoding="UTF-8"?>
<svg width="24" height="24" viewBox="0 0 24 24" version="1.1" xmlns="http://www.w3.org/2000/svg" xmlns:xlink="http://www.w3.org/1999/xlink">
  <g stroke="none" stroke-width="1" fill="none" fill-rule="evenodd">
    <g transform="translate(0 .125)">
      <path d="M12.0909985,22.8522252 L12.0000968,22.875 L11.9091952,22.8522252 C7.19108276,21.6701348 3.95511363,19.2944344 2.00269729,16.091297 C0.615337509,13.8151924 0,11.3017265 0,9.2563265 C0,6.33089232 0.753585045,3.6641155 3,0.875 L21,0.875 C23.246176,3.66416733 24,6.33098429 24,9.2563265 C24,11.30178 23.3847129,13.8152004 21.9974022,16.0912927 C20.0450411,19.2944353 16.8091105,21.6701349 12.0909985,22.8522252 Z" fill="#3E4559" fill-rule="nonzero"/>
      <path d="M20.3190839,15.2007217 C21.4829215,13.2963037 22,11.1896283 22,9.49431995 C22,7.12143998 21.2857143,4.915 19.8571429,2.875 L4.14285714,2.875 C2.71428571,5.155 2,7.36143998 2,9.49431995 C2,11.1895681 2.51712055,13.2962886 3.68099983,15.2007178 C5.31363685,17.8721648 8.01832898,19.8624937 12.0000861,20.875 C15.9818397,19.8624946 18.6864955,17.8721692 20.3190839,15.2007217 Z" fill="#FFF"/>
    </g>
    <g transform="translate(0 -1)"/>
  </g>
</svg>
