<?xml version="1.0" encoding="utf-8"?>
<!-- Generator: Adobe Illustrator 21.1.0, SVG Export Plug-In . SVG Version: 6.00 Build 0)  -->
<svg version="1.1" baseProfile="tiny" id="Layer_1" xmlns="http://www.w3.org/2000/svg" xmlns:xlink="http://www.w3.org/1999/xlink"
	 x="0px" y="0px" width="24px" height="24px" viewBox="0 0 24 24" xml:space="preserve">
<g transform="translate(0 2)">
	<path fill="#FFFFFF" d="M17.8,17.1c3.8-2.5,6.1-5.6,6.1-9.5c0-2.3-0.5-4.2-1.4-5.6C22.3,1.7,21.8,1,21,0H3.4c-1,1-1.5,1.7-1.8,2
		C0.6,3.5,0,5.3,0,7.6c0,3.9,2.3,7,6.1,9.5c0.7,0.5,2.6,1.4,5.8,2.9C15.1,18.5,17.1,17.6,17.8,17.1z"/>
	<path fill="#59ABFC" d="M12,18C10.3,17.3,2,14.4,2,7.8C2,3.5,4.6,2,4.6,2h15.1c0,0,2.3,1.5,2.3,5.8C22,14.4,13.6,17.3,12,18z"/>
</g>
</svg>
