<?xml version="1.0" encoding="utf-8"?>
<!-- Generator: Adobe Illustrator 21.1.0, SVG Export Plug-In . SVG Version: 6.00 Build 0)  -->
<svg version="1.1" baseProfile="tiny" id="Layer_1" xmlns="http://www.w3.org/2000/svg" xmlns:xlink="http://www.w3.org/1999/xlink"
	 x="0px" y="0px" width="24px" height="24px" viewBox="0 0 24 24" xml:space="preserve">
<g transform="translate(0 .75)">
	<path fill="#FFFFFF" d="M3,0.2h18l0,0c1.7,0,3,1.3,3,3V15l0,0c0,1.1-0.6,2.1-1.6,2.6L12,23.2L1.6,17.6l0,0C0.6,17.1,0,16.1,0,15
		V3.2l0,0C0,1.6,1.3,0.2,3,0.2z"/>
	<path fill="#3E4559" d="M2,4.2v9.5l0,0c0,0.7,0.4,1.4,1.1,1.8l8.9,4.7l8.9-4.7l0,0c0.7-0.3,1.1-1,1.1-1.8V4.2l0,0c0-1.1-0.9-2-2-2
		H4l0,0C2.9,2.2,2,3.1,2,4.2z"/>
</g>
</svg>
