<?xml version="1.0" encoding="utf-8"?>
<!-- Generator: Adobe Illustrator 21.1.0, SVG Export Plug-In . SVG Version: 6.00 Build 0)  -->
<svg version="1.1" baseProfile="tiny" id="Layer_1" xmlns="http://www.w3.org/2000/svg" xmlns:xlink="http://www.w3.org/1999/xlink"
	 x="0px" y="0px" width="24px" height="24px" viewBox="0 0 24 24" xml:space="preserve">
<g transform="translate(0 -.25)">
	<path fill="#F8E71C" d="M3,0.2h18l0,0c1.7,0,3,1.3,3,3v7.7l0,0c0,4.2-2.3,8.1-6,10.1l0,0l0,0c-3.7,2-8.3,2-12,0l0,0l0,0
		c-3.7-2-6-5.9-6-10.1V3.2l0,0C0,1.6,1.3,0.2,3,0.2z"/>
	<path fill="#0AA98B" d="M2,4.2V10l0,0c0,3.7,1.9,7.1,5,9.1l0,0l0,0c3.1,1.9,6.9,1.9,10,0l0,0l0,0c3.1-2,5-5.4,5-9.1V4.2l0,0
		c0-1.1-0.9-2-2-2H4l0,0C2.9,2.2,2,3.1,2,4.2z"/>
</g>
</svg>
