<?xml version="1.0" encoding="UTF-8"?>
<svg width="24" height="24" viewBox="0 0 24 24" version="1.1" xmlns="http://www.w3.org/2000/svg" xmlns:xlink="http://www.w3.org/1999/xlink">
  <g stroke="none" stroke-width="1" fill="none" fill-rule="evenodd">
    <path d="M0,16.1442698 L0,7.84921765 L0,7.84921765 C-6.44015751e-16,6.71249303 0.642463942,5.67340364 1.65937339,5.16542922 L10.6593734,0.669680099 L10.6593734,0.669680099 C11.5034016,0.248064664 12.4965984,0.248064664 13.3406266,0.669680099 L22.3406266,5.16542922 L22.3406266,5.16542922 C23.3575361,5.67340364 24,6.71249303 24,7.84921765 L24,16.1442698 L24,16.1442698 C24,17.2804499 23.3581451,18.3191392 22.3419787,18.8273824 L13.3419787,23.3287994 L13.3419787,23.3287994 C12.4972116,23.7513159 11.5027884,23.7513159 10.6580213,23.3287994 L1.65802128,18.8273824 L1.65802128,18.8273824 C0.641854936,18.3191392 1.02732035e-15,17.2804499 8.8817842e-16,16.1442698 Z" fill="#FFF" fill-rule="nonzero"/>
    <path d="M12.9003115,21.5461332 L20.9003115,17.5131574 L20.9003115,17.5131574 C21.5746431,17.173212 22,16.4824301 22,15.7272573 L22,8.26709354 L22,8.26709354 C22,7.51155617 21.5742365,6.82050577 20.8994073,6.48073787 L12.8994073,2.45284007 L12.8994073,2.45284007 C12.333635,2.16798096 11.666365,2.16798096 11.1005927,2.45284007 L3.10059274,6.48073787 L3.10059274,6.48073787 C2.4257635,6.82050577 2,7.51155617 2,8.26709354 L2,15.7272573 L2,15.7272573 C2,16.4824301 2.42535692,17.173212 3.0996885,17.5131574 L11.0996885,21.5461332 L11.0996885,21.5461332 C11.6659533,21.8315997 12.3340467,21.8315997 12.9003115,21.5461332 Z" fill="#0080FF"/>
  </g>
</svg>
