<?xml version="1.0" encoding="UTF-8"?>
<svg width="24" height="24" viewBox="0 0 24 24" version="1.1" xmlns="http://www.w3.org/2000/svg" xmlns:xlink="http://www.w3.org/1999/xlink">
  <g transform="translate(0 1.875)" stroke="none" stroke-width="1" fill="none" fill-rule="evenodd">
    <path d="M12,0.125 C13.8461538,1.02294821 24,2.18832128 24,3.98421769 C24,9.8649247 24,16.435365 24,19.2013701 C24,19.7908857 23.5384615,20.125 23.0769231,20.125 C17.5384615,20.125 2.1687891,20.125 0.923076923,20.125 C0.254677325,20.125 -7.10542736e-15,19.6760259 -7.10542736e-15,19.2270518 C-6.71496891e-15,13.501132 -4.4408921e-15,9.65176578 -4.4408921e-15,3.98421769 C-4.4408921e-15,2.18832128 10.1538462,1.02294821 12,0.125 Z" fill="#FFF" transform="rotate(-180 12 10.125)"/>
    <path d="M12.0207175,2.125 C13.6873841,2.9169366 22,3.35279965 22,4.93667285 C22,10.1231046 22,15.1645807 22,17.6040317 C22,18 21.5833333,18 21.5833333,18 C21.5833333,18 2.41666667,18 2.41666667,18 C2.41666667,18 2,18 2,17.6040317 C2,12.7126591 2,10.2950706 2,5.29663226 C2,3.71275906 10.3540508,2.9169366 12.0207175,2.125 Z" fill="#0080FF" transform="rotate(-180 12 10.063)"/>
  </g>
</svg>
