<?xml version="1.0" encoding="UTF-8"?>
<svg width="24" height="24" viewBox="0 0 24 24" version="1.1" xmlns="http://www.w3.org/2000/svg" xmlns:xlink="http://www.w3.org/1999/xlink">
  <g transform="translate(1.5)" fill-rule="nonzero" stroke="none" stroke-width="1" fill="none">
    <path d="M10.5,23.9985046 C8.71428571,22.0938614 0.5,26.9527613 0.5,20.5701468 C0.5,17.9036463 0.5,11.5773427 0.5,9.52321611 C0.5,7.56460589 0.5,4.39020052 0.5,0 L20.5,0 C20.5,4.51723831 20.5,7.75513179 20.5,9.71368043 C20.5,11.7678607 20.5,17.9036543 20.5,20.5701468 C20.5,26.9175986 12.2857143,22.0938614 10.5,23.9985046 Z" fill="#000"/>
    <path d="M10.5,22 C8.83333333,20.1818182 2.5,23.8926908 2.5,20.1818182 C2.5,17.6363636 2.5,11.597243 2.5,9.63636364 C2.5,7.76666466 2.5,5.22121011 2.5,2 L18.5,2 C18.5,5.34248101 18.5,7.94854162 18.5,9.81818182 C18.5,11.7791124 18.5,17.6363636 18.5,20.1818182 C18.5,23.848163 12.1666667,20.1818182 10.5,22 Z" fill="#FFF"/>
  </g>
</svg>
