<?xml version="1.0" encoding="UTF-8"?>
<svg width="24" height="24" viewBox="0 0 24 24" version="1.1" xmlns="http://www.w3.org/2000/svg" xmlns:xlink="http://www.w3.org/1999/xlink">
  <g transform="translate(-.194 -.37)" stroke="none" stroke-width="1" fill="none" fill-rule="evenodd">
    <rect fill="#0609A6" x=".19411619" y=".36936033" width="24" height="24" rx="4"/>
    <path d="M6.19411619,4.36936033 L6.19411619,4.36936033 L6.19411619,4.36936033 C5.08954669,4.36936033 4.19411619,5.26479083 4.19411619,6.36936033 L4.19411619,6.36936033 L4.19411619,16.3693603 C4.19411619,17.4739298 5.08954669,18.3693603 6.19411619,18.3693603 L6.19411619,18.3693603 L18.1941162,18.3693603 C19.2986857,18.3693603 20.1941162,17.4739298 20.1941162,16.3693603 L20.1941162,6.36936033 C20.1941162,5.26479083 19.2986857,4.36936033 18.1941162,4.36936033 L18.1941162,2.36936033 L19.1941162,2.36936033 C20.8509704,2.36936033 22.1941162,3.71250608 22.1941162,5.36936033 L22.1941162,19.3693603 C22.1941162,21.0262146 20.8509704,22.3693603 19.1941162,22.3693603 L5.19411619,22.3693603 C3.53726194,22.3693603 2.19411619,21.0262146 2.19411619,19.3693603 L2.19411619,5.36936033 L2.19411619,5.36936033 C2.19411619,3.71250608 3.53726194,2.36936033 5.19411619,2.36936033 L5.19411619,2.36936033 L6.19411619,2.36936033 Z M8.21209066,5.79439345 C8.24064584,5.70540252 8.22092916,5.62489373 8.23679315,5.53468767 C8.26900272,5.35122579 8.42934233,5.20698186 8.4749513,5.02823757 C8.52064525,4.84882614 8.51226,4.65816874 8.56818057,4.47813783 C8.61064507,4.34132768 8.54036193,4.23537249 8.50704755,4.09622737 C8.47747254,3.97261695 8.46750089,3.83838003 8.45512131,3.71183899 C8.44512133,3.60991042 8.45914397,3.50340723 8.48279831,3.40321798 C8.50744415,3.2986447 8.56554601,3.26931463 8.63781215,3.18273015 C8.67631065,3.13660259 8.70019162,3.09023677 8.72274115,3.03822413 C8.7839025,2.89714909 8.86730176,2.77125136 8.96724489,2.64690232 C9.09849108,2.48364507 9.33200334,2.35569828 9.53868846,2.26587343 C9.63350412,2.22465407 9.76860299,2.21016773 9.87007587,2.19012988 C10.2297918,2.11905627 10.5844087,2.09892312 10.9553144,2.12994485 C11.1435293,2.14569399 11.3067018,2.1386176 11.4906107,2.18264845 C11.5998456,2.20876199 11.71214,2.21760151 11.82112,2.23759171 C11.9550857,2.26215654 12.0862752,2.29884892 12.2131305,2.352172 C12.3910055,2.42698632 12.4753396,2.44769131 12.6756508,2.44769131 C12.9977181,2.44769131 13.3197004,2.45402908 13.6417394,2.45634022 C13.9385376,2.45846076 14.2275739,2.46429818 14.5026441,2.5701819 C14.6006609,2.60787497 14.6918222,2.61454632 14.7451082,2.52550774 C14.8980824,2.53773059 15.0146261,2.61337883 15.1474586,2.66446224 C15.3199229,2.73077061 15.5202057,2.7560264 15.6508854,2.88213858 C15.7223016,2.95111548 15.7375991,2.98845116 15.858307,3.00131732 C15.9447374,3.01051424 16.0165786,2.97243995 16.0899496,2.97508466 C16.3114506,2.98299496 16.1153603,3.20729498 16.0860119,3.29590469 C16.0129526,3.33085775 16.0062104,3.40305119 15.9502898,3.44336516 C15.902018,3.47817526 15.7927547,3.49349552 15.7315934,3.51000709 C15.6438599,3.53371418 15.5903472,3.54467424 15.5268913,3.59404216 C15.4203476,3.67700506 15.4166082,3.72227487 15.2626709,3.72723072 C15.1044842,3.73232954 14.9451078,3.72751664 14.7867795,3.72968482 C14.4718793,3.73406885 14.1566108,3.74541013 13.8438353,3.77736109 C13.7244021,3.78956011 13.1725619,3.80814456 13.1436385,3.94533593 C13.0940918,3.98074169 13.1178595,4.16715802 13.1481144,4.22386443 C13.1919953,4.30625549 13.2361312,4.35574255 13.2699838,4.4522149 C13.2812019,4.48414204 13.2871792,4.55071249 13.3061877,4.57711194 C13.3565559,4.64725633 13.4511166,4.62988702 13.49004,4.71106294 C13.5107198,4.75425988 13.4874054,4.80679669 13.5044309,4.85166146 C13.5206915,4.89473926 13.5746857,4.93555358 13.6066687,4.96678975 C13.6508045,4.98194322 13.7038922,4.99371337 13.7526174,4.98916257 C13.8167532,5.10221797 13.6624759,5.25363359 13.5566688,5.31005408 C13.405111,5.39084879 13.2283692,5.34145704 13.0623922,5.36244793 C12.8523076,5.38906182 12.7853956,5.35360841 12.5957359,5.27421945 C12.5346312,5.24863009 12.4894755,5.23540654 12.4670676,5.18132102 C12.4438949,5.12521028 12.4721384,5.05449406 12.446841,4.99681078 C12.4033567,4.89752693 12.3042918,4.80210292 12.2419689,4.70696483 C12.212224,4.66155206 12.1793062,4.61954644 12.1455386,4.57782673 C12.08772,4.50620512 12.0084,4.41063815 11.8806383,4.40558699 C11.6694206,4.39720017 11.6496756,4.74654018 11.6513186,4.89228516 C11.6541798,5.14603439 11.998485,5.03202593 12.1659351,5.1824885 C12.2355667,5.24505615 12.2680312,5.38148508 12.2498726,5.46449563 C12.2382579,5.51746131 12.1993061,5.56480401 12.1717425,5.61055035 C12.1323374,5.67588184 12.1223375,5.67495262 12.0587399,5.71822103 C11.8662757,5.8491461 11.7299304,5.93403892 11.4682878,5.94259253 C11.1405548,5.95333816 10.9504702,5.76346702 10.6660232,5.64397853 C10.5319725,5.587701 10.4986865,5.59997151 10.4329076,5.4644718 C10.3689134,5.33259368 10.3262222,5.19161395 10.2803866,5.05339805 C10.238942,4.92828658 10.2656841,4.84665795 10.1118034,4.77930123 C10.0452313,4.75013794 9.8736736,4.63186459 9.80242729,4.66555487 C9.72568524,4.70179454 9.76690328,4.82592914 9.76693161,4.88292146 C9.76695994,4.9843735 9.71438214,5.06438194 9.64851826,5.14979893 C9.57523229,5.24486555 9.4819747,5.26873942 9.4674988,5.3885853 C9.45222971,5.51493573 9.51225792,5.6217725 9.54786691,5.74121333 C9.5846657,5.86444253 9.54628051,5.95493451 9.47928348,6.07609083 C9.4542977,6.12128917 9.40418449,6.15152464 9.37806556,6.19040903 C9.35251321,6.22841185 9.35191831,6.29014558 9.32370307,6.3178793 C9.26463804,6.37596762 9.09789618,6.35149809 9.01724479,6.35326123 C8.94636675,6.35485759 8.85568705,6.38180504 8.78883166,6.37043994 C8.73577228,6.36143363 8.70180635,6.31077909 8.65172147,6.29812737 C8.58529101,6.28132988 8.50653763,6.29796058 8.43461144,6.29405308 C8.42308172,6.25940976 8.41390327,6.22376574 8.40534804,6.1888365 C8.15863468,6.28309302 8.18251565,5.88657709 8.21209066,5.79439345 L8.21209066,5.79439345 Z M8.15524307,19.7925063 L8.15524307,19.7925063 L9.2985657,21.1272279 L9.77624591,21.1272279 L9.77624591,19.0499992 L9.25941026,19.0499992 L9.25941026,20.3516253 L9.25159529,20.3516253 L8.1474281,19.0499992 L7.62668496,19.0499992 L7.62668496,21.1272279 L8.15133558,21.1272279 L8.15133558,19.7925063 L8.15524307,19.7925063 Z M12.4082787,21.1272279 L12.4082787,21.1272279 L13.0151477,21.1272279 L13.6494496,19.0499992 L13.0816958,19.0499992 L12.7097594,20.601142 L12.6940892,20.601142 L12.2007388,19.0499992 L11.6995733,19.0499992 L11.1827377,20.601142 L11.1709749,20.601142 L10.8146685,19.0499992 L10.235152,19.0499992 L10.8459687,21.1272279 L11.4685482,21.1272279 L11.926691,19.7263776 L11.9462284,19.7263776 L12.4082787,21.1272279 Z M15.2156671,21.1272279 L15.2156671,19.4047206 L15.877402,19.4047206 L15.877402,19.0499992 L14.0214665,19.0499992 L14.0214665,19.4047206 L14.6753462,19.4047206 L14.6753462,21.1272279 L15.2156671,21.1272279 Z" fill="#FFF" fill-rule="nonzero"/>
  </g>
</svg>
