<?xml version="1.0" encoding="UTF-8"?>
<svg width="24" height="24" viewBox="0 0 24 24" version="1.1" xmlns="http://www.w3.org/2000/svg" xmlns:xlink="http://www.w3.org/1999/xlink">
  <g transform="translate(.938 -.328)" fill-rule="nonzero" stroke="none" stroke-width="1" fill="none">
    <path d="M2.0625,0.328125 L20.0625,0.328125 L20.0625,0.328125 C21.1670695,0.328125 22.0625,1.2235555 22.0625,2.328125 L22.0625,22.328125 L22.0625,22.328125 C22.0625,23.4326945 21.1670695,24.328125 20.0625,24.328125 L2.0625,24.328125 L2.0625,24.328125 C0.9579305,24.328125 0.0625,23.4326945 0.0625,22.328125 L0.0625,2.328125 L0.0625,2.328125 C0.0625,1.2235555 0.9579305,0.328125 2.0625,0.328125 Z" fill="#FFF"/>
    <path d="M8.48738479,4.83273329 L3.0625,3.828125 L3.0625,3.328125 L5.5625,3.328125 L11.0993664,4.35347062 L16.6875,3.328125 L19.0625,3.328125 L19.0625,3.828125 L13.6625,4.828125 L19.0625,5.828125 L19.0625,6.328125 L16.5625,6.328125 L11.0625,5.30960648 L5.5625,6.328125 L3.0625,6.328125 L3.0625,5.828125 L8.48738479,4.83273329 Z M2.0625,7.328125 L20.0625,7.328125 L20.0625,16.828125 C20.0625,20.1521739 12.9507695,22.3087683 11.0625,22.328125 C9.29591251,22.3462345 2.0625,20.1528599 2.0625,16.828125 L2.0625,7.328125 Z M3.0625,2.328125 L19.0625,2.328125 C19.6520895,2.328125 20.0625,2.75508228 20.0625,3.328125 L20.0625,7.078125 L2.0625,7.078125 L2.0625,3.328125 C2.0625,2.75508291 2.47291357,2.328125 3.0625,2.328125 Z M19.0625,3.328125 L3.0625,3.328125 L3.0625,6.328125 L19.0625,6.328125 L19.0625,3.328125 Z" fill="#0047B6"/>
  </g>
</svg>
