<?xml version="1.0" encoding="UTF-8"?>
<svg width="24" height="24" viewBox="0 0 24 24" version="1.1" xmlns="http://www.w3.org/2000/svg" xmlns:xlink="http://www.w3.org/1999/xlink">
  <g transform="translate(.64)" fill-rule="nonzero" stroke="none" stroke-width="1" fill="none">
    <path d="M2.359375,-4.18815102e-15 L20.359375,-4.73391129e-15 L20.359375,-4.45476989e-15 C21.4639445,-4.65767832e-15 22.359375,0.8954305 22.359375,2 L22.359375,22 L22.359375,22 C22.359375,23.1045695 21.4639445,24 20.359375,24 L2.359375,24 L2.359375,24 C1.2548055,24 0.359375,23.1045695 0.359375,22 L0.359375,2 L0.359375,2 C0.359375,0.8954305 1.2548055,-3.36368303e-15 2.359375,-3.56659147e-15 Z" fill="#FFF"/>
    <path d="M3.74123922,19.5673208 C2.90948203,19.2481628 2.37077973,18.439448 2.37077973,17.6966344 L2.359375,7 L20.3479703,7 L20.359375,17.66811 C20.359375,18.4108922 19.8008127,19.2480369 18.9691223,19.5674467 L11.359375,22 L3.74123922,19.5673208 Z M2.359375,2 L20.359375,2 L20.359375,6 L2.359375,6 L2.359375,2 Z M6.86232006,4.16438241 L6.77967525,4.99454093 L8.06453558,4.98447845 L7.95182751,4.16941373 L6.86232006,4.16438241 Z M7.65124156,3.17317401 L7.2227993,2.99209536 C6.3670576,3.18988415 6.2197966,3.52500848 6.1107619,3.86753525 C6.30660222,3.79670609 6.55641648,3.82010342 6.83209354,3.96312822 C6.9303274,3.67493129 7.13267949,3.40150957 7.65124156,3.17317401 Z M7.94420091,4.10900983 C7.97042055,4.00447927 7.89484026,3.80449474 8.72563575,3.82726427 C8.64004059,3.55548232 8.50266852,3.30356515 8.13929724,3.13805662 C6.94562957,3.32669387 6.95122708,4.00607845 6.87706015,4.09899936 L7.94420091,4.10900983 Z M10.7131694,4.16438241 L10.6305246,4.99454093 L11.9153849,4.98447845 L11.8026768,4.16941373 L10.7131694,4.16438241 Z M11.5020909,3.17317401 L11.0736486,2.99209536 C10.2179069,3.18988415 10.0706459,3.52500848 9.96161122,3.86753525 C10.1574515,3.79670609 10.4072658,3.82010342 10.6829429,3.96312822 C10.7811767,3.67493129 10.9835288,3.40150957 11.5020909,3.17317401 Z M11.7950502,4.10900983 C11.8212699,4.00447927 11.7456896,3.80449474 12.5764851,3.82726427 C12.4908899,3.55548232 12.3535178,3.30356515 11.9901466,3.13805662 C10.7964789,3.32669387 10.8020764,4.00607845 10.7279095,4.09899936 L11.7950502,4.10900983 Z M14.5640187,4.16438241 L14.4813739,4.99454093 L15.7662342,4.98447845 L15.6535262,4.16941373 L14.5640187,4.16438241 Z M15.3529402,3.17317401 L14.9244979,2.99209536 C14.0687562,3.18988415 13.9214952,3.52500848 13.8124605,3.86753525 C14.0083009,3.79670609 14.2581151,3.82010342 14.5337922,3.96312822 C14.632026,3.67493129 14.8343781,3.40150957 15.3529402,3.17317401 Z M15.6458996,4.10900983 C15.6721192,4.00447927 15.5965389,3.80449474 16.4273344,3.82726427 C16.3417392,3.55548232 16.2043672,3.30356515 15.8409959,3.13805662 C14.6473282,3.32669387 14.6529257,4.00607845 14.5787588,4.09899936 L15.6458996,4.10900983 Z" fill="#003882"/>
  </g>
</svg>
