<?xml version="1.0" encoding="UTF-8"?>
<svg width="24" height="24" viewBox="0 0 24 24" version="1.1" xmlns="http://www.w3.org/2000/svg" xmlns:xlink="http://www.w3.org/1999/xlink">
  <g transform="translate(-.32)" stroke="none" stroke-width="1" fill="none" fill-rule="evenodd">
    <path d="M18.3203125,0 L6.3203125,0 L6.3203125,2 L0.3203125,2 C1.65364583,4.38079709 2.3203125,5.58913042 2.3203125,5.625 L2.3203125,17 C2.3203125,21.2497909 8.52481297,23.9962971 12.3056576,23.9962971 C16.0976653,23.9983139 22.3203125,21.2497909 22.3203125,17 L22.3203125,5.625 L24.3203125,2 L18.3203125,2 L18.3203125,0 Z" fill="#FFF"/>
    <path d="M12.9244389,2.6 L14.7578125,2 L15.3063162,2 L15.3063162,2.25176482 L14.2537883,2.6 L15.3203125,2.6 L15.3203125,3.4 L14.2686907,3.4 L15.3063162,3.75365099 L15.3203125,4 L14.7578125,4 L12.9296875,3.4 L12.7030233,3.4 L12.7030233,4 L11.9513098,4 L11.9513098,3.4 L11.7109375,3.4 L9.8828125,4 L9.3203125,4 L9.3203125,3.75365099 L10.364433,3.4 L9.3203125,3.4 L9.3203125,2.6 L10.3794287,2.6 L9.3203125,2.25176482 L9.3203125,2 L9.8828125,2 L11.7056889,2.6 L11.9513098,2.6 L11.9513098,2 L12.7030233,2 L12.7030233,2.6 L12.9244389,2.6 Z M15.2467995,5.3298587 C15.2786719,5.23570384 15.300905,5.1363298 15.3120612,5.0313869 C14.9863998,5.01038143 14.710079,4.87541206 14.3719516,4.87541206 C14.0089214,4.87541175 13.71494,5.0341204 13.3482804,5.0341204 C12.9852515,5.03412071 12.6912688,4.87541206 12.3246091,4.87541206 C11.9579495,4.87541206 11.6639678,5.03412071 11.3009379,5.0341204 C10.9342782,5.0341204 10.6402958,4.87541175 10.2772667,4.87541206 C9.93618792,4.87541206 9.65799947,5.01274783 9.32861823,5.03191071 C9.33982437,5.13697862 9.36213264,5.23647206 9.39409869,5.3307396 C9.6983646,5.29936607 9.96173463,5.17947082 10.2772667,5.17947082 C10.6439263,5.17947082 10.9379087,5.33817885 11.3009379,5.33817916 C11.6675976,5.33817916 11.9615796,5.17947082 12.3246091,5.17947082 C12.6876386,5.17947082 12.9816207,5.33817916 13.3482804,5.33817916 C13.7113106,5.33817885 14.0052919,5.17947082 14.3719516,5.17947082 C14.6846032,5.17947082 14.946042,5.29718773 15.2467995,5.3298587 Z M15.0292231,5.73841896 C14.8150038,5.69153392 14.6086173,5.62541206 14.3719516,5.62541206 C14.0089214,5.62541175 13.71494,5.7841204 13.3482804,5.7841204 C12.9852515,5.78412071 12.6912688,5.62541206 12.3246091,5.62541206 C11.9579495,5.62541206 11.6639678,5.78412071 11.3009379,5.7841204 C10.9342782,5.7841204 10.6402958,5.62541175 10.2772667,5.62541206 C10.0378211,5.62541206 9.8293703,5.69309635 9.61244327,5.74006296 C10.2645469,6.61049534 11.8206878,6.90782285 12.3203125,7.1052 C12.8264599,6.90519629 14.3790932,6.60762146 15.0292231,5.73841896 Z M15.3203125,4.58599354 L15.3203125,2 L9.3203125,2 L9.3203125,4.58645932 C9.65659834,4.56929711 9.93651587,4.42947082 10.2772667,4.42947082 C10.6439263,4.42947082 10.9379087,4.58817885 11.3009379,4.58817916 C11.6675976,4.58817916 11.9615796,4.42947082 12.3246091,4.42947082 C12.6876386,4.42947082 12.9816207,4.58817916 13.3482804,4.58817916 C13.7113106,4.58817885 14.0052919,4.42947082 14.3719516,4.42947082 C14.7097948,4.42947082 14.98784,4.56692187 15.3203125,4.58599354 Z M8.3203125,4.03472222 L8.3203125,1 L16.3203125,1 L16.3203125,4.09027778 L21.3203125,4.125 L20.3203125,5.60145 L20.3203125,16.5 C20.3203125,19.9459875 16.76275,22 12.3203125,22 C7.877875,22 4.3203125,19.9453125 4.3203125,16.5 L4.3203125,5.60145 L3.3203125,4 L8.3203125,4.03472222 Z M8.5878908,6 L6.3203125,6 L6.3203125,15.5 C6.3203125,18.46655 8.7014875,20 12.3203125,20 C15.939175,20 18.3203125,18.46655 18.3203125,15.5 L18.3203125,6 L15.9595742,6 C15.3932215,6.76872557 14.1659898,7.47266362 12.3203125,8 C10.1757656,7.46386328 9.05377337,6.79023319 8.5878908,6 Z M10.8518502,17.7749327 C11.0571443,17.8228007 11.2012764,17.8807725 11.2842475,17.9488488 C11.4033809,18.0456471 11.4629482,18.1711644 11.4629502,18.3254013 C11.4629482,18.4881492 11.3975303,18.6227078 11.2666963,18.7290785 C11.1060747,18.857787 10.872591,18.9221415 10.5662447,18.9221415 L9.46690263,18.9221415 L9.46690263,18.8631059 C9.56689108,18.8631059 9.63470228,18.8537982 9.67033667,18.8351833 C9.70597064,18.8165684 9.73096775,18.7923692 9.74532841,18.7625853 C9.75968784,18.7328015 9.76686797,18.659406 9.76686838,18.5423977 L9.76686838,17.1383035 C9.76686797,17.0212976 9.75968784,16.9476359 9.74532841,16.9173183 C9.73096775,16.8870044 9.7057048,16.8628052 9.66953915,16.8447199 C9.63337268,16.8266392 9.56582731,16.8175978 9.46690263,16.8175957 L9.46690263,16.7585597 L10.5040178,16.7585597 C10.7518605,16.7585621 10.927372,16.7806338 11.0305534,16.8247754 C11.1337311,16.8689216 11.2151046,16.9348715 11.274674,17.0226252 C11.3342396,17.110383 11.3640235,17.2037234 11.3640256,17.3026464 C11.3640235,17.4068912 11.326262,17.4996995 11.2507406,17.5810718 C11.1752156,17.6624466 11.0422523,17.7270669 10.8518502,17.7749327 Z M10.2710657,17.7318524 C10.4221113,17.7318536 10.5335345,17.7148342 10.6053358,17.6807944 C10.677135,17.6467571 10.7321818,17.5988904 10.7704767,17.5371939 C10.8087686,17.4755003 10.8279152,17.396786 10.8279168,17.3010506 C10.8279152,17.2053188 10.8090344,17.1268704 10.7712746,17.0657055 C10.7335114,17.004544 10.6795284,16.9580069 10.609325,16.9260939 C10.5391192,16.8941846 10.426366,16.8787609 10.2710657,16.8798226 L10.2710657,17.7318524 Z M10.2710657,17.8563063 L10.2710657,18.5503757 L10.2694707,18.6301538 C10.2694698,18.687594 10.2840959,18.7309402 10.3133485,18.7601919 C10.3425995,18.7894441 10.3859457,18.8040698 10.4433867,18.8040698 C10.5284824,18.8040698 10.6069308,18.7851891 10.6787321,18.7474276 C10.7505313,18.709666 10.8055781,18.6548851 10.843873,18.5830846 C10.8821649,18.5112846 10.9013115,18.4312407 10.9013132,18.3429524 C10.9013115,18.241901 10.8779098,18.1512199 10.8311086,18.0709093 C10.784304,17.9906003 10.7199495,17.9344897 10.6380455,17.9025775 C10.5561387,17.8706674 10.4338123,17.8552437 10.2710657,17.8563063 Z M14.5790824,16.7090975 L14.5790824,17.4590113 L14.5168554,17.4590113 C14.47005,17.2632907 14.3828264,17.113308 14.2551833,17.0090629 C14.1275364,16.9048218 13.9828726,16.8527001 13.8211905,16.852698 C13.6860981,16.8527001 13.5621764,16.8915253 13.4494248,16.9691738 C13.3366707,17.0468264 13.2542334,17.1484103 13.2021124,17.2739263 C13.1350983,17.4345475 13.1015915,17.6132503 13.1015923,17.810035 C13.1015915,18.0036306 13.1260565,18.1799399 13.1749878,18.3389636 C13.2239178,18.4979885 13.3005046,18.6181873 13.404749,18.6995605 C13.5089912,18.7809344 13.644082,18.8216214 13.8100216,18.821621 C13.9461744,18.8216214 14.0708942,18.7918375 14.1841807,18.7322698 C14.2974636,18.6727021 14.4168649,18.5700544 14.5423842,18.4243264 L14.5423842,18.6110068 C14.4211196,18.7375882 14.2948044,18.8293332 14.1634383,18.8862413 C14.0320689,18.9431498 13.8786291,18.9716036 13.7031189,18.971604 C13.4722931,18.9716036 13.2672636,18.9253324 13.08803,18.8327899 C12.9087947,18.7402474 12.7705127,18.6072842 12.6731839,18.4338995 C12.5758542,18.260516 12.5271896,18.0759627 12.52719,17.8802396 C12.5271896,17.6738818 12.5811731,17.4781595 12.6891396,17.2930729 C12.7971052,17.1079896 12.9428332,16.9643891 13.1263232,16.8622715 C13.3098119,16.7601576 13.5047362,16.7090996 13.7110965,16.7090975 C13.8632055,16.7090996 14.023825,16.7420743 14.1929563,16.8080222 C14.2908156,16.8463179 14.3530425,16.8654645 14.3796371,16.8654624 C14.4136736,16.8654645 14.4431916,16.8529659 14.4681908,16.8279667 C14.4931859,16.8029717 14.5094074,16.7633485 14.5168554,16.7090975 L14.5790824,16.7090975 Z M11.9894859,18.4307086 C12.0639447,18.430709 12.1269696,18.4567699 12.1785596,18.5088908 C12.2301489,18.561013 12.2559439,18.6237716 12.2559448,18.6971671 C12.2559439,18.7705634 12.2298831,18.8330562 12.1777621,18.8846458 C12.1256399,18.9362355 12.0628813,18.9620305 11.9894859,18.9620305 C11.9160896,18.9620305 11.8535968,18.9362355 11.8020071,18.8846458 C11.7504174,18.8330562 11.7246224,18.7705634 11.7246224,18.6971671 C11.7246224,18.6237716 11.7504174,18.561013 11.8020071,18.5088908 C11.8535968,18.4567699 11.9160896,18.430709 11.9894859,18.4307086 Z M15.1678449,18.4307086 C15.2423042,18.430709 15.3053286,18.4567699 15.3569191,18.5088908 C15.408508,18.561013 15.434303,18.6237716 15.4343038,18.6971671 C15.434303,18.7705634 15.4082421,18.8330562 15.3561212,18.8846458 C15.303999,18.9362355 15.2412404,18.9620305 15.1678449,18.9620305 C15.0944486,18.9620305 15.0319558,18.9362355 14.9803666,18.8846458 C14.9287765,18.8330562 14.9029815,18.7705634 14.9029819,18.6971671 C14.9029815,18.6237716 14.9287765,18.561013 14.9803666,18.5088908 C15.0319558,18.4567699 15.0944486,18.430709 15.1678449,18.4307086 Z" fill="#00008B"/>
  </g>
</svg>
