<?xml version="1.0" encoding="UTF-8"?>
<svg width="24" height="24" viewBox="0 0 24 24" version="1.1" xmlns="http://www.w3.org/2000/svg" xmlns:xlink="http://www.w3.org/1999/xlink">
  <g transform="translate(.54)" stroke="none" stroke-width="1" fill="none" fill-rule="evenodd">
    <path d="M0.4609375,21 C0.466565161,13.7809249 0.461347542,14.2666954 0.4609375,7.04761905 L22.4609375,7.04761905 C22.4582326,14.1842778 22.4609375,13.8633404 22.4609375,21 C22.4609375,21.9751831 21.5254642,23 20.4609375,23 C16.1593951,23 12.6652395,23.474005 11.4362274,24 C10.2072153,23.474005 8.60599805,23 2.4609375,23 C0.995026484,23 0.460106886,22.0654983 0.4609375,21 Z M0.4609375,0 L22.4609375,0 L22.4609375,7.04761905 L0.4609375,7 L0.4609375,0 Z" fill="#FFF"/>
    <path d="M6.05071427,4.44999981 C6.05614933,3.31620749 6.94962265,3.28936886 5.94285895,2.375 C4.91190289,3.28936886 5.80466612,3.31620749 5.84060267,4.44999981 L5.69854517,4.44999981 C5.67827784,3.72920038 5.32899112,3.53302492 5.00558408,3.47175894 C4.5848137,3.3920484 4.13800534,3.9730154 4.76166656,4.35928585 C4.91789873,3.84875656 5.4820668,3.98687555 5.50612086,4.44999981 L5.16093731,4.44999981 L5.16093731,4.67713355 L5.73966835,4.67713355 C5.72618278,4.811879 5.65677633,4.90724663 5.32266276,4.90724645 C5.32266276,4.99451237 5.57049654,5.14836073 5.78189333,5.06056173 C5.78433472,5.16552795 5.81096275,5.36548423 5.95561174,5.375 C6.0922001,5.36398787 6.10084714,5.16136459 6.11778769,5.05772256 C6.32808835,5.15264652 6.58226661,4.99558104 6.58226661,4.90724645 C6.24067475,4.90724664 6.18428884,4.82384409 6.16920047,4.67713355 L6.7481602,4.67713355 L6.7481602,4.44999981 L6.40020634,4.44999981 C6.42536213,3.98803868 6.98851457,3.85074134 7.14458344,4.36073701 C7.76824466,3.97446656 7.3214363,3.39349956 6.90066592,3.4732101 C6.57747602,3.53443494 6.22844118,3.73038817 6.2077461,4.44999981 L6.05071427,4.44999981 Z M17.0507031,4.45268779 C17.0547371,3.31624933 17.9504176,3.2900909 16.9428589,2.375 C15.9110888,3.2900909 16.8060773,3.31624933 16.8406862,4.45268779 L16.6986192,4.45268779 C16.6791455,3.72968786 16.3293928,3.53310101 16.0055841,3.47175894 C15.5848137,3.3920484 15.1380053,3.9730154 15.7616666,4.35928585 C15.9182006,3.84777019 16.4842483,3.98741168 16.5062542,4.45268779 L16.1606391,4.45268779 L16.1606391,4.67982153 L16.7393913,4.67982153 C16.7252462,4.81314555 16.6545503,4.90724663 16.3226628,4.90724645 C16.3226628,4.99451237 16.5704965,5.14836073 16.7818933,5.06056173 C16.7843347,5.16552795 16.8109628,5.36548423 16.9556117,5.375 C17.0922001,5.36398787 17.1008471,5.16136459 17.1177877,5.05772256 C17.3280884,5.15264652 17.5822666,4.99558104 17.5822666,4.90724645 C17.2427665,4.90724664 17.1849901,4.82486238 17.1694823,4.67982153 L17.747862,4.67982153 L17.747862,4.45268779 L17.4000662,4.45268779 C17.4231791,3.98857298 17.9882123,3.84975353 18.1445834,4.36073701 C18.7682447,3.97446656 18.3214363,3.39349956 17.9006659,3.4732101 C17.577074,3.53451111 17.2275728,3.7308759 17.2076704,4.45268779 L17.0507031,4.45268779 Z M11.5507031,4.45268779 C11.5547371,3.31624933 12.4504176,3.2900909 11.4428589,2.375 C10.4110888,3.2900909 11.3060773,3.31624933 11.3406862,4.45268779 L11.1986192,4.45268779 C11.1791455,3.72968786 10.8293928,3.53310101 10.5055841,3.47175894 C10.0848137,3.3920484 9.63800534,3.9730154 10.2616666,4.35928585 C10.4182006,3.84777019 10.9842483,3.98741168 11.0062542,4.45268779 L10.6606391,4.45268779 L10.6606391,4.67982153 L11.2393913,4.67982153 C11.2252462,4.81314555 11.1545503,4.90724663 10.8226628,4.90724645 C10.8226628,4.99451237 11.0704965,5.14836073 11.2818933,5.06056173 C11.2843347,5.16552795 11.3109628,5.36548423 11.4556117,5.375 C11.5922001,5.36398787 11.6008471,5.16136459 11.6177877,5.05772256 C11.8280884,5.15264652 12.0822666,4.99558104 12.0822666,4.90724645 C11.7427665,4.90724664 11.6849901,4.82486238 11.6694823,4.67982153 L12.247862,4.67982153 L12.247862,4.45268779 L11.9000662,4.45268779 C11.9231791,3.98857298 12.4882123,3.84975353 12.6445834,4.36073701 C13.2682447,3.97446656 12.8214363,3.39349956 12.4006659,3.4732101 C12.077074,3.53451111 11.7275728,3.7308759 11.7076704,4.45268779 L11.5507031,4.45268779 Z M2.4609375,20 C2.46057611,13.0534133 2.4609375,7 2.4609375,7 L20.4609375,7 C20.4609375,7 20.4672553,13.1327213 20.4609375,20 C20.4609375,20.5061409 20.0025361,21 19.4609375,21 C15.6697476,21 12.5441346,21.4938591 11.4609375,22 C10.3777404,21.4938591 8.87692307,21 3.4609375,21 C2.91933894,21 2.46057611,20.5061409 2.4609375,20 Z M2.4609375,2 L20.4609375,2 L20.4609375,6 L2.4609375,6 L2.4609375,2 Z" fill="#0AA98B"/>
  </g>
</svg>
