<?xml version="1.0" encoding="UTF-8"?>
<svg width="24" height="24" viewBox="0 0 24 24" version="1.1" xmlns="http://www.w3.org/2000/svg" xmlns:xlink="http://www.w3.org/1999/xlink">
  <g transform="translate(-.023 -.28)" stroke="none" stroke-width="1" fill="none" fill-rule="evenodd">
    <path d="M22.5234375,15.09375 C22.5234375,11.84375 22.5234375,8.53629262 22.5234375,5.17137787 L24.0234375,2.53125 L24.0234375,1.78125 L17.2734375,1.78125 C17.1110559,1.78125 16.8984375,1.54428962 16.8984375,1.40625 L16.8984375,0.65625 C16.8984375,0.51817576 16.6858191,0.28125 16.5234375,0.28125 L7.8984375,0.28125 C7.73602904,0.28125 7.5234375,0.51817576 7.5234375,0.65625 L7.5234375,1.40625 C7.5234375,1.54428962 7.31084568,1.78125 7.1484375,1.78125 L0.0234375,1.78125 L0.0234375,2.53125 L1.5234375,5.17137787 C1.5234375,8.41129262 1.5234375,11.71875 1.5234375,15.09375 C1.5234375,18.8143358 4.28883917,24.2812464 12.0191423,24.2812464 C19.7494455,24.2812464 22.5234375,18.5632714 22.5234375,15.09375 Z" fill="#FFF"/>
    <path d="M15.2966689,4.04132532 C15.2076723,4.04132532 15.1371551,3.97831062 15.1371551,3.89883187 L15.1371551,2.09289427 L8.98120326,2.09289427 L8.98120326,3.88832293 C8.98120326,3.96788991 8.91057506,4.03078195 8.82163779,4.03078195 L2.24502962,4.03078195 C2.19610818,4.03078195 2.15954493,4.01329429 2.12912907,3.98645301 L1.857104,3.65054667 C1.78951302,3.55437672 1.86037617,3.42799006 1.98967386,3.42799006 L8.30510134,3.42799006 L8.30510134,3.25188967 L1.6066852,3.25188967 C1.55773624,3.25188967 1.52082181,3.23421863 1.49045421,3.20717692 L1.22241149,2.86369916 C1.14061126,2.76901435 1.22418892,2.63861154 1.35141934,2.63861154 L8.30510134,2.63861154 L8.30510134,1.62205257 C8.30510134,1.54246402 8.37583005,1.479582 8.46467913,1.479582 L15.6654807,1.479582 C15.7543743,1.479582 15.8249945,1.54252734 15.8249945,1.62205257 L15.8249945,2.63861154 L22.7811547,2.63861154 C22.9083384,2.63861154 22.9876715,2.7706186 22.9078571,2.86355866 L22.6481367,3.19972163 C22.6090748,3.23431836 22.5723686,3.25188967 22.5234747,3.25188967 L15.8249945,3.25188967 L15.8249945,3.42799006 L22.1404604,3.42799006 C22.2697629,3.42799006 22.3407359,3.5544355 22.2751228,3.64758708 L22.008984,3.97933989 C21.970829,4.01319428 21.9341792,4.03078195 21.8853781,4.03078176 L15.2969039,4.04132513 L15.2966689,3.92413782 L15.2966689,4.04132532 Z M20.7587953,16.409721 L20.7587953,4.36046797 C20.7587953,4.28089957 20.8305007,4.21799747 20.9208464,4.21799747 L21.6529148,4.21799747 C21.7841329,4.21799747 21.856076,4.34406396 21.7899534,4.43723552 L21.4452937,4.85678636 L21.4452937,16.4115721 C20.2267349,20.9338807 17.1026437,23.195501 12.0730202,23.1964332 C7.04339659,23.1973654 3.91754838,20.935745 2.69547553,16.4115721 L2.69541695,4.85742295 L2.34755652,4.44549565 C2.26754313,4.35166117 2.34393183,4.21799747 2.47579926,4.21799747 L3.21990346,4.21799747 C3.3102215,4.21799747 3.38187625,4.28095577 3.38187625,4.36046797 L3.38187625,16.40625 C4.57692242,20.5312511 7.47126863,22.5937511 12.0649149,22.59375 C16.6585612,22.5937489 19.5565213,20.5324059 20.7587953,16.409721 Z M19.4672844,16.1268988 L19.3096192,16.5517647 L19.0885038,16.9923236 L18.9622553,17.1181729 L18.8201267,17.2125686 L18.6623586,17.2755103 L18.488711,17.291203 L18.315132,17.6846153 L18.0941195,18.0464712 L18.2204024,18.4240536 L18.3624622,18.7702851 L18.5518525,19.1164483 L18.7886074,19.4311572 L19.0412421,19.7144126 L18.3940844,19.7144126 L17.7469267,19.7458665 L16.468354,19.918897 L15.8370076,20.0605075 L15.2055923,20.2336059 L14.5584349,20.4223973 L13.9270881,20.6426426 L13.3114841,20.8944784 L12.711657,21.1934264 L12.1276066,21.5238283 L11.5594017,21.8856499 L11.3384749,22.0746121 L11.1173767,22.2790962 L10.9437976,22.5151024 L10.7543901,22.0115678 L10.5333776,21.5080671 L10.2808287,21.0360889 L9.98093229,20.5797691 L9.66525907,20.1391419 L9.31799773,19.7301056 L9.17592076,19.6041877 L9.00229044,19.4940307 L8.81290013,19.4311572 L6.2399608,18.896203 L6.03481085,18.8332612 L5.84540334,18.7387629 L5.5612666,18.5657328 L5.30876891,18.3611801 L5.16667508,18.18815 L5.05616866,17.9835976 L5.00876963,17.7632498 L4.97719907,17.4171212 L4.99297592,17.070958 L5.05616866,16.7247948 L5.08773956,16.5360038 L5.08773956,16.3313828 L5.05616866,16.1425914 L5.00876963,15.9381074 L4.96142223,15.7964969 L4.96142223,15.6391594 L4.97719907,15.4817876 L5.05616866,15.340177 L5.15089823,15.2142935 L5.0719283,15.1198635 L5.04039181,15.0411604 L5.00876963,14.8366764 L4.99297592,14.6320558 L4.99297592,14.3960495 L4.97719907,14.2858926 L4.92988574,14.175736 L4.85100185,14.0814085 L4.74049543,14.0184667 L4.50375773,13.8610949 L4.39325131,13.7666992 L4.29850488,13.6407814 L4.23538063,13.4992051 L4.20384414,13.3575946 L4.20384414,13.2002228 L4.25115748,13.0586462 L4.31428173,12.9170357 L5.22979932,11.4851345 L5.32444285,11.3120361 L5.38765314,11.1232447 L5.38765314,10.9187606 L5.3718763,10.7299692 L4.96142223,8.82608951 L4.9141261,8.5585611 L4.9141261,8.29104984 L4.92988574,8.023624 L4.97719907,7.75609559 L5.0719283,7.48858398 L5.21402248,7.22107272 L5.46653703,6.82776297 L5.78221025,6.51305403 L6.17685341,6.16689084 L6.71348784,5.78929123 L7.26598447,5.53750658 L7.86584605,5.25426836 L8.43401662,5.04975001 L9.01810136,4.89239536 L9.61791166,4.76652895 L10.21767,4.67208178 L10.8174803,4.60915715 L11.4330843,4.59344735 L12.0328771,4.59344735 L12.6485155,4.64064537 L13.2482398,4.73507503 L13.8165821,4.86087318 L14.3690446,5.0340402 L14.9056959,5.23854141 L15.4423131,5.47463306 L15.9475136,5.75778585 L16.4367318,6.07246083 L16.9102076,6.41869229 L17.3522666,6.78056529 L17.6836823,7.14243794 L17.9993899,7.5357477 L18.2835098,7.92917684 L18.5203332,8.35400878 L18.7413457,8.79460164 L18.930736,9.25083603 L19.0885038,9.70713868 L19.2148211,10.1949464 L19.2938083,10.6669249 L19.3568812,11.1547669 L19.4357651,11.7841851 L19.4990095,12.4134668 L19.5305288,13.0271241 L19.5305288,13.6723039 L19.5462712,14.0027741 L19.5936017,14.333176 L19.6410352,14.6320558 L19.6568461,14.9467651 L19.6410352,15.3086888 L19.5936017,15.6548177 L19.4672844,16.1268988 Z" fill="#000" fill-rule="nonzero"/>
    <path fill="#E0E000" d="M8.03332704 5.79208684L7.50012537 5.99526462 7.10815416 6.198561 6.73183964 6.43296947 6.3867865 6.71435111 6.05750903 7.01133993 5.75954423 7.33960987 5.61843273 7.54278765 5.50868486 7.76169085 5.41455912 8.01175728 5.3832297 8.29313892 5.3832297 8.55889669 5.43026675 8.82465446 5.60272511 9.65309099 5.86932595 9.04345611 5.93201968 9.18415545 5.96336655 9.35606844 6.08885589 9.05906293 6.26141648 8.80892903 6.46523845 8.57452056 6.41811627 8.77769834 6.26141648 9.15289067 6.13592713 9.32475288 6.01047163 9.52799848 5.91636334 9.74683386 5.83799652 9.9813272 5.80666675 10.2157865 5.80666675 10.4659037 5.82232309 10.7003629 5.83799652 10.7159527 5.86932595 10.9348222 5.85365286 11.1692814 5.82232309 11.3881509 5.74387079 11.6070204 5.6341742 11.7945739 4.72465766 13.2169877 4.69332789 13.2952086 4.69332789 13.4045416 4.72465766 13.4984201 4.7873172 13.5609497 4.99117336 13.701632 5.11662852 13.779751 5.24208402 13.8891859 5.33615811 14.0142784 5.41455912 14.1548588 5.44594018 14.2956089 5.46159652 14.4518473 5.46159652 14.7020323 5.47735509 14.905176 6.02614506 15.2959414 5.43026675 15.655561 5.41455912 15.7492702 5.43026675 15.8274911 5.52439213 16.0775064 5.5557219 16.358905 5.5557219 16.6090222 5.50868486 16.8747971 5.46159652 17.1561276 5.43026675 17.4531164 5.46159652 17.7344469 5.5557219 17.9846323 5.6341742 18.0783411 5.85365286 18.2503389 6.08885589 18.3909875 6.21429395 18.4535508 6.35545673 18.500422 8.91142869 19.0318701 9.11533614 19.0945012 9.31915846 19.18821 9.49163391 19.3133025 9.64847013 19.4696087 9.99343778 19.8760321 10.3070418 20.2981471 10.6050237 20.7513739 10.8558322 21.2359163 11.0911032 21.7048348 11.310599 21.5485627 11.890838 21.1577973 12.4866993 20.8295611 13.0983023 20.5169147 13.741218 20.2511736 14.399841 20.0323723 15.0583617 19.8290926 15.6543255 19.6727524 16.2658944 19.532172 16.8773952 19.4382931 17.4888956 19.3601741 18.1005667 19.3133025 17.8966083 18.9849985 17.7241671 18.6255146 17.5986777 18.2659969 17.5203105 17.8751974 17.4732564 17.4844319 17.4575491 17.0935646 17.614385 17.2343147 17.7555139 17.390655 17.8496564 17.5625509 17.990785 17.2812201 18.1005667 16.9841297 18.1789339 16.6871412 18.1946412 16.8434815 18.2573007 16.9841297 18.3670828 16.8278235 18.4298103 16.6402696 18.5081772 16.2183246 18.5552313 15.7805857 18.6493741 16.0775064 18.7120675 16.3901528 18.7120675 16.7184568 18.8531623 16.4371259 18.962944 16.1869413 19.0571207 15.9056782 19.1197802 15.6086219 19.1510929 15.3117009 19.1668001 14.9990549 19.1510929 14.7332801 19.104141 14.4675052 19.0571207 14.0923974 19.0257058 13.7327778 19.0257058 13.1232786 19.0099981 12.5136437 18.9473389 11.9040088 18.8688695 11.2943739 18.806142 10.7784819 18.7120675 10.2783498 18.5865782 9.79368843 18.3983954 9.30912901 18.1946412 8.85581733 17.9436625 8.40257348 17.6615075 7.9804925 17.3635769 7.57405208 17.0185238 7.19894461 16.5951719 6.83944363 16.1560443 6.52678051 15.6856382 6.2297917 15.215198 5.97965779 14.713377 5.74523263 14.2116583 5.55764463 13.6785585 5.40127065 13.1453226 5.27626299 12.5808759 5.19805878 12.0006198 5.15120457 11.4203636 5.15120457 10.8558322 5.16682809 10.2757121 5.21371674 9.69550718 5.30752743 9.13099248 5.43258621 8.58211737 5.58890942 8.03332704 5.79208684"/>
  </g>
</svg>
