<?xml version="1.0" encoding="utf-8"?>
<!-- Generator: Adobe Illustrator 21.1.0, SVG Export Plug-In . SVG Version: 6.00 Build 0)  -->
<svg version="1.1" baseProfile="tiny" id="Layer_1" xmlns="http://www.w3.org/2000/svg" xmlns:xlink="http://www.w3.org/1999/xlink"
	 x="0px" y="0px" width="24px" height="24px" viewBox="0 0 24 24" xml:space="preserve">
<g transform="translate(-.438)">
	<path fill="#FFFFFF" d="M23.4,14.4c-1.2,3.5-4.9,6.4-11,8.8c-6.1-2.4-9.8-5.3-11-8.8S0.4,7.5,1.9,4h4.5l0,0l0,0
		C6,2.8,6.6,1.6,7.8,1.2c0,0,0,0,0,0l2.4-0.8l0,0C11,0.1,11.7,0,12.4,0l0,0l0,0c0.7,0,1.5,0.1,2.2,0.4L17,1.2l0,0
		c1.2,0.4,1.8,1.6,1.4,2.8c0,0,0,0,0,0l0,0h4.5C24.5,7.5,24.7,10.9,23.4,14.4z"/>
	<path d="M12.8,2.6c0.4,0.4,1.5-0.8,2.6-0.8s1.5,0.9,1.5,1.9c0,0.6-0.2,1.2-0.8,1.9H8.7C8.2,5,7.9,4.4,7.9,3.8
		c0-0.9,0.4-1.9,1.5-1.9s2.3,1.1,2.6,0.7c0,0,0.1-0.1,0.2-0.4c0,0-0.1,0-0.2,0c0.1-0.3,0.2-0.4,0.2-0.6c0,0-0.1-0.1-0.1-0.1
		c-0.1,0-0.3,0.1-0.5,0.3V1.1c0.2,0.1,0.4,0.2,0.5,0.2c0,0,0.1-0.1,0.1-0.1c0-0.1-0.1-0.3-0.2-0.5h0.8c-0.1,0.2-0.2,0.4-0.2,0.5
		c0,0,0.1,0.1,0.1,0.1c0.1,0,0.3-0.1,0.5-0.2l0,0.8c-0.2-0.2-0.4-0.2-0.5-0.3c0,0-0.1,0.1-0.1,0.1c0,0.1,0.1,0.3,0.2,0.6
		c-0.1,0-0.2,0-0.2,0C12.8,2.5,12.8,2.6,12.8,2.6z M3.4,5.6h18c1.1,3.3,1.1,6.1,0,8.2c-1.5,3.1-4.5,5.8-9,8.1
		c-4.5-2.1-7.5-4.6-9-7.7C2.3,12,2.3,9.1,3.4,5.6z M4.4,6.8C3.5,9.5,3.7,12,4.8,14.2c1.8,3,4.3,5.1,7.7,6.4c3.4-1.5,5.9-3.8,7.7-6.8
		c1.1-2.2,1.2-4.6,0.4-7.1H4.4z M14.7,5.2c0,0,0.2,0.4,0.7,0.4c0,0,0.5,0,0.8-0.6l0.1,0c0,0-0.3,0.7-0.9,0.8c0,0-0.5,0.1-0.8-0.4
		c0,0-0.3,0.5-1,0.5c-0.7,0-1.1-0.6-1.1-0.6s-0.4,0.6-1.1,0.6c-0.6,0-1-0.5-1-0.5c-0.3,0.4-0.8,0.4-0.8,0.4C9,5.7,8.8,5,8.8,5l0.1,0
		c0.4,0.6,0.8,0.6,0.8,0.6c0.5,0,0.7-0.4,0.7-0.4h0.2c0,0,0.2,0.4,0.8,0.5c0.7,0,1.1-0.6,1.1-0.6c0,0,0.1,0,0.1,0c0,0,0.1,0,0.1,0
		c0,0,0.4,0.6,1.1,0.6c0.6,0,0.8-0.5,0.8-0.5H14.7z M12.8,4.9c0,0,0-0.1,0-0.1c0,0,0-0.1,0-0.1c0.1,0,0.3-0.1,0.4-0.2c0,0,0,0,0,0
		v0.6c0,0,0,0.1,0,0C13.1,5,13,4.9,12.8,4.9z M12.3,4.9c0,0,0-0.1,0-0.1c0,0,0-0.1,0-0.1c-0.1,0-0.3-0.1-0.4-0.2c0,0,0,0,0,0v0.6
		c0,0,0,0.1,0,0C12,5,12.1,4.9,12.3,4.9z M14.7,5c0,0,0.1-0.2,0.3-0.4c0,0,0.1-0.1,0.1,0c0,0,0,0.3,0.1,0.3c0,0,0.1,0,0.1-0.1
		c0,0,0-0.4,0-0.5c0,0-0.1-0.3-0.3,0c0,0-0.1,0.1-0.2,0.2c0,0,0,0,0,0c0,0,0-0.4-0.1-0.7c0,0,0-0.1-0.1-0.1c0,0,0,0,0,0
		c0,0-0.1,0.1-0.1,0.1c-0.1,0.3-0.1,0.7-0.1,0.7c0,0,0,0,0,0c-0.1-0.1-0.2-0.2-0.2-0.2c-0.2-0.2-0.3,0-0.3,0c0,0.1,0,0.5,0,0.5
		C13.9,5,14,5,14,5c0.1-0.1,0.1-0.3,0.1-0.3c0-0.1,0.1,0,0.1,0C14.4,4.8,14.5,5,14.5,5H14.7z M10.6,5c0,0,0.1-0.2,0.3-0.4
		c0,0,0.1-0.1,0.1,0c0,0,0,0.3,0.1,0.3c0,0,0.1,0,0.1-0.1c0,0,0-0.4,0-0.5c0,0-0.1-0.3-0.3,0c0,0-0.1,0.1-0.2,0.2c0,0,0,0,0,0
		c0,0,0-0.4-0.1-0.7c0,0,0-0.1-0.1-0.1c0,0,0,0,0,0c0,0-0.1,0.1-0.1,0.1c-0.1,0.3-0.1,0.7-0.1,0.7c0,0,0,0,0,0
		c-0.1-0.1-0.2-0.2-0.2-0.2c-0.2-0.2-0.3,0-0.3,0c0,0.1,0,0.5,0,0.5C9.7,5,9.8,5,9.8,5c0.1-0.1,0.1-0.3,0.1-0.3c0-0.1,0.1,0,0.1,0
		C10.2,4.8,10.4,5,10.4,5H10.6z M12.6,4.9c-0.1,0-0.2-0.1-0.2-0.2c0-0.1,0.1-0.2,0.2-0.2c0.1,0,0.2,0.1,0.2,0.2
		C12.7,4.8,12.6,4.9,12.6,4.9z M12.9,4C12.9,4,12.9,4.1,12.9,4c-0.1,0.1-0.2,0.3-0.2,0.4c0,0-0.1,0-0.1,0c0,0-0.1,0-0.1,0
		c0-0.1-0.1-0.3-0.2-0.4c0,0,0,0,0,0H12.9z M16.4,3.6c-0.2-0.2-0.4-0.3-1.3-0.4s-2.1,0.5-2.2,0.6V3c0.6,0.6,1.5-0.4,2.4-0.4
		S16.4,3.4,16.4,3.6z M8.5,3.6c0.2-0.2,0.4-0.3,1.3-0.4s2.1,0.5,2.2,0.6V3c-0.6,0.6-1.5-0.4-2.4-0.4S8.5,3.4,8.5,3.6z"/>
</g>
</svg>
