<?xml version="1.0" encoding="utf-8"?>
<!-- Generator: Adobe Illustrator 21.1.0, SVG Export Plug-In . SVG Version: 6.00 Build 0)  -->
<svg version="1.1" baseProfile="tiny" id="Layer_1" xmlns="http://www.w3.org/2000/svg" xmlns:xlink="http://www.w3.org/1999/xlink"
	 x="0px" y="0px" width="24px" height="24px" viewBox="0 0 24 24" xml:space="preserve">
<g transform="translate(.82)">
	<path fill="#FFFFFF" d="M22.2,13.6c0,7.2-9.5,10-10.9,10.4C9.8,23.6,0.2,20.8,0.2,13.6V0h22V13.6z"/>
	<path fill="#003F87" d="M20.2,13.5c0,6-7.7,8.1-9,8.5c-1.3-0.4-9-2.5-9-8.5V7h18V13.5z M11.6,19.2c0.3-0.5-0.3-1.1-0.5-1.2
		c-0.1,0.1-0.8,0.7-0.5,1.2c0.2,0.6,0.3,0.7,0.3,1.2h-0.2c0-0.5-0.2-0.8-0.6-0.9c-0.1,0-0.3,0-0.5,0.1c-0.2,0.2-0.3,0.7,0.3,0.8
		c-0.1-0.1-0.1-0.3,0.1-0.3c0.1,0,0.2,0,0.3,0c0.1,0,0.2,0.2,0.2,0.3l-0.3,0l0,0.3l0.6,0c0,0.1-0.1,0.3-0.3,0.3
		c0,0.1,0.1,0.2,0.3,0.2c0,0.1,0.1,0.2,0.2,0.3c0.1-0.1,0.2-0.2,0.2-0.3c0.1,0,0.2-0.1,0.3-0.2c-0.2-0.1-0.3-0.2-0.3-0.3l0.6,0v-0.3
		l-0.3,0c0-0.1,0.1-0.3,0.2-0.3c0.1,0,0.2-0.1,0.3,0c0.1,0.1,0.1,0.2,0.1,0.3c0.6-0.1,0.6-0.6,0.3-0.8c-0.2-0.1-0.4-0.2-0.5-0.1
		c-0.3,0.1-0.5,0.4-0.6,0.9h-0.2C11.3,19.9,11.4,19.8,11.6,19.2z"/>
	<path fill="#AF1E2D" d="M9.9,4.3L4.4,5.2h4.5l1.1-0.4l0,0h0.8l1.1-0.4L12,4.2l1.4-0.5L12.1,4l0.2-0.9h3.1l0.7,1.4l0.8,0.4h1.1
		l0.4-2.3c0,0-11.5,0-13.9,0.4v1.9h0.8l2.2-0.4l0.4-1.1h1.9L9.9,4.3z M2.2,2h18v4h-18V2z M13.8,3.8l-2.6,1.5h2.4L13.8,3.8z M14,5.2
		h2.8l-3-1.5L14,5.2z"/>
</g>
</svg>
