<?xml version="1.0" encoding="utf-8"?>
<!-- Generator: Adobe Illustrator 21.1.0, SVG Export Plug-In . SVG Version: 6.00 Build 0)  -->
<svg version="1.1" baseProfile="tiny" id="Layer_1" xmlns="http://www.w3.org/2000/svg" xmlns:xlink="http://www.w3.org/1999/xlink"
	 x="0px" y="0px" width="24px" height="24px" viewBox="0 0 24 24" xml:space="preserve">
<g>
	<path fill="#FFFFFF" d="M5,0h14c2.8,0,5,2.2,5,5v14c0,2.8-2.2,5-5,5H5c-2.8,0-5-2.2-5-5V5C0,2.2,2.2,0,5,0z"/>
	<path fill="#25872D" d="M6,2h12c2.2,0,4,1.8,4,4v12c0,2.2-1.8,4-4,4H6c-2.2,0-4-1.8-4-4V6l0,0C2,3.8,3.8,2,6,2L6,2z M12.7,21
		l-0.1-2.4c2.1,1.3,5.3,1.1,7.6-0.2c-1-0.7-0.1-3.3,0.8-4c-0.5-1.1-1.4-1.5-1.4-2.7C20.5,11,21,10,21,9c-2,1-3.1-1.9-3.1-1.9
		S17.4,8.3,16,8.3c-0.8-1.1-0.9-1.1-0.6-2.6C13.3,7,12,3,12,3s-1.2,4.1-3.4,2.7C8.9,7.2,8.7,7.2,8,8.3c-1.2,0-2-1.1-2-1.1S5,10,3,9
		c0,1,0.5,2,1.4,2.6c0,1.2-1,1.6-1.4,2.7c0.9,0.7,1.9,3.3,0.9,4c2.3,1.3,5.5,1.5,7.6,0.2L11.3,21H12.7z"/>
</g>
</svg>
