<?xml version="1.0" encoding="utf-8"?>
<!-- Generator: Adobe Illustrator 21.1.0, SVG Export Plug-In . SVG Version: 6.00 Build 0)  -->
<svg version="1.1" baseProfile="tiny" id="Layer_1" xmlns="http://www.w3.org/2000/svg" xmlns:xlink="http://www.w3.org/1999/xlink"
	 x="0px" y="0px" width="24px" height="24px" viewBox="0 0 24 24" xml:space="preserve">
<g transform="translate(0 1.25)">
	<path fill="#FFFFFF" d="M24,5.1v11.3c0,1.7-1,3-2.2,3.2L12,20.8l-9.8-1.2C1,19.3,0,18.1,0,16.4V5.1c0-1.7,1.1-2.9,2.2-3.1L12,0.8
		l9.8,1.2C23.2,2.2,24,3.4,24,5.1z"/>
	<path fill="#D30000" d="M22,6.2v9.1c0,1.4-0.9,2.4-1.9,2.5L12,18.8l-8.1-0.9c-1-0.2-1.9-1.1-1.9-2.5V6.2c0-1.4,0.9-2.4,1.9-2.5
		l8.1-1l8.1,1C21.4,3.9,22,4.8,22,6.2z"/>
</g>
</svg>
