<?xml version="1.0" encoding="UTF-8"?>
<svg width="24" height="24" viewBox="0 0 24 24" version="1.1" xmlns="http://www.w3.org/2000/svg" xmlns:xlink="http://www.w3.org/1999/xlink">
  <g transform="translate(0 .75)" stroke="none" stroke-width="1" fill="none" fill-rule="evenodd">
    <path d="M12.0909985,22.102484 L12.0000968,22.125 L11.9091952,22.102484 C7.19108276,20.9338265 3.95511363,18.5851226 2.00269729,15.4183846 C0.615337509,13.1681448 0,10.683241 0,8.66108415 C0,5.76889354 1.04548402,2.96549994 3.29189898,0.208078939 L3.46086916,0.000672060153 L3.71263853,0.0908691407 C6.77083102,1.18647512 9.56759813,1.43738258 11.8085568,0.120822296 L12.000764,0.00790085728 L12.1926273,0.12140622 C14.4171132,1.43740062 17.2323645,1.18525269 20.2876708,0.090862418 L20.5394472,0.000677797418 L20.7084062,0.208096897 C22.9545822,2.96556914 24,5.76898447 24,8.66108415 C24,10.6832939 23.3847129,13.1681527 21.9974022,15.4183803 C20.0450411,18.5851236 16.8091105,20.9338266 12.0909985,22.102484 Z" fill="#3E4559" fill-rule="nonzero"/>
    <path d="M20.3190839,14.5184058 C21.4829215,12.5947512 22,10.4667963 22,8.75436358 C22,5.15909091 20.0357143,2.61363636 19.8571429,2.25 C17.1190476,3.46212121 14.5000287,3.46212121 12.0000861,2.25 C9.14288585,3.46212121 6.52380952,3.46212121 4.14285714,2.25 C3.42857143,3.34090909 2,5.52272727 2,8.75436358 C2,10.4667354 2.51712055,12.5947359 3.68099983,14.5184019 C5.31363685,17.2168331 8.01832898,19.2272664 12.0000861,20.25 C15.9818397,19.2272672 18.6864955,17.2168375 20.3190839,14.5184058 Z" fill="#FFF"/>
  </g>
</svg>
