<?xml version="1.0" encoding="UTF-8"?>
<svg width="24" height="24" viewBox="0 0 24 24" version="1.1" xmlns="http://www.w3.org/2000/svg" xmlns:xlink="http://www.w3.org/1999/xlink">
  <g transform="translate(0 3)" stroke="none" stroke-width="1" fill="none" fill-rule="evenodd">
    <path d="M24,4 L24,15 L24,15 C24,17.209139 22.209139,19 20,19 L4,19 L4,19 C1.790861,19 1.06584355e-15,17.209139 1.77635684e-15,15 L0,4 L0,4 C-2.705415e-16,1.790861 1.790861,4.05812251e-16 4,0 L20,0 L20,0 C22.209139,-4.05812251e-16 24,1.790861 24,4 Z" fill="#FFF"/>
    <path fill="#169C00" d="M12 2L22 4.10142254 22 15.060896 12 17 2 15.060896 2 4.10142254"/>
  </g>
</svg>
