<?xml version="1.0" encoding="utf-8"?>
<!-- Generator: Adobe Illustrator 21.1.0, SVG Export Plug-In . SVG Version: 6.00 Build 0)  -->
<svg version="1.1" baseProfile="tiny" id="Layer_1" xmlns="http://www.w3.org/2000/svg" xmlns:xlink="http://www.w3.org/1999/xlink"
	 x="0px" y="0px" width="24px" height="24px" viewBox="0 0 24 24" xml:space="preserve">
<g transform="translate(0 .875)">
	<path fill="#FFFFFF" d="M12,22.1c-1.8-0.9-12-1-12-4C0,12.1,0,4,0,1.1c0-0.6,0.5-1,1-1c5.5,0,20.8,0,22,0c0.7,0,1,0.5,1,1
		c0,5.9,0,11.2,0,17C24,21.1,13.8,21.2,12,22.1z"/>
	<path fill="#0080FF" d="M12,20.1c-1.8-0.9-10-0.5-10-3c0-5.8,0-11.3,0-14c0-0.4,0.5-1,1-1c4,0,17.2,0,18,0c0.8,0,1,0.6,1,1
		c0,0.4,0,8.5,0,14C22,19.6,13.7,19.2,12,20.1z"/>
</g>
</svg>
