<?xml version="1.0" encoding="UTF-8"?>
<svg width="24" height="24" viewBox="0 0 24 24" version="1.1" xmlns="http://www.w3.org/2000/svg" xmlns:xlink="http://www.w3.org/1999/xlink">
  <g fill-rule="nonzero" stroke="none" stroke-width="1" fill="none">
    <path d="M23.9936891,16.5 C23.9936891,24.1363636 12.5966868,22.9090909 11.9968446,24 C11.3970023,22.9090909 -2.46616205e-13,24.1363645 0,16.5 C1.41265388e-13,12.1363636 3.59905337,9.27272728 0,4.90909092 L3.5,0 L8,1 L11.9968446,0 L16,1 L20.5,0 L23.9936891,4.90909092 C20.3946358,9.27272728 23.9936891,12.1363636 23.9936891,16.5 Z" fill="#3E4559"/>
    <path d="M22,16.5 C22,22.6470971 12.5998422,20.9090909 12,22 C11.4001578,20.9090909 2,22.6773235 2,16.5 C2,12.1363636 5.59905337,9.36363636 2,5 L4,2 L8,3 L12.0038857,2 L16,3 L20,2 L22,5 C18.4009466,9.36363636 22,12.1363636 22,16.5 Z" fill="#FFF"/>
    <path fill="#34BF70" d="M2 5L4 2 8 3 12 2 16 3 20 2 22 5"/>
  </g>
</svg>
