<?xml version="1.0" encoding="UTF-8"?>
<svg width="24" height="24" viewBox="0 0 24 24" version="1.1" xmlns="http://www.w3.org/2000/svg" xmlns:xlink="http://www.w3.org/1999/xlink">
  <g transform="translate(0 3)" stroke="none" stroke-width="1" fill="none" fill-rule="evenodd">
    <path d="M21.7530185,1.07098841 C22.9862834,1.07098841 23.9969199,2.35614316 23.9969199,3.90136824 L23.9969199,14.1063085 C23.9969199,15.6592104 22.9862834,16.9520419 21.7530185,16.9520419 L11.9954415,18 L2.23786448,16.9520419 C0.992525667,16.9520419 0,15.6592104 0,14.1063085 L0,3.90136824 C0,2.35614316 0.992525667,1.07098841 2.23786448,1.07098841 L11.9954415,0 L21.7530185,1.07098841 Z" fill="#FFF"/>
    <path d="M4,3 C3.24446594,3 2,3.82986868 2,5 L2,13 C2,14.1783821 3.28629608,15 4,15 L12,16 L20,15 C20.7485132,15 22,14.1711128 22,13 L22,5 C22,3.83711215 20.7100628,3 20,3 L12,2 L4,3 Z" fill="#D0021B" fill-rule="nonzero"/>
  </g>
</svg>
