<?xml version="1.0" encoding="utf-8"?>
<!-- Generator: Adobe Illustrator 21.1.0, SVG Export Plug-In . SVG Version: 6.00 Build 0)  -->
<svg version="1.1" baseProfile="tiny" id="Layer_1" xmlns="http://www.w3.org/2000/svg" xmlns:xlink="http://www.w3.org/1999/xlink"
	 x="0px" y="0px" width="24px" height="24px" viewBox="0 0 24 24" xml:space="preserve">
<g transform="translate(.125)">
	<path fill="#3E4559" d="M0.9,6c0,0.7,0,1.6,0,2c0.3,1.6,1,2.5,1,4c0,1.9-1,2.7-1,4c0,4.4,11,6,11,6s11-1.6,11-6c0-1.2-1-2.1-1-4
		c0-1.5,0.7-2.4,1-4c0-0.4,0-1.3,0-2C12.9,6,10.8,6,0.9,6z"/>
	<path fill="#3E4559" d="M0.9,7V2l2.5-2c0,0,1.3,1.1,4,1.1S11.9,0,11.9,0s2.2,1.1,4.5,1.1s4-1.1,4-1.1l2.5,2v5H0.9z"/>
	<path fill="#FFFFFF" d="M2.9,6c0,0,0,1.6,0,2c0.3,1.5,1,2.6,1,4c0,1.8-1,2.2-1,3.5c0,3.6,9,4.5,9,4.5s9-0.9,9-4.5
		c0-1.1-1-1.2-1-3.5c0-1.4,0.7-2.5,1-4c0-0.4,0-1.3,0-2C12.3,6,11.5,6,2.9,6z M2.9,5V3l1-0.7c0,0,1.2,0.7,3.5,0.7s4.5-1,4.5-1
		s2.5,1,4.5,1s3.5-0.7,3.5-0.7l1,0.7v2H2.9z"/>
</g>
</svg>
