<?xml version="1.0" encoding="utf-8"?>
<!-- Generator: Adobe Illustrator 21.1.0, SVG Export Plug-In . SVG Version: 6.00 Build 0)  -->
<svg version="1.1" baseProfile="tiny" id="Layer_1" xmlns="http://www.w3.org/2000/svg" xmlns:xlink="http://www.w3.org/1999/xlink"
	 x="0px" y="0px" width="24px" height="24px" viewBox="0 0 24 24" xml:space="preserve">
<g transform="translate(0 1.25)">
	<path fill="#FFFFFF" d="M12,20.9C4,18.3,0,14.1,0,8.2c0-5,3-7.5,3-7.5h18c0,0,3,2.3,3,7.5C24,14.1,20,18.3,12,20.9z"/>
	<path fill="#CC0000" d="M22,8.4c0-3.7-1.9-5.6-2-5.7H4C2.7,4.1,2,6,2,8.4c0,4.3,2.9,8,10,10.3C19.1,16.4,22,12.8,22,8.4z"/>
</g>
</svg>
