<?xml version="1.0" encoding="UTF-8"?>
<svg width="24" height="24" viewBox="0 0 24 24" version="1.1" xmlns="http://www.w3.org/2000/svg" xmlns:xlink="http://www.w3.org/1999/xlink">
  <g stroke="none" stroke-width="1" fill="none" fill-rule="evenodd">
    <path d="M22.4614694,0 C23.3095802,0 24,0.7493666 24,1.64712979 L24,22.3528702 C24,23.2577275 23.3095802,24 22.4614694,24 L1.53866526,24 C0.670624278,24 0,23.2577275 0,22.3528702 L0,1.64712979 C0,0.7493666 0.670624278,0 1.53866526,0 L22.4614694,0 L22.4614694,0 Z" fill="#FFF"/>
    <path d="M22,3.37260816 L22,20.6273918 C22,21.3814396 21.4246502,22 20.7178912,22 L3.28222105,22 C2.55885356,22 2,21.3814396 2,20.6273918 L2,3.37260816 C2,2.62447217 2.55885356,2 3.28222105,2 L20.7178912,2 C21.4246502,2 22,2.62447217 22,3.37260816 Z M17.0088183,18.553565 L17.4885362,18.3322476 L17.7989418,18.0456026 L17.6296296,17.6024249 L18.1093474,17.029316 L18.8994709,16.5993485 L19.6895944,15.9478827 L19.8306878,15.6482085 L20,15.218241 L20,15.0749186 L19.8306878,14.4234528 L19.8306878,12.8338762 L19.35097,12.4690554 L18.5890653,12.0390879 L18.4197531,11.7394137 L18.4197531,11.4527687 L18.2786596,10.6577995 L18.4197531,9.35504886 L19.0405644,9.21172638 L19.0405644,8.99022801 L18.7301587,8.84690554 L18.7301587,8.70358306 L19.2098765,8.27361564 L19.5202822,7.98697068 L19.6895944,7.62214984 L19.5202822,7.25732899 L20,6.97068404 L20,6.5276873 L19.8306878,6.46254072 L19.2098765,6.24104235 L18.4197531,6.09771987 L17.1781305,6.09771987 L16.6984127,6.03257329 L16.3880071,5.8762215 L16.0776014,5.58957655 L16.0776014,5.08143322 L15.9082892,4.93811075 L14.9770723,4.6514658 L14.8077601,4.50814332 L13.7068391,4.22149837 L12.4656085,4 L11.9858907,4.0781759 L11.3650794,4.22149837 L10.8853616,4.36482085 L10.5749559,4.57310894 L9.64373898,5.3029316 L9.16402116,5.73289902 L8.85361552,5.95439739 L8.4021164,7.25732899 L7.92239859,8.19543974 L6.82186949,9.35504886 L6.65255732,9.78501629 L5.89065256,10.1498371 L4.62081129,10.7361564 L4.31040564,11.0228013 L4.16931217,11.8175896 L4.31040564,12.1824104 L4.16931217,12.5472313 L4,12.8990228 L4,12.9771987 L4.79012346,13.3420195 L4.62081129,13.6286645 L4.16931217,13.9934853 L4.16931217,14.2017734 L4.31040564,14.7882736 L5.41093474,15.7262034 L5.58024691,15.9478827 L5.1005291,16.2994933 L4.93121693,16.5211726 L5.41093474,16.6644951 L5.58024691,16.8859935 L5.41093474,17.5374593 L4.93121693,18.0456026 L7.75308642,19.8566775 L9.64373898,20 L17.0088183,18.553565 Z" fill="#25872D"/>
  </g>
</svg>
