<?xml version="1.0" encoding="UTF-8"?>
<svg width="24" height="24" viewBox="0 0 24 24" version="1.1" xmlns="http://www.w3.org/2000/svg" xmlns:xlink="http://www.w3.org/1999/xlink">
  <g transform="translate(0 2.25)" stroke="none" stroke-width="1" fill="none" fill-rule="evenodd">
    <path d="M21,18.75 L3,18.75 L3,18.75 C1.34314575,18.75 2.02906125e-16,17.4068542 0,15.75 L0,3.75 L0,3.75 C-2.02906125e-16,2.09314575 1.34314575,0.75 3,0.75 L21,0.75 L21,0.75 C22.6568542,0.75 24,2.09314575 24,3.75 L24,15.75 L24,15.75 C24,17.4068542 22.6568542,18.75 21,18.75 Z" fill="#FFF"/>
    <path d="M20,16.75 L4,16.75 L4,16.75 C2.8954305,16.75 2,15.8545695 2,14.75 L2,4.75 L2,4.75 C2,3.6454305 2.8954305,2.75 4,2.75 L20,2.75 L20,2.75 C21.1045695,2.75 22,3.6454305 22,4.75 L22,14.75 L22,14.75 C22,15.8545695 21.1045695,16.75 20,16.75 Z" fill="#0AA98B"/>
  </g>
</svg>
