<?xml version="1.0" encoding="utf-8"?>
<!-- Generator: Adobe Illustrator 21.1.0, SVG Export Plug-In . SVG Version: 6.00 Build 0)  -->
<svg version="1.1" baseProfile="tiny" id="Layer_1" xmlns="http://www.w3.org/2000/svg" xmlns:xlink="http://www.w3.org/1999/xlink"
	 x="0px" y="0px" width="24px" height="24px" viewBox="0 0 24 24" xml:space="preserve">
<g transform="translate(0 -.75)">
	<path fill="#FFFFFF" d="M21,24.8H3l0,0c-1.7,0-3-1.3-3-3v-18l0,0c0-1.7,1.3-3,3-3h18l0,0c1.7,0,3,1.3,3,3v18l0,0
		C24,23.4,22.7,24.8,21,24.8z"/>
	<path fill="#EADF52" d="M20,22.8H4l0,0c-1.1,0-2-0.9-2-2v-16l0,0c0-1.1,0.9-2,2-2h16l0,0c1.1,0,2,0.9,2,2v16l0,0
		C22,21.9,21.1,22.8,20,22.8z"/>
</g>
</svg>
