<?xml version="1.0" encoding="UTF-8"?>
<svg width="24" height="24" viewBox="0 0 24 24" version="1.1" xmlns="http://www.w3.org/2000/svg" xmlns:xlink="http://www.w3.org/1999/xlink">
  <g fill-rule="nonzero" stroke="none" stroke-width="1" fill="none">
    <path d="M23.9936891,16.3636364 C23.9936891,24 12.5966868,22.9090909 11.9968446,24 C11.3970023,22.9090909 1.12091433e-12,24.0000009 1.36753054e-12,16.3636364 C1.50879593e-12,12 3.59905337,9.27272728 0,4.90909092 L3.59905337,0 C3.59905337,0 6.71648246,3 12,3 C17.2835175,3 20.3946358,0.0340909091 20.3946358,0.0340909091 L23.9936891,4.90909092 C20.3946358,9.27272728 23.9936891,12 23.9936891,16.3636364 Z" fill="#FFF"/>
    <path d="M22,16 C22,22.1470971 12.5998422,20.9090909 12,22 C11.4001578,20.9090909 2,22.1773235 2,16 C2,11.6363636 5.59905337,9.36363636 2,5 L4,2.5 C4,2.5 6.3705741,5 12,5 C17.6294259,5 20,2.5 20,2.5 L22,5 C18.4009466,9.36363636 22,11.6363636 22,16 Z" fill="#D0021B"/>
  </g>
</svg>
