<?xml version="1.0" encoding="UTF-8"?>
<svg width="24" height="24" viewBox="0 0 24 24" version="1.1" xmlns="http://www.w3.org/2000/svg" xmlns:xlink="http://www.w3.org/1999/xlink">
  <g transform="translate(-.96)" stroke="none" stroke-width="1" fill="none" fill-rule="evenodd">
    <path d="M2.95891051,20 C1.95891051,20 0.958910506,19.0023285 0.958910506,18 C0.958910506,18 0.958910506,14.5 0.958910506,9 C0.958910506,3.5 5.45891051,4 6.45891051,4.5 C6.95891051,1 11.9765268,1.76349448 12.9588654,0 C13.9740468,1.76951591 18.9589105,1 19.4589105,4.5 C20.4589105,4 24.9589105,3.5 24.9589105,9 C24.9589105,14.5 24.9589105,18 24.9589105,18 C24.9589105,19 23.9589105,20 22.9589105,20 L2.95891051,20 Z" fill="#FFF"/>
    <path d="M3.95891051,18 C3.55485361,18 2.95333452,17.3846112 2.95891051,17 L2.95891051,8.5 C2.95891051,6.5 4.74673981,6 5.95891051,6 C7.1710812,6 8.01358938,7 7.95891051,7 C7.4769214,2.32201926 12.0960066,3.55444465 12.9589105,2 C13.8506641,3.55975229 18.4622114,2.11012492 17.9589105,7 C17.9589105,7 18.7467398,6 19.9589105,6 C21.1710812,6 22.9589105,6.5 22.9589105,8.5 C22.9589105,13.5 22.9589105,17 22.9589105,17 C22.9644057,17.3846112 22.3629674,18 21.9589105,18 L3.95891051,18 Z" fill="#25872D"/>
    <path d="M1.87699396,2.63473321 C1.83744403,2.60196201 1.79722692,2.56913572 1.75640649,2.53619245 C1.67926009,2.47435092 1.59952778,2.41668788 1.51764054,2.36320331 C1.4357533,2.3093009 1.35171113,2.26626254 1.26594502,2.23408824 C1.18017891,2.20149608 1.09096492,2.18394646 0.998303044,2.18143937 C0.906072153,2.17851443 0.81211732,2.1964819 0.716869531,2.23534178 C0.819444073,2.22238849 0.919432702,2.22656697 1.01554246,2.24787722 C1.11208321,2.26918748 1.20474508,2.30261533 1.29439006,2.34774293 C1.38403504,2.39287053 1.47109411,2.44677295 1.55470529,2.50861447 C1.63870146,2.57042216 1.71968405,2.63473419 1.79765303,2.70113341 C1.78936562,2.7081343 1.781105,2.71513459 1.77287179,2.72213488 C1.69971062,2.7839764 1.63040005,2.83913236 1.56408437,2.8871849 C1.55852241,2.8871849 1.55253261,2.88425996 1.54697065,2.87882793 C1.54140869,2.87339591 1.53584673,2.87047097 1.52985693,2.87047097 C1.52429497,2.87047097 1.51702163,2.87339591 1.50846477,2.87882793 C1.50033576,2.88425996 1.49306242,2.8871849 1.48750046,2.8871849 C1.48750046,2.87256021 1.48279419,2.86211401 1.47338164,2.85668198 C1.46354125,2.85124996 1.45156165,2.84832502 1.4361593,2.84832502 C1.42503538,2.84832502 1.41305577,2.8533392 1.40064832,2.8637854 C1.38866871,2.87381376 1.38225107,2.88885629 1.38225107,2.90933085 C1.38225107,2.91476288 1.38610166,2.92353769 1.39380283,2.93565528 C1.40107616,2.94777288 1.40792165,2.95654769 1.41348361,2.96197972 L1.41348361,2.98412567 C1.29625461,3.02298555 1.19314443,3.02298555 1.10415308,2.98412567 C1.15720562,3.07855935 1.21282521,3.12995467 1.27143971,3.13831164 C1.33005421,3.1466686 1.39850911,3.12953683 1.4759487,3.08691631 C1.48151066,3.09234834 1.48835615,3.09736252 1.49605732,3.10195885 C1.50333066,3.10655518 1.51488242,3.10906227 1.52985693,3.10906227 C1.52985693,3.10739087 1.53199614,3.10530163 1.53584673,3.10363024 C1.53926947,3.09986961 1.54525928,3.09778037 1.55253261,3.09778037 C1.55253261,3.1128229 1.55852241,3.12285125 1.56964633,3.12828328 C1.58119809,3.13413315 1.59232201,3.13664024 1.60387378,3.13664024 C1.6149977,3.13664024 1.6269773,3.13120822 1.63938475,3.11992632 C1.6517922,3.10906227 1.657782,3.09778037 1.657782,3.08691631 C1.657782,3.06268112 1.64751377,3.0451315 1.62654946,3.03426745 C1.62654946,3.02841757 1.6299722,3.02298555 1.63638985,3.01755352 C1.64323534,3.01212149 1.64623024,3.00627162 1.64623024,3.00083959 C1.64623024,2.99164694 1.64537455,2.98454352 1.64366318,2.97994719 C1.64152397,2.97535086 1.63596201,2.97326162 1.62654946,2.97326162 C1.679602,2.93607313 1.73265454,2.89345262 1.78570708,2.84540008 C1.81495088,2.8189124 1.84497467,2.79242473 1.87585011,2.76593705 C1.90702451,2.79242473 1.93726881,2.8189124 1.9667274,2.84540008 C2.02016959,2.89345262 2.07145687,2.93607313 2.12102019,2.97326162 L2.12102019,3.00083959 C2.12102019,3.00627162 2.12145118,3.01212149 2.12274414,3.01755352 C2.12360611,3.02298555 2.12877793,3.02841757 2.13825961,3.03426745 C2.12317512,3.03969947 2.11455541,3.04722074 2.11240049,3.0564134 C2.11067654,3.06560606 2.10981457,3.07563441 2.10981457,3.08691631 C2.10981457,3.09778037 2.11326246,3.10906227 2.11972724,3.11992632 C2.12662301,3.13120822 2.14041454,3.13664024 2.16110184,3.13664024 C2.16713564,3.13664024 2.17618634,3.13413315 2.18825393,3.12828328 C2.20075251,3.12285125 2.2098032,3.1128229 2.21540601,3.09778037 C2.21540601,3.09986961 2.21756094,3.101541 2.22143981,3.10363024 C2.22531868,3.10739087 2.23092149,3.10906227 2.23867923,3.10906227 C2.24816091,3.10906227 2.25764259,3.10655518 2.26712427,3.10195885 C2.27660595,3.09736252 2.28436369,3.09234834 2.2899665,3.08691631 C2.36237206,3.12953683 2.43003678,3.1466686 2.49296066,3.13831164 C2.55588453,3.12995467 2.60932673,3.07855935 2.65328725,2.98412567 C2.61492954,3.00460023 2.5688141,3.01462858 2.51450993,3.01462858 C2.46020576,3.01462858 2.40331568,3.00460023 2.34427067,2.98412567 L2.34427067,2.96197972 C2.34987348,2.95654769 2.35547629,2.94777288 2.36021713,2.93565528 C2.36495797,2.92353769 2.3671129,2.91476288 2.3671129,2.90933085 C2.3671129,2.88885629 2.36237206,2.87381376 2.35289038,2.8637854 C2.3434087,2.8533392 2.33306505,2.84832502 2.32142844,2.84832502 C2.30634395,2.84832502 2.29470734,2.85124996 2.2869496,2.85668198 C2.27962285,2.86211401 2.27272708,2.87256021 2.26712427,2.8871849 C2.25936653,2.8871849 2.25290175,2.88425996 2.24686795,2.87882793 C2.24342007,2.87715654 2.24040317,2.8742316 2.23867923,2.87047097 C2.23264543,2.87047097 2.22531868,2.87339591 2.21540601,2.87882793 C2.20592433,2.88425996 2.19859758,2.8871849 2.19256378,2.8871849 C2.12403709,2.83913236 2.05335548,2.7839764 1.98094992,2.72213488 C1.97223286,2.71468965 1.96347833,2.70724442 1.95468707,2.69979847 C2.03203951,2.63387214 2.11276832,2.57000786 2.19729211,2.50861447 C2.28243288,2.44677295 2.37056855,2.39287053 2.46127128,2.34774293 C2.55240186,2.30261533 2.64609949,2.26918748 2.74236418,2.24787722 C2.83905671,2.22656697 2.9383163,2.22238849 3.0405708,2.23534178 C2.94430611,2.1964819 2.84975279,2.17851443 2.75819437,2.18143937 C2.66620811,2.18394646 2.57678891,2.20149608 2.48993677,2.23408824 C2.40265678,2.26626254 2.31794386,2.3093009 2.23579799,2.36320331 C2.15322427,2.41668788 2.07364546,2.47435092 1.99706156,2.53619245 C1.95653875,2.56913572 1.91649509,2.60196201 1.87699396,2.63473321 Z M1.875,3.75 C0.839466094,3.75 0,2.91053391 0,1.875 C0,0.839466094 0.839466094,0 1.875,0 C2.91053391,0 3.75,0.839466094 3.75,1.875 C3.75,2.91053391 2.91053391,3.75 1.875,3.75 Z M1.88960518,0.259164838 L1.81872143,0.375337091 L1.69270588,0.281801344 L1.66212858,0.426589555 L1.52360413,0.36423239 L1.54213583,0.503041148 L1.38554297,0.491509343 L1.45318367,0.6192134 L1.30215033,0.641849905 L1.39758858,0.758022158 L1.25906413,0.82336905 L1.39758858,0.885726215 L1.30215033,1.00189847 L1.45318367,1.02453497 L1.38554297,1.15779138 L1.54213583,1.14070722 L1.52360413,1.28549544 L1.66212858,1.22313827 L1.69270588,1.36194703 L1.83317689,1.28549544 L1.83317689,2.07355938 L1.57749508,2.07355938 L1.57749508,2.15849575 L2.1953928,2.15849575 L2.1953928,2.07355938 L1.91840417,2.07355938 L1.91840417,1.28549544 L2.06472974,1.36194703 L2.10781594,1.22313827 L2.24634038,1.28549544 L2.23383149,1.14070722 L2.38486483,1.15779138 L2.31722413,1.02453497 L2.47381699,1.00189847 L2.37235594,0.885726215 L2.49837149,0.82336905 L2.37235594,0.758022158 L2.47381699,0.641849905 L2.31722413,0.6192134 L2.38486483,0.491509343 L2.23383149,0.503041148 L2.24634038,0.36423239 L2.10781594,0.426589555 L2.06472974,0.281801344 L1.95724588,0.375337091 L1.88960518,0.259164838 Z" transform="translate(11.125 3.625)" fill="#FFF"/>
  </g>
</svg>
