<?xml version="1.0" encoding="UTF-8"?>
<svg width="24" height="24" viewBox="0 0 24 24" version="1.1" xmlns="http://www.w3.org/2000/svg" xmlns:xlink="http://www.w3.org/1999/xlink">
  <g transform="translate(-.328 .615)" stroke="none" stroke-width="1" fill="none" fill-rule="evenodd">
    <rect fill="#FFF" x=".32830739" y=".38521401" width="24" height="22" rx="4"/>
    <path d="M5.32830739,2.38521401 L19.3283074,2.38521401 C20.9851616,2.38521401 22.3283074,3.72835976 22.3283074,5.38521401 L22.3283074,17.385214 C22.3283074,19.0420683 20.9851616,20.385214 19.3283074,20.385214 L5.32830739,20.385214 C3.67145314,20.385214 2.32830739,19.0420683 2.32830739,17.385214 L2.32830739,5.38521401 L2.32830739,5.38521401 C2.32830739,3.72835976 3.67145314,2.38521401 5.32830739,2.38521401 L5.32830739,2.38521401 Z M12.3727797,19.385214 C17.3687358,19.385214 21.4460183,15.7974176 21.4460183,11.3752461 C21.4460183,6.95706178 17.3687358,3.38521401 12.3727797,3.38521401 C7.37682359,3.38521401 3.33280603,6.95706178 3.33280603,11.3752461 C3.33280603,15.7974176 7.37682359,19.385214 12.3727797,19.385214 Z M12.3124184,4.38521401 C16.7289195,4.38521401 20.3283074,7.51973307 20.3283074,11.3795566 C20.3283074,15.2356855 16.7289195,18.385214 12.3124184,18.385214 C7.90542457,18.385214 4.32830739,15.2356855 4.32830739,11.3795566 C4.32830739,7.51973307 7.90542457,4.38521401 12.3124184,4.38521401 Z M12.318163,17.385214 C16.1965241,17.385214 19.3283074,14.7035979 19.3283074,11.3835279 C19.3283074,8.06008569 16.1965241,5.38521401 12.318163,5.38521401 C8.46883684,5.38521401 5.32830739,8.06345792 5.32830739,11.3835279 C5.32830739,14.7035979 8.46883684,17.385214 12.318163,17.385214 Z" fill="#00AF19"/>
  </g>
</svg>
