<?xml version="1.0" encoding="UTF-8"?>
<svg width="24" height="24" viewBox="0 0 24 24" version="1.1" xmlns="http://www.w3.org/2000/svg" xmlns:xlink="http://www.w3.org/1999/xlink">
  <g stroke="none" stroke-width="1" fill="none" fill-rule="evenodd">
    <rect fill="#FFF" transform="matrix(-1 0 0 1 24 0)" x="0" y="0" width="24" height="24" rx="4"/>
    <path d="M12,7.35328383 L12,7.35714286 L12.0026445,7.35521334 L12.005289,7.35714286 L12.005289,7.35328383 L12.7565383,6.80514892 L13.0016964,6.96324401 L12.9491626,7.19636784 L13.0659046,7.20172752 L13.5766506,6.72744109 L13.5620578,6.44072559 L13.0513119,6.75423684 L12.7507013,6.54790893 L12.7711313,6.43268681 L13.4278046,5.96911891 L13.3781893,5.62613231 L13.5562206,5.57254047 L13.8422384,5.26706816 L14.052374,4.97231404 L14.2304054,4.51488997 L14.3179619,3.8576073 L14.3267176,3.61376544 L14.1516048,3.04837312 L13.9910845,2.85544317 L13.8334829,2.79113313 L13.9210394,3.07248929 L13.8685054,3.56285319 L13.5620578,4.04517807 L13.25,3.81205424 L13.0834159,3.82277277 L13.0834159,3.96428571 L13.3840263,4.21935105 L13.0717417,4.53018271 L12.4909504,4.70435568 L12.005289,3.08902011 L12.005289,3.07142857 L12.0026445,3.08022434 L12,3.07142857 L12,3.08902011 L11.5143386,4.70435568 L10.9335473,4.53018271 L10.6212627,4.21935105 L10.9218731,3.96428571 L10.9218731,3.82277277 L10.755289,3.81205424 L10.4432312,4.04517807 L10.1367836,3.56285319 L10.0842497,3.07248929 L10.1718061,2.79113313 L10.0142045,2.85544317 L9.85368422,3.04837312 L9.67857143,3.61376544 L9.68732709,3.8576073 L9.77488357,4.51488997 L9.95291502,4.97231404 L10.1630506,5.26706816 L10.4490684,5.57254047 L10.6270997,5.62613231 L10.5774844,5.96911891 L11.2341577,6.43268681 L11.2545877,6.54790893 L10.9539771,6.75423684 L10.4432312,6.44072559 L10.4286384,6.72744109 L10.9393844,7.20172752 L11.0561264,7.19636784 L11.0035926,6.96324401 L11.2487507,6.80514892 L12,7.35328383 Z M5,2 L19,2 L19,2 C20.6568542,2 22,3.34314575 22,5 L22,19 C22,20.6568542 20.6568542,22 19,22 L5,22 C3.34314575,22 2,20.6568542 2,19 L2,5 L2,5 C2,3.34314575 3.34314575,2 5,2 L5,2 Z" fill="#0039A0" fill-rule="nonzero"/>
  </g>
</svg>
