<?xml version="1.0" encoding="UTF-8"?>
<svg width="24" height="24" viewBox="0 0 24 24" version="1.1" xmlns="http://www.w3.org/2000/svg" xmlns:xlink="http://www.w3.org/1999/xlink">
  <g transform="translate(0 .875)" stroke="none" stroke-width="1" fill="none" fill-rule="evenodd">
    <path d="M12,0.125 C13.8461538,1.05100909 24,3.27298182 24,5.125 C24,11.1894791 24,17.2725572 24,20.125 C24,21.125 23,22.125 22,22.125 C16.4615385,22.125 3.24571218,22.125 2,22.125 C1,22.125 3.55271368e-15,21.125 3.55271368e-15,20.125 C3.94715158e-15,14.2201453 0,10.969659 0,5.125 C0,3.27298182 10.1538462,1.05100909 12,0.125 Z" fill="#3E4559" transform="rotate(-180 12 11.125)"/>
    <path d="M12,2.1079602 C13.75,2.9871969 22,4.3494868 22,6.1079602 C22,11.8661246 22,16.3995933 22,19.1079602 C22,19.5475786 21.5,20.1079602 21,20.1079602 C20.5,20.1079602 3.72845135,20.1462997 3,20.1079602 C2.27154865,20.0696207 2,19.5475786 2,19.1079602 C2,13.6773812 2,11.6574075 2,6.1079602 C2,4.3494868 10.25,2.9871969 12,2.1079602 Z" fill="#FFF" transform="rotate(-180 12 11.116)"/>
  </g>
</svg>
