<?xml version="1.0" encoding="utf-8"?>
<!-- Generator: Adobe Illustrator 21.1.0, SVG Export Plug-In . SVG Version: 6.00 Build 0)  -->
<svg version="1.1" baseProfile="tiny" id="Layer_1" xmlns="http://www.w3.org/2000/svg" xmlns:xlink="http://www.w3.org/1999/xlink"
	 x="0px" y="0px" width="24px" height="24px" viewBox="0 0 24 24" xml:space="preserve">
<g>
	<path fill="#3E4559" d="M24,16.4c0,7.6-11.4,6.5-12,7.6c-0.6-1.1-12,0-12-7.6C0,12,3.6,9.3,0,4.9L3.6,0c0,0,1.3,1.1,4.2,1.1
		C10.7,1.1,12,0,12,0s1.7,1.1,4.2,1.1S20.4,0,20.4,0L24,4.9C20.4,9.3,24,12,24,16.4z"/>
	<path fill="#FFFFFF" d="M22,15.9c0,5.8-9.4,5.1-10,6.1c-0.6-1-10-0.3-10-6.1c0-3.5,3.3-7.2,0-10.7l2.2-2.8c0,0,1.1,0.7,3.8,0.7
		S12,2,12,2s1.6,1.1,3.9,1.1s3.9-0.7,3.9-0.7L22,5.2C18.7,8.7,22,11.8,22,15.9z"/>
</g>
</svg>
