<?xml version="1.0" encoding="utf-8"?>
<!-- Generator: Adobe Illustrator 21.1.0, SVG Export Plug-In . SVG Version: 6.00 Build 0)  -->
<svg version="1.1" baseProfile="tiny" id="Layer_1" xmlns="http://www.w3.org/2000/svg" xmlns:xlink="http://www.w3.org/1999/xlink"
	 x="0px" y="0px" width="24px" height="24px" viewBox="0 0 24 24" xml:space="preserve">
<g transform="translate(0 -.25)">
	<path fill="#FFFFFF" d="M12,22.2C-6,15.8,1,3.2,3.3,0.5l0.2-0.2l0.3,0.1c3.1,1.1,5.9,1.3,8.1,0L12,0.3l0.2,0.1c2.2,1.3,5,1.1,8.1,0
		l0.3-0.1l0.2,0.2C23,3.2,30,15.8,12,22.2z"/>
	<path fill="#0080FF" d="M21.5,7.2c-1.2,0-18,0-19,0c-0.3,1-2.5,8,9.5,13C24,15.2,21.8,8.2,21.5,7.2z"/>
	<path fill="#D6304C" d="M21,5.2c-0.4-1-0.9-2-1.6-3c-2.7,1.1-5.3,1.4-7.4,0c-2.1,1.4-4.7,1.1-7.4,0c-0.7,1-1.2,2-1.6,3H21z"/>
</g>
</svg>
