<?xml version="1.0" encoding="utf-8"?>
<!-- Generator: Adobe Illustrator 14.0.0, SVG Export Plug-In . SVG Version: 6.00 Build 43363)  -->
<!DOCTYPE svg PUBLIC "-//W3C//DTD SVG 1.1//EN" "http://www.w3.org/Graphics/SVG/1.1/DTD/svg11.dtd">
<svg version="1.1" id="Vrstva_1" xmlns="http://www.w3.org/2000/svg" xmlns:xlink="http://www.w3.org/1999/xlink" x="0px" y="0px"
	 width="1136px" height="568px" viewBox="0 0 1136 568" enable-background="new 0 0 1136 568" xml:space="preserve">
<path fill="#0080FF" d="M444.424,160.113L159.999,568.088l312,0.002l65.867-407.996c6.236-38.386,0.305-66.126-27.579-93.031
	c-15.291-14.755-33.912-25.964-54.282-34.974C422.529,17.284,385.045,9.249,355.153,7.33c18.929,4.253,37.639,8.459,55.563,16.027
	c12.307,5.197,24.252,11.773,33.32,19.938c15.311,13.784,22.399,31.173,23.061,49.639
	C467.966,117.195,458.072,140.525,444.424,160.113L444.424,160.113z"/>
<g>
	<path fill-rule="evenodd" clip-rule="evenodd" fill="#265385" d="M463.99,166.654h11.512l6.408-12.402H464h-0.01V166.654
		L463.99,166.654z M401.737,379.727h-36.314v20.363h51.326l83.454-233.436h17.789v-12.402h-0.012H500.59l-83.841,225.475H401.737
		L401.737,379.727z"/>
	<polygon fill-rule="evenodd" clip-rule="evenodd" fill="#F5F8FF" points="504.001,123.405 517.98,154.251 500.59,154.251 
		416.749,379.727 365.423,379.727 481.91,154.251 464,154.251 504.001,123.405 	"/>
	<path opacity="0.1" fill-rule="evenodd" clip-rule="evenodd" d="M516.146,166.654l4.361,6.302h-17.956l-84.095,235.13h-50.76
		l3.971-7.996h45.081l83.454-233.436H516.146L516.146,166.654z M472.247,172.956h-5.72l7.457-6.302h1.518l1.176-2.274v-0.001
		L472.247,172.956L472.247,172.956z"/>
</g>
</svg>
