<?xml version="1.0" encoding="utf-8"?>
<!-- Generator: Adobe Illustrator 14.0.0, SVG Export Plug-In . SVG Version: 6.00 Build 43363)  -->
<!DOCTYPE svg PUBLIC "-//W3C//DTD SVG 1.1//EN" "http://www.w3.org/Graphics/SVG/1.1/DTD/svg11.dtd">
<svg version="1.1" id="Vrstva_1" xmlns="http://www.w3.org/2000/svg" xmlns:xlink="http://www.w3.org/1999/xlink" x="0px" y="0px"
	 width="1136px" height="568px" viewBox="0 0 1136 568" enable-background="new 0 0 1136 568" xml:space="preserve">
<path fill="#373941" d="M1135.991,568.09L739.488,160.093c-16.756-17.391-30.735-38.089-38.969-60.872
	c-2.438-6.743-4.023-13.573-4.501-20.415c-2.741-39.402,43.628-56.355,74.38-64.523C799.67,6.506,836.176,2.814,873.476,1.135
	c4.576-0.206,16.97-0.833,21.563-0.981c-6.41-0.324-20.778-0.035-27.527-0.035c-32.337,0.008-91.753-0.103-151.181,12.478
	C661.522,24.199,603.146,51.884,568.059,95.57c-35.088-43.686-93.464-71.371-148.271-82.974
	C360.359,0.016,300.943,0.126,268.605,0.119c-6.748,0-21.116-0.289-27.526,0.035c4.593,0.148,16.986,0.775,21.563,0.981
	c37.3,1.679,73.806,5.371,103.077,13.147c30.752,8.168,77.121,25.121,74.38,64.523c-0.478,6.842-2.063,13.672-4.501,20.415
	c-7.961,22.028-21.852,43.145-39.033,60.868L0,568.09H1135.991L1135.991,568.09z"/>
<path fill-rule="evenodd" clip-rule="evenodd" fill="#FFFFFF" d="M563.271,167.998c0.284-10.112,0.262-19.447-1.446-29.661
	c-8.523-50.958-45.75-86.626-98.402-107.993c-12.092-4.906-25.225-9.531-39.132-13.809c-24.937-7.67-46.578-9.932-66.796-11.807
	c-21.529-1.998-42.285-2.916-62.623-3.488c-2.701-0.076-5.394-0.146-8.078-0.212c-15.389-0.374-30.564-0.69-45.682-0.874
	c14.87-0.112,30.101,0.063,45.482,0.463c23.48,0.609,45.484,1.337,71.072,3.56c19.66,1.708,41.067,3.849,64.766,10.616
	c14.973,4.277,29.129,9.064,42.18,14.266c47.898,19.088,89.869,53.199,103.391,101.338c13.55-48.139,55.605-82.25,103.503-101.338
	c13.052-5.201,27.208-9.988,42.181-14.266c23.698-6.768,45.105-8.908,64.766-10.616c25.588-2.223,47.592-2.95,71.072-3.56
	c15.382-0.399,30.612-0.575,45.482-0.463c-15.117,0.184-30.293,0.5-45.682,0.874c-2.685,0.065-5.377,0.136-8.078,0.212
	c-20.338,0.572-41.094,1.49-62.623,3.488c-20.218,1.875-41.859,4.137-66.797,11.807c-13.907,4.277-27.039,8.902-39.131,13.809
	c-52.65,21.367-89.971,57.033-98.518,107.989c-1.672,9.969-1.744,19.153-1.466,29.032l0.696,24.725h-10.816L563.271,167.998
	L563.271,167.998z M895.026,0.154c-10.639-0.08-20.337,0.279-29.26,0.6c-20.389,0.73-40.807,2.144-61.003,5.156
	c-24.336,3.629-49.768,8.983-72.672,18.157c-20.162,8.076-34.469,18.81-41.988,31.104c-9.588,15.675-9.406,33.889-3.729,52.367
	c5.902,19.211,18.988,40.197,29.297,52.551l340.445,408h32l-363.437-408c-11.411-12.811-25.628-34.451-32.646-53.282
	c-6.948-18.642-8.317-36.334,1.305-51.667c7.043-11.225,20.346-21.188,38.643-29.332c22.865-10.178,47.805-15.572,72.466-19.334
	c20.461-3.121,41.149-4.613,61.834-5.411C875.34,0.714,884.903,0.279,895.026,0.154L895.026,0.154z M241.091,0.154
	c10.639-0.08,20.337,0.279,29.26,0.6c20.389,0.73,40.807,2.144,61.003,5.156c24.336,3.629,49.768,8.983,72.672,18.157
	c20.162,8.076,34.469,18.81,41.988,31.104c9.588,15.675,9.406,33.889,3.729,52.367c-5.903,19.211-18.988,40.197-29.297,52.551
	L80,568.09H48l363.437-408c11.411-12.811,25.628-34.451,32.646-53.282c6.948-18.642,8.317-36.334-1.305-51.667
	c-7.043-11.225-20.346-21.188-38.643-29.332C381.27,15.63,356.329,10.236,331.669,6.474c-20.461-3.121-41.149-4.613-61.834-5.411
	C260.777,0.714,251.214,0.279,241.091,0.154L241.091,0.154z"/>
</svg>
