<?xml version="1.0" encoding="utf-8"?>
<!-- Generator: Adobe Illustrator 14.0.0, SVG Export Plug-In . SVG Version: 6.00 Build 43363)  -->
<!DOCTYPE svg PUBLIC "-//W3C//DTD SVG 1.1//EN" "http://www.w3.org/Graphics/SVG/1.1/DTD/svg11.dtd">
<svg version="1.1" id="Vrstva_1" xmlns="http://www.w3.org/2000/svg" xmlns:xlink="http://www.w3.org/1999/xlink" x="0px" y="0px"
	 width="1136px" height="568px" viewBox="0 0 1136 568" enable-background="new 0 0 1136 568" xml:space="preserve">
<path fill="#0080FF" d="M691.575,160.113L976,568.088l-312,0.002l-65.866-407.996c-6.237-38.386-0.306-66.126,27.579-93.031
	c15.291-14.755,33.912-25.964,54.281-34.974C713.47,17.284,750.953,9.249,780.846,7.33c-18.93,4.253-37.64,8.459-55.564,16.027
	c-12.307,5.197-24.252,11.773-33.32,19.938c-15.31,13.784-22.398,31.173-23.06,49.639
	C668.033,117.195,677.926,140.525,691.575,160.113L691.575,160.113z"/>
<g>
	<path fill-rule="evenodd" clip-rule="evenodd" fill="#265385" d="M671.83,166.654h-11.514l-6.407-12.402h17.91h0.011V166.654
		L671.83,166.654z M734.082,379.727h36.314v20.363H719.07l-83.455-233.436h-17.788v-12.402h0.012h17.391l83.841,225.475H734.082
		L734.082,379.727z"/>
	<polygon fill-rule="evenodd" clip-rule="evenodd" fill="#F5F8FF" points="631.818,123.405 617.839,154.251 635.229,154.251 
		719.07,379.727 770.396,379.727 653.909,154.251 671.819,154.251 631.818,123.405 	"/>
	<path opacity="0.1" fill-rule="evenodd" clip-rule="evenodd" d="M619.674,166.654l-4.362,6.302h17.956l84.095,235.13h50.759
		l-3.971-7.996h-45.08l-83.455-233.436H619.674L619.674,166.654z M663.572,172.956h5.719l-7.457-6.302h-1.518l-1.175-2.274
		l-0.001-0.001L663.572,172.956L663.572,172.956z"/>
</g>
</svg>
