<?xml version="1.0" encoding="utf-8"?>
<!-- Generator: Adobe Illustrator 14.0.0, SVG Export Plug-In . SVG Version: 6.00 Build 43363)  -->
<!DOCTYPE svg PUBLIC "-//W3C//DTD SVG 1.1//EN" "http://www.w3.org/Graphics/SVG/1.1/DTD/svg11.dtd">
<svg version="1.1" id="Vrstva_1" xmlns="http://www.w3.org/2000/svg" xmlns:xlink="http://www.w3.org/1999/xlink" x="0px" y="0px"
	 width="1136px" height="568px" viewBox="0 0 1136 568" enable-background="new 0 0 1136 568" xml:space="preserve">
<path fill="#373941" d="M0,568.09l552-568h15.996l11.066,83.061c35.533-36.552,87.849-60.093,137.268-70.554
	C775.758,0.016,835.174,0.127,867.511,0.119c6.749,0,21.117-0.289,27.527,0.035c-4.593,0.148-16.986,0.776-21.563,0.981
	c-37.3,1.678-73.806,5.371-103.077,13.148c-30.752,8.167-77.121,25.121-74.38,64.522c0.478,6.843,2.063,13.672,4.5,20.416
	c8.234,22.783,22.214,43.481,38.97,60.873l396.503,407.996H0L0,568.09z"/>
<path fill-rule="evenodd" clip-rule="evenodd" fill="#FFFFFF" d="M895.026,0.154l-0.03,0h0.01
	c-14.87-0.112-30.101,0.064-45.482,0.463c-23.481,0.61-45.484,1.337-71.073,3.56c-19.659,1.708-41.066,3.848-64.765,10.617
	c-14.974,4.276-29.129,9.064-42.181,14.265c-44.44,17.71-83.847,48.354-100.126,91.135L565.995,0.089l-3.407,192h0.004h10.813h0.004
	l-0.696-24.724c-0.278-9.879-0.206-19.064,1.466-29.033c8.547-50.956,45.867-86.623,98.518-107.989
	c12.093-4.907,25.224-9.532,39.132-13.809c24.937-7.67,46.578-9.931,66.796-11.807c21.529-1.998,42.286-2.916,62.623-3.488
	c2.701-0.076,5.394-0.146,8.078-0.212c7.829-0.19,15.602-0.366,23.341-0.517c-2.351,0.078-4.649,0.162-6.898,0.242
	c-20.389,0.73-40.807,2.144-61.003,5.156c-24.336,3.629-49.768,8.984-72.672,18.158c-20.162,8.076-34.469,18.811-41.988,31.104
	c-9.588,15.675-9.406,33.89-3.729,52.368c5.903,19.21,18.988,40.197,29.297,52.55l340.445,408.001h32l-363.437-408
	c-11.411-12.81-25.628-34.451-32.646-53.282c-6.947-18.641-8.316-36.334,1.305-51.667c7.044-11.226,20.347-21.188,38.644-29.332
	c22.866-10.178,47.806-15.572,72.466-19.335c20.461-3.121,41.149-4.613,61.834-5.411C875.34,0.714,884.903,0.279,895.026,0.154
	L895.026,0.154z M553.996,0.089L80,568.09H48L553.996,0.089L553.996,0.089z"/>
</svg>
