<?xml version="1.0" encoding="utf-8"?>
<!-- Generator: Adobe Illustrator 14.0.0, SVG Export Plug-In . SVG Version: 6.00 Build 43363)  -->
<!DOCTYPE svg PUBLIC "-//W3C//DTD SVG 1.1//EN" "http://www.w3.org/Graphics/SVG/1.1/DTD/svg11.dtd">
<svg version="1.1" id="Vrstva_1" xmlns="http://www.w3.org/2000/svg" xmlns:xlink="http://www.w3.org/1999/xlink" x="0px" y="0px"
	 width="1136px" height="568px" viewBox="0 0 1136 568" enable-background="new 0 0 1136 568" xml:space="preserve">
<polygon fill="#0080FF" points="563.995,0.088 555.996,0.09 160,568.088 472,568.09 563.995,0.088 "/>
<g>
	<path fill-rule="evenodd" clip-rule="evenodd" fill="#265385" d="M463.99,166.654h11.512l6.408-12.402H464h-0.01V166.654
		L463.99,166.654z M401.737,379.727h-36.314v20.363h51.326l83.455-233.436h17.789v-12.402h-0.012h-17.39l-83.841,225.475H401.737
		L401.737,379.727z"/>
	<polygon fill-rule="evenodd" clip-rule="evenodd" fill="#F5F8FF" points="504.001,123.405 517.98,154.252 500.59,154.252 
		416.749,379.727 365.423,379.727 481.91,154.252 464,154.252 504.001,123.405 	"/>
	<path opacity="0.1" fill-rule="evenodd" clip-rule="evenodd" d="M516.146,166.654l4.362,6.301h-17.956l-84.095,235.13h-50.759
		l3.97-7.996h45.081l83.455-233.436H516.146L516.146,166.654z M472.247,172.956h-5.719l7.457-6.301h1.517l1.176-2.275l0-0.001
		L472.247,172.956L472.247,172.956z"/>
</g>
</svg>
