<?xml version="1.0" encoding="utf-8"?>
<!-- Generator: Adobe Illustrator 14.0.0, SVG Export Plug-In . SVG Version: 6.00 Build 43363)  -->
<!DOCTYPE svg PUBLIC "-//W3C//DTD SVG 1.1//EN" "http://www.w3.org/Graphics/SVG/1.1/DTD/svg11.dtd">
<svg version="1.1" id="Vrstva_1" xmlns="http://www.w3.org/2000/svg" xmlns:xlink="http://www.w3.org/1999/xlink" x="0px" y="0px"
	 width="1136px" height="568px" viewBox="0 0 1136 568" enable-background="new 0 0 1136 568" xml:space="preserve">
<path fill="#373941" d="M911.999,160.089L1136,275.483v292.605H0L396.75,159.84c9.452-9.726,18.302-19.209,25.884-28.427
	c12.272-14.918,23.75-32.181,25.015-50.718c0.655-9.596-1.701-18.505-6.226-26.97c-10.051-18.802-30.644-31.679-50.052-38.663
	c-14.172-5.101-31.352-8.864-51.691-11.068c-13.31-1.443-27.186-2.355-41.182-2.985c-4.071-0.182-14.415-0.788-18.5-0.92h2.082
	l21.724,0.017c41.072,0.008,82.144,0.583,123.168,2.747c3.972,0.209,7.953,0.452,11.931,0.717
	c22.999,1.537,46.238,3.58,69.158,6.864c66.396,9.513,117.979,36.418,168.729,80.792c6.105,5.338,12.201,10.82,18.367,16.467
	c0.039-56.29,55.055-89.805,104.972-100.372C834.67,0.009,869.204,0.074,888,0.069c3.923,0,12.273-0.168,16,0.02
	c-2.67,0.086-9.873,0.451-12.533,0.57c-21.68,0.976-42.898,3.122-59.912,7.642c-17.875,4.747-44.826,14.602-43.232,37.503
	c1.542,22.121,23.014,43.984,38.727,58.476C852.077,127.363,881.48,143.995,911.999,160.089L911.999,160.089z"/>
<path fill-rule="evenodd" clip-rule="evenodd" fill="#FFFFFF" d="M420.706,159.783L80,568.089H48l363.803-408.411
	c16.432-18.448,34.743-39.59,41.223-63.809c6.149-22.979-3.216-44.575-20.327-60.013c-11.979-10.807-26.808-17.828-42.634-22.575
	c-3.95-1.185-7.963-2.229-12.008-3.153c-8.77-2.005-17.484-3.745-26.245-4.997c-8.057-1.15-16.154-1.859-24.369-2.663
	c-5.235-0.512-16.923-1.217-27.713-1.643c-0.905-0.036-1.805-0.069-2.694-0.1c-1.745-0.06-3.447-0.095-5.079-0.144
	c-0.876-0.026-1.754-0.074-2.63-0.102c-1.442-0.047-2.887-0.151-4.325-0.203c-0.339-0.012-0.682-0.023-0.998-0.032
	c-0.642-0.019-1.283-0.067-1.925-0.097c-0.622-0.028-1.246-0.041-1.868-0.055c-0.032,0-0.065-0.002-0.097-0.003l-0.032-0.001h0.01
	h-0.01h-0.003h-0.001c0.047,0,0.093,0.003,0.141,0.006c0.621,0.021,1.24,0.039,1.861,0.063c0.693,0.028,1.391,0.066,2.084,0.083
	c0.279,0.007,0.563,0,0.843,0.006c1.444,0.035,2.888,0.149,4.331,0.184c0.844,0.02,1.723,0.06,2.617,0.08
	c2.527,0.056,5.232,0.096,7.99,0.177c10.757,0.317,22.376,1.112,27.56,1.554c17.147,1.466,34.003,3.496,50.802,7.381
	c3.991,0.923,7.964,1.962,11.889,3.136c15.705,4.698,30.649,11.569,42.99,21.938c17.873,15.016,30.124,37.099,25.165,60.949
	C453.329,119.787,434.494,143.259,420.706,159.783L420.706,159.783z M280.05,0.089h0.003h0.002h0.001h0.003l0,0h0.003l0,0h0.003
	h0.003h0.003h0.001h0.002H280.05L280.05,0.089z M903.993,0.089h-0.012l-0.277-0.002l-0.128,0l-0.161-0.001
	c-8.463-0.056-17.125,0.045-25.87,0.272c-13.648,0.354-26.437,0.777-41.311,2.069c-11.427,0.993-23.869,2.236-37.644,6.17
	c-21.843,6.239-40.691,14.345-53.922,23.446c-17.757,12.214-27.687,26.223-33.281,39.917c-1.928,4.72-3.334,9.402-4.292,13.961
	c-1.706,8.122-0.938,17.161-0.198,25.375c1.693,18.779,10.016,35.063,19.566,50.926l-2.075-2.33
	C689.172,120.355,651.58,76.48,605.711,47.947c-34.951-21.74-74.273-32.062-114.851-37.778c-19.311-2.72-38.754-4.444-57.752-5.95
	c-1.029-0.082-2.068-0.167-3.098-0.242c-17.814-1.284-33.727-1.984-49.514-2.5c-26.934-0.883-53.505-1.045-88.537-1.296
	c-2.538-0.018-4.941-0.04-6.957-0.057c-1.095-0.01-2.082-0.017-2.921-0.022l-1.425-0.009l-0.024,0l-0.041,0
	c-0.219-0.002-0.419-0.004-0.593-0.001h0.004h0.003h0.003h0.003h0.003h0.001h0.002h0.001h0.002h0.001h0.002h0.001h0.002h0.001h0.002
	h0.001h0.002h0.001h0.002h0.001h0.002h0.002h0.001h0.002h0.001h0.002H903.993L903.993,0.089z M280.053,0.089h-0.056H280.053
	L280.053,0.089z M280.082,0.089h0.01c0.545,0.006,1.218,0.027,1.987,0.048c0.893,0.023,1.914,0.048,2.923,0.08
	c2.316,0.074,4.642,0.186,6.958,0.206c9.169,0.08,18.224,0.4,27.303,0.752c5.868,0.228,11.744,0.58,17.62,0.901
	c4.35,0.238,8.703,0.415,13.049,0.748c1.352,0.104,2.708,0.213,4.065,0.327h3.972c-2.661-0.205-5.309-0.402-7.938-0.594
	c-4.365-0.319-8.74-0.489-13.116-0.721c-5.875-0.313-11.756-0.659-17.636-0.867c-9.092-0.321-18.175-0.568-27.323-0.629
	c-2.31-0.015-4.637-0.095-6.948-0.153c-1.035-0.026-2.042-0.043-2.931-0.063l-1.165-0.026l1.167,0.015
	c0.841,0.011,1.829,0.023,2.923,0.042c2.015,0.036,4.414,0.068,6.952,0.105c7.523,0.109,15.011,0.148,22.523,0.226
	c4.642,0.048,9.263,0.132,13.87,0.2c17.508,0.259,34.795,0.64,52.133,1.217c16.375,0.545,32.802,1.117,49.51,2.584
	c1.031,0.091,2.07,0.19,3.101,0.292c26.011,2.589,51.902,5.258,77.341,9.976c34.04,6.313,65.306,16.619,94.424,35.679
	c43.415,28.421,77.194,69.863,110.561,109.655l26.832,32h12.805c-18.285-23.922-37.636-54.028-42.459-79.994
	c-2.091-11.256-2.458-25.427,2.476-40.061c4.578-13.58,13.658-27.56,31.769-39.979c12.243-8.396,29.976-16.08,50.669-22.445
	c14.495-4.458,27.073-5.772,38.825-6.863c12.514-1.161,24.578-1.695,36.399-2.027c1.569-0.044,3.135-0.085,4.695-0.123
	c4.548-0.111,9.064-0.213,13.561-0.3c-1.364,0.045-2.699,0.094-4.004,0.14c-11.851,0.425-23.719,1.247-35.457,2.997
	c-14.146,2.11-28.928,5.222-42.24,10.554c-11.72,4.694-20.034,10.933-24.405,18.079c-7.231,11.823-4.902,26.129,1.563,40.033
	c6.977,15.001,19.987,29.542,32.171,39.99c13.288,11.396,27.932,22.213,42.669,32.021c8.551,5.69,16.804,11.042,25.706,15.971
	L1136,297.935v-9.009L895.973,160.063c-9.248-4.965-17.949-10.357-26.965-16.102c-15.261-9.723-30.501-20.463-44.072-31.867
	c-15.261-12.822-27.552-26.644-34.446-40.022c-7.451-14.46-11.015-28.407-3.725-40.023c4.094-6.525,11.826-12.315,22.461-17.049
	c13.29-5.916,27.786-9.051,42.12-11.238c11.893-1.814,23.917-2.682,35.94-3.145c5.264-0.203,10.823-0.456,16.707-0.529H280.082
	L280.082,0.089z M393.52,7.068c14.994,1.71,29.922,3.87,44.657,7.051c1.515,0.327,3.028,0.665,4.541,1.014h5.279
	c-3.089-0.717-6.196-1.387-9.315-2.012c-12.929-2.592-26.025-4.512-39.172-6.053H393.52L393.52,7.068z M464.412,21.045
	c8.1,2.58,16.035,5.573,23.669,9.062h4.725c-7.495-3.478-15.295-6.476-23.309-9.062H464.412L464.412,21.045z M501.696,37.067
	c7.63,4.359,14.828,9.329,21.436,15h4.386c-6.605-5.66-13.742-10.631-21.293-15H501.696L501.696,37.067z M532.582,61.114
	c5.824,6.236,11.008,13.188,15.402,20.94h5.015c-4.683-7.743-10.039-14.695-15.96-20.94H532.582L532.582,61.114z M554.668,96.041
	c0.209,0.525,0.419,1.05,0.621,1.582c3.387,8.903,5.783,18.42,7.164,28.519h7.214c-1.848-9.893-4.71-19.313-8.52-28.191
	c-0.275-0.642-0.558-1.276-0.841-1.909H554.668L554.668,96.041z M563.852,148.069l-0.003,0.543l-1.562,54.271h11.426l-1.648-54.261
	l-0.019-0.553H563.852L563.852,148.069z M558.227,347.032l2.82-100.104h13.906l2.82,100.104H558.227L558.227,347.032z M552,568.088
	l3.436-121.933h25.13L584,568.088H552L552,568.088z"/>
</svg>
