<?xml version="1.0" encoding="utf-8"?>
<!-- Generator: Adobe Illustrator 14.0.0, SVG Export Plug-In . SVG Version: 6.00 Build 43363)  -->
<!DOCTYPE svg PUBLIC "-//W3C//DTD SVG 1.1//EN" "http://www.w3.org/Graphics/SVG/1.1/DTD/svg11.dtd">
<svg version="1.1" id="Vrstva_1" xmlns="http://www.w3.org/2000/svg" xmlns:xlink="http://www.w3.org/1999/xlink" x="0px" y="0px"
	 width="1136px" height="568px" viewBox="0 0 1136 568" enable-background="new 0 0 1136 568" xml:space="preserve">
<path fill="#0080FF" d="M1136,323.679L868.723,163.565c-17.696-10.602-34.447-21.91-50.115-35.477
	c-11.759-10.182-22.328-20.583-31.159-32c-14.146-18.29-19.878-41.044-10.857-58.876c8.165-16.145,25.804-23.611,42.528-29.936
	c-24.671,4.072-49.697,12.219-68.732,28.996c-18.285,16.115-28.918,38.493-22.661,68.243c4.468,21.238,16.312,42.747,31.315,57.641
	L1136,536.33V323.679L1136,323.679z"/>
<g>
	<polygon opacity="0.1" fill-rule="evenodd" clip-rule="evenodd" points="793.697,166.847 795.815,172.955 806.226,172.955 
		1092.406,408.086 1136,408.086 1136,400.142 1092.877,400.142 1092.877,400.13 805.63,166.847 793.697,166.847 	"/>
	<path fill-rule="evenodd" clip-rule="evenodd" fill="#265385" d="M844.733,154.251v12.182l-17.383-12.182H844.733L844.733,154.251z
		 M1094.182,379.724l0.001,0.002h40.852H1136v20.416h-43.123v-0.012L805.63,166.847h-14.664l-8.942-30.676v-7.344l0.007-5.421
		l8.949,30.845l14.286,0.008l287.586,225.464H1094.182L1094.182,379.724z"/>
	<polygon fill-rule="evenodd" clip-rule="evenodd" fill="#F5F8FF" points="782.03,123.404 790.979,154.251 805.266,154.26 
		1092.852,379.724 1136,379.726 1136,370.55 827.351,154.251 844.734,154.251 782.03,123.404 	"/>
</g>
</svg>
