<?xml version="1.0" encoding="utf-8"?>
<!-- Generator: Adobe Illustrator 14.0.0, SVG Export Plug-In . SVG Version: 6.00 Build 43363)  -->
<!DOCTYPE svg PUBLIC "-//W3C//DTD SVG 1.1//EN" "http://www.w3.org/Graphics/SVG/1.1/DTD/svg11.dtd">
<svg version="1.1" id="Vrstva_1" xmlns="http://www.w3.org/2000/svg" xmlns:xlink="http://www.w3.org/1999/xlink" x="0px" y="0px"
	 width="1136px" height="568px" viewBox="0 0 1136 568" enable-background="new 0 0 1136 568" xml:space="preserve">
<polygon fill="#0080FF" points="451.997,0 160,568 472,568.001 504.02,189.294 475.996,0.001 451.997,0 "/>
<g>
	<path opacity="0.1" fill-rule="evenodd" clip-rule="evenodd" d="M465.864,166.566l3.462,6.323h-16.234l-61.313,235.108h-50.4
		l3.126-7.999h44.875l62.616-233.432H465.864L465.864,166.566z M425.352,172.889h-10.005l7.602-6.323h5.072l2.745-6.502
		L425.352,172.889L425.352,172.889z"/>
	<path fill-rule="evenodd" clip-rule="evenodd" fill="#265385" d="M337.997,379.599h0.088l-0.017,0.039h51.326l62.542-225.474h0.059
		h17.331v12.402h-17.331L389.38,399.998h-51.383V379.599L337.997,379.599z M428.021,166.566h-12.662v-12.402h17.897L428.021,166.566
		L428.021,166.566z"/>
	<polygon fill-rule="evenodd" clip-rule="evenodd" fill="#F5F8FF" points="452.434,123.316 469.327,154.164 451.937,154.164 
		389.395,379.638 338.069,379.638 433.256,154.164 415.347,154.164 452.434,123.316 	"/>
</g>
</svg>
