<?xml version="1.0" encoding="utf-8"?>
<!-- Generator: Adobe Illustrator 14.0.0, SVG Export Plug-In . SVG Version: 6.00 Build 43363)  -->
<!DOCTYPE svg PUBLIC "-//W3C//DTD SVG 1.1//EN" "http://www.w3.org/Graphics/SVG/1.1/DTD/svg11.dtd">
<svg version="1.1" id="Vrstva_1" xmlns="http://www.w3.org/2000/svg" xmlns:xlink="http://www.w3.org/1999/xlink" x="0px" y="0px"
	 width="1136px" height="568px" viewBox="0 0 1136 568" enable-background="new 0 0 1136 568" xml:space="preserve">
<path fill="#373941" d="M911.999,160.089L1136,275.483v292.605H0l552-568h32l111.433,114.663
	c-4.772-60.554,52.725-96.43,104.695-107.431C834.67,0.009,869.204,0.074,888,0.069c3.923,0,12.273-0.168,16,0.02
	c-2.67,0.086-9.873,0.451-12.533,0.57c-21.681,0.976-42.898,3.122-59.912,7.642c-17.875,4.748-44.826,14.602-43.232,37.503
	c1.542,22.121,23.014,43.984,38.727,58.476C852.077,127.364,881.48,143.995,911.999,160.089L911.999,160.089z"/>
<path fill-rule="evenodd" clip-rule="evenodd" fill="#FFFFFF" d="M553.996,0.089L80,568.089H48L553.996,0.089L553.996,0.089z
	 M569.464,52.067h-2.928l0.423-15h2.083L569.464,52.067L569.464,52.067z M552,568.088l3.435-121.933h25.131L584,568.088H552
	L552,568.088z M558.228,347.032l2.819-100.104h13.906l2.82,100.104H558.228L558.228,347.032z M562.288,202.883l1.543-54.814h8.337
	l1.545,54.814H562.288L562.288,202.883z M564.449,126.141l0.849-30.1h5.405l0.848,30.1H564.449L564.449,126.141z M565.691,82.055
	l0.59-20.94h3.438l0.59,20.94H565.691L565.691,82.055z M568,0.088l0.086,3.062h-0.172L568,0.088L568,0.088z M568.197,7.068
	l0.227,8.065h-0.848l0.227-8.065H568.197L568.197,7.068z M568.59,21.045l0.256,9.062h-1.691l0.256-9.062H568.59L568.59,21.045z
	 M903.981,0.089c-8.644-0.065-17.496,0.037-26.437,0.269c-13.648,0.354-26.438,0.777-41.311,2.069
	c-11.427,0.993-23.869,2.236-37.644,6.17c-21.843,6.239-40.691,14.345-53.922,23.446c-17.757,12.214-27.687,26.223-33.281,39.917
	c-5.956,14.578-6.936,28.802-5.104,40.129c1.833,11.329,5.338,22.151,10.16,31.957c2.991,6.082,6.39,12.147,10.02,18.176
	L581.995,0.089l160.256,192h12.805c-18.285-23.922-37.636-54.027-42.459-79.994c-2.091-11.256-2.458-25.427,2.476-40.061
	c4.578-13.58,13.658-27.56,31.769-39.979c12.243-8.396,29.976-16.08,50.669-22.445c14.495-4.458,27.073-5.772,38.825-6.863
	c12.513-1.161,24.578-1.695,36.399-2.027c1.569-0.044,3.134-0.085,4.695-0.123C886.373,0.379,895.194,0.196,903.981,0.089
	L903.981,0.089z M903.993,0.089c-6.185-0.046-11.821,0.163-17.007,0.348c-11.851,0.425-23.719,1.247-35.457,2.997
	c-14.146,2.11-28.928,5.222-42.24,10.554c-11.72,4.694-20.034,10.933-24.405,18.079c-7.231,11.823-4.902,26.129,1.563,40.033
	c6.977,15.001,19.987,29.542,32.171,39.99c13.288,11.396,27.932,22.213,42.669,32.021c8.551,5.69,16.804,11.042,25.706,15.971
	L1136,297.935v-9.009L895.973,160.063c-9.248-4.965-17.949-10.357-26.965-16.102c-15.261-9.723-30.501-20.463-44.072-31.867
	c-15.261-12.822-27.552-26.644-34.446-40.022c-7.451-14.46-11.015-28.407-3.725-40.023c4.094-6.525,11.826-12.315,22.461-17.049
	c13.29-5.916,27.786-9.051,42.12-11.238c11.893-1.814,23.917-2.682,35.94-3.145C892.55,0.415,898.109,0.162,903.993,0.089
	L903.993,0.089z"/>
</svg>
