<?xml version="1.0" encoding="utf-8"?>
<!-- Generator: Adobe Illustrator 14.0.0, SVG Export Plug-In . SVG Version: 6.00 Build 43363)  -->
<!DOCTYPE svg PUBLIC "-//W3C//DTD SVG 1.1//EN" "http://www.w3.org/Graphics/SVG/1.1/DTD/svg11.dtd">
<svg version="1.1" id="Vrstva_1" xmlns="http://www.w3.org/2000/svg" xmlns:xlink="http://www.w3.org/1999/xlink" x="0px" y="0px"
	 width="1136px" height="568px" viewBox="0 0 1136 568" enable-background="new 0 0 1136 568" xml:space="preserve">
<path fill="#0080FF" d="M367.997,2.636c12.012-0.319,24.288,0.581,36.291,1.313c29.301,1.788,58.011,4.606,81.702,7.982
	c14.878,2.12,23.521,4.542,36.325,7.47c14.167,3.239,28.28,7.44,39.772,12.688c9.943,4.541,19.416,9.951,28.298,16
	c7.356,5.01,14.9,10.384,21.565,16c11.733,9.887,22.39,20.636,32.383,32.009c13.84,15.752,26.408,32.701,38.803,50.21
	c3.236,4.571,5.254,9.233,8.563,13.979L976,568.088l-312,0.001l-67.52-407.974c-0.898-5.426-2.216-8.794-3.292-13.934
	c-3.868-18.475-9.648-35.2-17.7-50.127c-6.355-11.784-14.128-22.447-23.492-31.965c-12.633-12.839-28.785-23.511-46.563-32.274
	c-16.871-8.315-41.513-14.95-65.436-19.899c-11.777-2.436-23.131-4.143-35.938-5.637C392.067,4.88,379.943,4.256,367.997,2.636
	L367.997,2.636z M367.997,5.9c11.569,2.538,22.77,4.75,33.995,8.492c15.808,5.271,25.672,10.907,36.471,17.674
	c15.247,9.554,23.432,20.42,28.91,32.206c4.637,9.976,7.915,20.611,5.916,31.668c-3.152,17.433-11.029,34.615-20.279,50.216
	c-2.832,4.775-5.411,9.404-8.506,13.845L160,568.088l312,0.001l69.223-407.917c0.732-4.316,1.482-8.956,2.125-13.902
	c1.958-15.079,1.588-32.667-3.656-50.268c-3.229-10.84-7.795-21.687-16.485-31.956c-9.903-11.702-19.335-22.656-39.647-31.997
	c-17.712-8.145-34.796-15.066-64.055-20.188c-4.424-0.774-10.062-1.561-16.085-2.305C390.76,7.991,376.395,6.608,367.997,5.9
	L367.997,5.9z"/>
<g>
	<path fill-rule="evenodd" clip-rule="evenodd" fill="#265385" d="M463.99,166.654h11.512l6.408-12.402H464h-0.01V166.654
		L463.99,166.654z M401.738,379.726h-36.315v20.363h51.326l83.455-233.435h17.788v-12.402h-0.012h-17.39l-83.841,225.474H401.738
		L401.738,379.726z"/>
	<polygon fill-rule="evenodd" clip-rule="evenodd" fill="#F5F8FF" points="504.001,123.404 517.98,154.251 500.59,154.251 
		416.749,379.726 365.423,379.726 481.91,154.251 464,154.251 504.001,123.404 	"/>
	<path opacity="0.1" fill-rule="evenodd" clip-rule="evenodd" d="M516.146,166.654l4.362,6.301h-17.956l-84.095,235.131h-50.759
		l3.971-7.997h45.081l83.455-233.435H516.146L516.146,166.654z M472.247,172.955h-5.719l7.457-6.301h1.517l1.176-2.275l0-0.001
		L472.247,172.955L472.247,172.955z"/>
	<path fill-rule="evenodd" clip-rule="evenodd" fill="#265385" d="M671.83,166.654h-11.513l-6.408-12.402h17.91h0.011V166.654
		L671.83,166.654z M734.082,379.726h36.314v20.363H719.07l-83.455-233.435h-17.788v-12.402h0.012h17.391l83.841,225.474H734.082
		L734.082,379.726z"/>
	<polygon fill-rule="evenodd" clip-rule="evenodd" fill="#F5F8FF" points="631.818,123.404 617.839,154.251 635.229,154.251 
		719.07,379.726 770.396,379.726 653.909,154.251 671.819,154.251 631.818,123.404 	"/>
	<path opacity="0.1" fill-rule="evenodd" clip-rule="evenodd" d="M619.674,166.654l-4.362,6.301h17.956l84.095,235.131h50.759
		l-3.97-7.997H719.07l-83.455-233.435H619.674L619.674,166.654z M663.572,172.955h5.719l-7.457-6.301h-1.517l-1.176-2.275
		l-0.001-0.001L663.572,172.955L663.572,172.955z"/>
</g>
</svg>
