<?xml version="1.0" encoding="utf-8"?>
<!-- Generator: Adobe Illustrator 14.0.0, SVG Export Plug-In . SVG Version: 6.00 Build 43363)  -->
<!DOCTYPE svg PUBLIC "-//W3C//DTD SVG 1.1//EN" "http://www.w3.org/Graphics/SVG/1.1/DTD/svg11.dtd">
<svg version="1.1" id="Vrstva_1" xmlns="http://www.w3.org/2000/svg" xmlns:xlink="http://www.w3.org/1999/xlink" x="0px" y="0px"
	 width="1136px" height="568px" viewBox="0 0 1136 568" enable-background="new 0 0 1136 568" xml:space="preserve">
<polygon fill="#0080FF" points="683.994,0 975.992,568 663.993,568.001 631.973,189.294 659.995,0 683.994,0 "/>
<g>
	<path opacity="0.1" fill-rule="evenodd" clip-rule="evenodd" d="M670.128,166.566l-3.462,6.323h16.233l61.313,235.108h50.4
		l-3.126-7.999h-44.875l-62.615-233.432H670.128L670.128,166.566z M710.641,172.889h10.006l-7.603-6.323h-5.072l-2.745-6.502
		L710.641,172.889L710.641,172.889z"/>
	<path fill-rule="evenodd" clip-rule="evenodd" fill="#265385" d="M797.995,379.599h-0.089l0.018,0.039h-51.326l-62.542-225.474
		h-0.059h-17.331v12.402h17.331l62.615,233.432h51.383V379.599L797.995,379.599z M707.972,166.566h12.662v-12.402h-17.897
		L707.972,166.566L707.972,166.566z"/>
	<polygon fill-rule="evenodd" clip-rule="evenodd" fill="#F5F8FF" points="683.559,123.316 666.666,154.164 684.056,154.164 
		746.598,379.638 797.924,379.638 702.736,154.164 720.646,154.164 683.559,123.316 	"/>
</g>
</svg>
