<?xml version="1.0" encoding="utf-8"?>
<!-- Generator: Adobe Illustrator 14.0.0, SVG Export Plug-In . SVG Version: 6.00 Build 43363)  -->
<!DOCTYPE svg PUBLIC "-//W3C//DTD SVG 1.1//EN" "http://www.w3.org/Graphics/SVG/1.1/DTD/svg11.dtd">
<svg version="1.1" id="Vrstva_1" xmlns="http://www.w3.org/2000/svg" xmlns:xlink="http://www.w3.org/1999/xlink" x="0px" y="0px"
	 width="1136px" height="568px" viewBox="0 0 1136 568" enable-background="new 0 0 1136 568" xml:space="preserve">
<polygon fill="#373941" points="0,568.001 447.997,0.001 479.996,0.001 567.996,160.001 655.995,0.001 687.994,0.001 
	1135.991,567.997 0,568.001 "/>
<path fill-rule="evenodd" clip-rule="evenodd" fill="#FFFFFF" d="M657.995,0.001l-84.662,189.324l0.38,13.47h-11.426l0.379-13.45
	L477.996,0.001l90,178.515L657.995,0.001L657.995,0.001z M574.953,246.841l2.82,100.104h-19.547l2.82-100.104H574.953
	L574.953,246.841z M580.565,446.067L584,568h-32l3.436-121.933H580.565L580.565,446.067z M685.994,0.001l369.997,568h32
	L685.994,0.001L685.994,0.001z M449.997,0.001L80,568.001H48L449.997,0.001L449.997,0.001z"/>
</svg>
