<?xml version="1.0" encoding="utf-8"?>
<!-- Generator: Adobe Illustrator 14.0.0, SVG Export Plug-In . SVG Version: 6.00 Build 43363)  -->
<!DOCTYPE svg PUBLIC "-//W3C//DTD SVG 1.1//EN" "http://www.w3.org/Graphics/SVG/1.1/DTD/svg11.dtd">
<svg version="1.1" id="Vrstva_1" xmlns="http://www.w3.org/2000/svg" xmlns:xlink="http://www.w3.org/1999/xlink" x="0px" y="0px"
	 width="1136px" height="568px" viewBox="0 0 1136 568" enable-background="new 0 0 1136 568" xml:space="preserve">
<polygon fill="#373941" points="655.998,-0.016 1136.002,473.322 1136.002,567.98 0.002,567.984 552.002,-0.016 575.997,-0.016 
	675.571,108.75 647.997,-0.016 655.998,-0.016 "/>
<path fill-rule="evenodd" clip-rule="evenodd" fill="#FFFFFF" d="M553.998-0.016l-489.996,568h-16L553.998-0.016L553.998-0.016z
	 M567.997-0.016l0.732,3.061h0.087L567.997-0.016L567.997-0.016z M569.668,6.964l1.932,8.065h0.424l-2.158-8.065H569.668
	L569.668,6.964z M573.015,20.941l2.17,9.062h0.845l-2.424-9.062H573.015L573.015,20.941z M576.852,36.963l3.591,15h1.464l-4.014-15
	H576.852L576.852,36.963z M582.608,61.01l5.015,20.94h2.309l-5.604-20.94H582.608L582.608,61.01z M590.971,95.936l7.207,30.1h3.551
	l-8.055-30.1H590.971L590.971,95.936z M603.429,147.964l13.124,54.814h5.713l-14.669-54.814H603.429L603.429,147.964z
	 M627.1,246.824l23.968,100.104h9.773l-26.788-100.104H627.1L627.1,246.824z M674.801,446.051l29.195,121.934h16l-32.63-121.934
	H674.801L674.801,446.051z M560.673-0.016l-0.909,3.061h-0.086L560.673-0.016L560.673-0.016z M558.601,6.964l-2.396,8.065h-0.423
	l2.622-8.065H558.601L558.601,6.964z M554.45,20.941l-2.691,9.062h-0.846l2.946-9.062H554.45L554.45,20.941z M549.691,36.963
	l-4.454,15h-1.464l4.877-15H549.691L549.691,36.963z M542.551,61.01l-6.219,20.94h-2.309l6.809-20.94H542.551L542.551,61.01z
	 M532.179,95.936l-8.938,30.1h-3.551l9.787-30.1H532.179L532.179,95.936z M516.729,147.964l-16.277,54.814h-5.712l17.822-54.814
	H516.729L516.729,147.964z M487.371,246.824l-29.727,100.104h-9.773l32.546-100.104H487.371L487.371,246.824z M428.208,446.051
	l-36.209,121.934h-16l39.645-121.934H428.208L428.208,446.051z M653.998-0.016l482.004,515.76v16.884L653.998-0.016L653.998-0.016z
	 M574.002-0.016l129.866,161.06h4.537L649.992-0.016l50.841,151.986L574.002-0.016L574.002-0.016z"/>
</svg>
