<?xml version="1.0" encoding="utf-8"?>
<!-- Generator: Adobe Illustrator 14.0.0, SVG Export Plug-In . SVG Version: 6.00 Build 43363)  -->
<!DOCTYPE svg PUBLIC "-//W3C//DTD SVG 1.1//EN" "http://www.w3.org/Graphics/SVG/1.1/DTD/svg11.dtd">
<svg version="1.1" id="Vrstva_1" xmlns="http://www.w3.org/2000/svg" xmlns:xlink="http://www.w3.org/1999/xlink" x="0px" y="0px"
	 width="1136px" height="568px" viewBox="0 0 1136 568" enable-background="new 0 0 1136 568" xml:space="preserve">
<path fill="#373941" d="M911.999,160.089L1136,275.483v292.605H0l552-568h32l111.434,114.663
	c-4.773-60.554,52.724-96.43,104.694-107.431C834.67,0.009,869.204,0.074,888,0.069c3.923,0,12.273-0.168,16,0.02
	c-2.67,0.086-9.873,0.451-12.533,0.571c-21.68,0.975-42.898,3.122-59.912,7.642c-17.875,4.748-44.826,14.602-43.232,37.503
	c1.542,22.121,23.014,43.984,38.727,58.476C852.077,127.364,881.48,143.995,911.999,160.089L911.999,160.089z"/>
<path fill-rule="evenodd" clip-rule="evenodd" fill="#FFFFFF" d="M903.993,0.089h-0.012l-0.277-0.002l-0.128,0l-0.161-0.001
	c-8.463-0.056-17.125,0.045-25.87,0.272c-13.648,0.354-26.437,0.777-41.311,2.069c-11.427,0.993-23.869,2.236-37.644,6.17
	c-21.843,6.239-40.691,14.345-53.922,23.446c-17.757,12.214-27.687,26.223-33.281,39.917c-5.956,14.578-6.936,28.802-5.104,40.129
	c2.867,17.726,10.505,33.558,19.239,49.087L581.995,0.089l169.254,202.794h11.426l-9.627-10.807
	c-18.282-23.919-35.629-54.019-40.451-79.981c-2.091-11.256-2.458-25.427,2.476-40.061c4.578-13.58,13.658-27.56,31.769-39.979
	c12.243-8.396,29.976-16.08,50.669-22.445c14.495-4.458,27.073-5.772,38.825-6.863c12.513-1.161,24.578-1.695,36.399-2.027
	c1.569-0.044,3.135-0.085,4.695-0.123c4.548-0.111,9.064-0.213,13.561-0.3c-1.364,0.045-2.699,0.094-4.004,0.141
	c-11.851,0.424-23.719,1.246-35.457,2.997c-14.146,2.109-28.928,5.221-42.24,10.554c-11.72,4.694-20.034,10.933-24.405,18.079
	c-7.231,11.823-4.902,26.129,1.563,40.033c6.977,15.001,19.987,29.542,32.171,39.99c13.288,11.396,27.932,22.213,42.669,32.021
	c8.551,5.69,16.804,11.042,25.706,15.971L1136,297.935v-9.009L895.973,160.063c-9.248-4.965-17.949-10.357-26.965-16.102
	c-15.261-9.723-30.501-20.463-44.072-31.867c-15.261-12.822-27.552-26.644-34.446-40.022c-7.451-14.46-11.015-28.407-3.725-40.023
	c4.094-6.525,11.826-12.315,22.461-17.049c13.29-5.916,27.786-9.051,42.12-11.238c11.893-1.814,23.917-2.682,35.94-3.145
	C892.55,0.415,898.109,0.162,903.993,0.089L903.993,0.089z M788.003,246.929l83.53,100.104h19.547l-89.171-100.104H788.003
	L788.003,246.929z M954.246,446.155l101.745,121.934h32L979.376,446.155H954.246L954.246,446.155z M569.464,52.067h-2.928l0.423-15
	h2.083L569.464,52.067L569.464,52.067z M562.287,202.883l1.545-54.814h8.336l1.545,54.814H562.287L562.287,202.883z
	 M564.449,126.141l0.848-30.1h5.406l0.848,30.1H564.449L564.449,126.141z M565.691,82.055l0.59-20.94h3.438l0.59,20.94H565.691
	L565.691,82.055z M568,0.088l0.086,3.062h-0.172L568,0.088L568,0.088z M568.197,7.068l0.227,8.065h-0.848l0.227-8.065H568.197
	L568.197,7.068z M568.59,21.045l0.256,9.062h-1.691l0.256-9.062H568.59L568.59,21.045z M558.227,347.032l2.82-100.104h13.906
	l2.82,100.104H558.227L558.227,347.032z M552,568.088l3.436-121.933h25.13L584,568.088H552L552,568.088z M553.996,0.089L80,568.089
	H48L553.996,0.089L553.996,0.089z"/>
</svg>
