<?xml version="1.0" encoding="utf-8"?>
<!-- Generator: Adobe Illustrator 14.0.0, SVG Export Plug-In . SVG Version: 6.00 Build 43363)  -->
<!DOCTYPE svg PUBLIC "-//W3C//DTD SVG 1.1//EN" "http://www.w3.org/Graphics/SVG/1.1/DTD/svg11.dtd">
<svg version="1.1" id="Vrstva_1" xmlns="http://www.w3.org/2000/svg" xmlns:xlink="http://www.w3.org/1999/xlink" x="0px" y="0px"
	 width="1136px" height="568px" viewBox="0 0 1136 568" enable-background="new 0 0 1136 568" xml:space="preserve">
<path fill="#0080FF" d="M569.996,0h10l75.999,114.76L759.994,568l-207.999,0.001L569.996,0L569.996,0z M565.996,0l-10,0.001
	L151.999,568l207.999,0.001L565.996,0L565.996,0z"/>
<g>
	<path opacity="0.1" fill-rule="evenodd" clip-rule="evenodd" d="M639.133,166.566l6.162,6.291h-15.488l-1.033-6.291H639.133
		L639.133,166.566z M662.973,400.001l1.234,7.997h-51.288l-0.126-7.997H662.973L662.973,400.001z M608.023,172.857h-16.709
		l4.847-6.291h11.741L608.023,172.857L608.023,172.857z"/>
	<path opacity="0.1" fill-rule="evenodd" clip-rule="evenodd" d="M492.672,165.611l2.796,7.246h-17.391L374.804,407.998h-51.288
		l4.622-7.997h42.922l104.214-233.435h17.398V165.611L492.672,165.611z M445.259,172.857h-3.771l6.792-4.98L445.259,172.857
		L445.259,172.857z"/>
	<path fill-rule="evenodd" clip-rule="evenodd" fill="#265385" d="M438.669,154.164v12.402h10.407l7.526-12.402h-17.91H438.669
		L438.669,154.164z M362.499,379.638h-42.717v20.363h51.279l104.214-233.435h17.398v-12.402h-17.39L371.107,379.638H362.499
		L362.499,379.638z"/>
	<path fill-rule="evenodd" clip-rule="evenodd" fill="#265385" d="M590.148,154.164v12.402h17.754l4.455,233.435h51.379v-20.363
		H622.79h-10.38l-4.352-225.474h-0.156H590.148L590.148,154.164z M628.773,166.566h15.379v-12.402h-0.023h-17.39L628.773,166.566
		L628.773,166.566z"/>
	<polygon fill-rule="evenodd" clip-rule="evenodd" fill="#F5F8FF" points="481.475,123.316 492.672,154.164 475.282,154.164 
		371.107,379.638 319.781,379.638 456.602,154.164 438.692,154.164 481.475,123.316 	"/>
	<polygon fill-rule="evenodd" clip-rule="evenodd" fill="#F5F8FF" points="613.618,123.316 644.129,154.164 626.739,154.164 
		663.736,379.638 612.41,379.638 608.059,154.164 590.148,154.164 613.618,123.316 	"/>
</g>
</svg>
