<?xml version="1.0" encoding="utf-8"?>
<!-- Generator: Adobe Illustrator 14.0.0, SVG Export Plug-In . SVG Version: 6.00 Build 43363)  -->
<!DOCTYPE svg PUBLIC "-//W3C//DTD SVG 1.1//EN" "http://www.w3.org/Graphics/SVG/1.1/DTD/svg11.dtd">
<svg version="1.1" id="Vrstva_1" xmlns="http://www.w3.org/2000/svg" xmlns:xlink="http://www.w3.org/1999/xlink" x="0px" y="0px"
	 width="1136px" height="568px" viewBox="0 0 1136 568" enable-background="new 0 0 1136 568" xml:space="preserve">
<polygon fill="#0080FF" points="668.317,0 675.672,0 1135.991,568 927.992,568.001 708.671,116.463 668.317,0 "/>
<g>
	<path opacity="0.1" fill-rule="evenodd" clip-rule="evenodd" d="M798.051,171.047l2.736,1.81h-1.434L798.051,171.047
		L798.051,171.047z M939.45,400.001l5.494,7.997h-51.288L764.717,172.857h-17.91l2.502-10.526v4.235h17.909L896.9,400.001H939.45
		L939.45,400.001z"/>
	<path fill-rule="evenodd" clip-rule="evenodd" fill="#265385" d="M749.309,154.164v12.402h17.909L896.9,400.001h51.278v-20.363
		h-45.625h-5.701L767.219,154.164h-0.001H749.309L749.309,154.164z M794.825,166.566h8.486v-12.402h-0.022h-17.391L794.825,166.566
		L794.825,166.566z"/>
	<polygon fill-rule="evenodd" clip-rule="evenodd" fill="#F5F8FF" points="755.639,123.316 803.289,154.164 785.898,154.164 
		948.179,379.638 896.853,379.638 767.219,154.164 749.309,154.164 755.639,123.316 	"/>
</g>
</svg>
