<?xml version="1.0" encoding="utf-8"?>
<!-- Generator: Adobe Illustrator 14.0.0, SVG Export Plug-In . SVG Version: 6.00 Build 43363)  -->
<!DOCTYPE svg PUBLIC "-//W3C//DTD SVG 1.1//EN" "http://www.w3.org/Graphics/SVG/1.1/DTD/svg11.dtd">
<svg version="1.1" id="Vrstva_1" xmlns="http://www.w3.org/2000/svg" xmlns:xlink="http://www.w3.org/1999/xlink" x="0px" y="0px"
	 width="1136px" height="568px" viewBox="0 0 1136 568" enable-background="new 0 0 1136 568" xml:space="preserve">
<path fill="#0080FF" d="M572.007-0.016h-2.68l190.669,568l231.998,0.001L572.007-0.016L572.007-0.016z M555.998-0.016
	L104.001,567.983l231.998,0.001l222.667-568H555.998L555.998-0.016z M565.337-0.016h-2.681l-130.658,568l231.998,0.001
	L565.337-0.016L565.337-0.016z"/>
<g>
	<path opacity="0.1" fill-rule="evenodd" clip-rule="evenodd" d="M537.214,166.549l-5.487,6.329h16.317l0.472-6.329H537.214
		L537.214,166.549z M533.258,399.98l-0.55,7.874h51.295l-0.544-7.874H533.258L533.258,399.98z M569.436,172.878h16.271l-5.588-6.329
		h-11.127L569.436,172.878L569.436,172.878z"/>
	<path fill-rule="evenodd" clip-rule="evenodd" fill="#265385" d="M583.954,379.621v20.359h-51.313v-20.359H583.954L583.954,379.621
		z M531.529,166.549l0.003-12.402h17.908l-0.924,12.402H531.529L531.529,166.549z M568.12,154.147h17.39h0.001v12.402h-16.519
		L568.12,154.147L568.12,154.147z"/>
	<path opacity="0.1" fill-rule="evenodd" clip-rule="evenodd" d="M479.233,166.549l1.949,6.329h-17.39L348.834,407.854H297.54
		l4.945-7.874h43.855l117.636-233.431H479.233L479.233,166.549z M432.836,172.878h-5.635l9.126-6.329h0.728L432.836,172.878
		L432.836,172.878z"/>
	<path fill-rule="evenodd" clip-rule="evenodd" fill="#265385" d="M346.34,399.98h-51.313v-20.359h51.326l117.649-225.474h17.39
		v12.402h-17.417L346.34,399.98L346.34,399.98z M437.055,166.549h-9.644l0.002-12.402h17.909L437.055,166.549L437.055,166.549z"/>
	<polygon fill-rule="evenodd" clip-rule="evenodd" fill="#F5F8FF" points="472.039,123.3 481.393,154.147 464.002,154.147 
		346.353,379.621 295.027,379.621 445.322,154.147 427.412,154.147 472.039,123.3 	"/>
	<polygon fill-rule="evenodd" clip-rule="evenodd" fill="#F5F8FF" points="557.894,123.3 585.51,154.147 568.12,154.147 
		583.961,379.621 532.635,379.621 549.44,154.147 531.53,154.147 557.894,123.3 	"/>
	<path opacity="0.1" fill-rule="evenodd" clip-rule="evenodd" d="M636.307,166.549l-1.949,6.329h17.391l114.957,234.977H818
		l-4.945-7.874h-43.855L651.564,166.549H636.307L636.307,166.549z M682.703,172.878h5.635l-9.126-6.329h-0.728L682.703,172.878
		L682.703,172.878z"/>
	<path fill-rule="evenodd" clip-rule="evenodd" fill="#265385" d="M769.199,399.98h51.313v-20.359h-51.326L651.537,154.147h-17.391
		v12.402h17.418L769.199,399.98L769.199,399.98z M678.484,166.549h9.644l-0.002-12.402h-17.909L678.484,166.549L678.484,166.549z"/>
	<polygon fill-rule="evenodd" clip-rule="evenodd" fill="#F5F8FF" points="643.501,123.3 634.146,154.147 651.537,154.147 
		769.187,379.621 820.513,379.621 670.217,154.147 688.128,154.147 643.501,123.3 	"/>
</g>
</svg>
