<?xml version="1.0" encoding="utf-8"?>
<!-- Generator: Adobe Illustrator 14.0.0, SVG Export Plug-In . SVG Version: 6.00 Build 43363)  -->
<!DOCTYPE svg PUBLIC "-//W3C//DTD SVG 1.1//EN" "http://www.w3.org/Graphics/SVG/1.1/DTD/svg11.dtd">
<svg version="1.1" id="Vrstva_1" xmlns="http://www.w3.org/2000/svg" xmlns:xlink="http://www.w3.org/1999/xlink" x="0px" y="0px"
	 width="1136px" height="568px" viewBox="0 0 1136 568" enable-background="new 0 0 1136 568" xml:space="preserve">
<polygon fill="#0080FF" points="653.002,-0.016 1127.993,567.979 895.995,567.98 650.992,-0.016 653.002,-0.016 "/>
<g>
	<path opacity="0.1" fill-rule="evenodd" clip-rule="evenodd" d="M736.723,165.569l-1.999,7.311h17.391L882.231,407.98h51.326
		l-5.538-8h-43.276l-130.74-233.431h-17.281L736.723,165.569L736.723,165.569z M786.356,172.88h2.348l-4.606-3.119L786.356,172.88
		L786.356,172.88z"/>
	<path fill-rule="evenodd" clip-rule="evenodd" fill="#265385" d="M736.725,154.147l-0.003,12.402h17.281l130.74,233.431h51.313
		v-20.359H884.73L754.112,154.147h-0.109H736.725L736.725,154.147z M781.772,166.549h8.931l-0.003-12.402h-17.908L781.772,166.549
		L781.772,166.549z"/>
	<polygon fill-rule="evenodd" clip-rule="evenodd" fill="#F5F8FF" points="744.302,123.3 736.722,154.147 754.112,154.147 
		884.73,379.621 936.057,379.621 772.792,154.147 790.702,154.147 744.302,123.3 	"/>
</g>
</svg>
