<?xml version="1.0" encoding="utf-8"?>
<!-- Generator: Adobe Illustrator 14.0.0, SVG Export Plug-In . SVG Version: 6.00 Build 43363)  -->
<!DOCTYPE svg PUBLIC "-//W3C//DTD SVG 1.1//EN" "http://www.w3.org/Graphics/SVG/1.1/DTD/svg11.dtd">
<svg version="1.1" id="Vrstva_1" xmlns="http://www.w3.org/2000/svg" xmlns:xlink="http://www.w3.org/1999/xlink" x="0px" y="0px"
	 width="1136px" height="568px" viewBox="0 0 1136 568" enable-background="new 0 0 1136 568" xml:space="preserve">
<path fill="#0080FF" d="M839.993,5.33c-11.072,3.423-22.165,8.069-32.497,13.369c-6.807,3.492-13.147,7.649-19.471,13.316
	c-6.656,5.966-12.121,12.776-16.178,20.401c-12.564,23.623-7.871,49.306,4.724,71.078c8.341,14.42,20.037,27.125,32.882,36.378
	L1136,395.112v172.885h-8.009l-383.324-400.24c-12.335-12.879-20.688-26.306-25.393-39.798c-8.911-25.56-4.17-51.36,14.958-74.126
	c3.571-4.25,7.42-8.22,11.507-11.885c11.981-10.746,26.198-18.394,40.988-24.552c5.786-2.409,11.689-4.411,17.604-6.149
	C816.287,7.732,827.442,6.683,839.993,5.33L839.993,5.33z"/>
<g>
	<polygon opacity="0.1" fill-rule="evenodd" clip-rule="evenodd" points="756.042,166.566 757.738,172.895 775.129,172.895 
		1025.447,407.871 1076.741,407.871 1067.261,399.997 1024.939,399.997 772.041,166.566 756.042,166.566 	"/>
	<path fill-rule="evenodd" clip-rule="evenodd" fill="#265385" d="M1076.252,379.638v20.359h-51.313L772.041,166.566h-17.382
		l-9.146-30.842l0.003-12.364l9.135,30.804h4.526h12.863h0.001l252.884,225.474H1076.252L1076.252,379.638z M745.517,123.323
		L745.517,123.323L745.517,123.323L745.517,123.323L745.517,123.323z M793.096,154.164h15.536h0.009v12.402h-2.213l-15.706-12.402
		H793.096L793.096,154.164z"/>
	<polygon fill-rule="evenodd" clip-rule="evenodd" fill="#F5F8FF" points="745.504,123.316 754.651,154.164 772.042,154.164 
		1024.926,379.638 1076.252,379.638 790.722,154.164 808.632,154.164 745.504,123.316 	"/>
</g>
</svg>
