<?xml version="1.0" encoding="utf-8"?>
<!-- Generator: Adobe Illustrator 14.0.0, SVG Export Plug-In . SVG Version: 6.00 Build 43363)  -->
<!DOCTYPE svg PUBLIC "-//W3C//DTD SVG 1.1//EN" "http://www.w3.org/Graphics/SVG/1.1/DTD/svg11.dtd">
<svg version="1.1" id="Vrstva_1" xmlns="http://www.w3.org/2000/svg" xmlns:xlink="http://www.w3.org/1999/xlink" x="0px" y="0px"
	 width="1136px" height="568px" viewBox="0 0 1136 568" enable-background="new 0 0 1136 568" xml:space="preserve">
<path fill="#0080FF" d="M569.996,0.088h10l396.004,568l-312,0.001L569.996,0.088L569.996,0.088z M565.996,0.088l-10,0.001
	L160,568.088l312,0.001L565.996,0.088L565.996,0.088z"/>
<g>
	<path fill-rule="evenodd" clip-rule="evenodd" fill="#265385" d="M463.989,166.654h11.513l6.408-12.402H464h-0.011V166.654
		L463.989,166.654z M401.737,379.726h-36.314v20.363h51.326l83.455-233.435h17.789v-12.402h-0.012h-17.39l-83.841,225.474H401.737
		L401.737,379.726z"/>
	<polygon fill-rule="evenodd" clip-rule="evenodd" fill="#F5F8FF" points="504.001,123.404 517.98,154.251 500.59,154.251 
		416.749,379.726 365.423,379.726 481.91,154.251 464,154.251 504.001,123.404 	"/>
	<path opacity="0.1" fill-rule="evenodd" clip-rule="evenodd" d="M516.146,166.654l4.362,6.301h-17.956l-84.095,235.131h-50.759
		l3.97-7.997h45.081l83.455-233.435H516.146L516.146,166.654z M472.247,172.955h-5.719l7.457-6.301h1.517l1.176-2.275l0-0.001
		L472.247,172.955L472.247,172.955z"/>
	<path fill-rule="evenodd" clip-rule="evenodd" fill="#265385" d="M671.83,166.654h-11.514l-6.407-12.402h17.91h0.011V166.654
		L671.83,166.654z M734.082,379.726h36.314v20.363H719.07l-83.455-233.435h-17.788v-12.402h0.012h17.391l83.841,225.474H734.082
		L734.082,379.726z"/>
	<polygon fill-rule="evenodd" clip-rule="evenodd" fill="#F5F8FF" points="631.818,123.404 617.839,154.251 635.229,154.251 
		719.07,379.726 770.396,379.726 653.909,154.251 671.819,154.251 631.818,123.404 	"/>
	<path opacity="0.1" fill-rule="evenodd" clip-rule="evenodd" d="M619.674,166.654l-4.362,6.301h17.956l84.095,235.131h50.759
		l-3.97-7.997H719.07l-83.455-233.435H619.674L619.674,166.654z M663.572,172.955h5.719l-7.457-6.301h-1.518l-1.175-2.275
		l-0.001-0.001L663.572,172.955L663.572,172.955z"/>
</g>
</svg>
