<?xml version="1.0" encoding="utf-8"?>
<!-- Generator: Adobe Illustrator 14.0.0, SVG Export Plug-In . SVG Version: 6.00 Build 43363)  -->
<!DOCTYPE svg PUBLIC "-//W3C//DTD SVG 1.1//EN" "http://www.w3.org/Graphics/SVG/1.1/DTD/svg11.dtd">
<svg version="1.1" id="Vrstva_1" xmlns="http://www.w3.org/2000/svg" xmlns:xlink="http://www.w3.org/1999/xlink" x="0px" y="0px"
	 width="1136px" height="568px" viewBox="0 0 1136 568" enable-background="new 0 0 1136 568" xml:space="preserve">
<polygon fill="#373941" points="720.93,568.001 0,568.001 551.996,0.001 583.995,0.001 666.383,84.773 663.995,0.001 679.995,0.001 
	1136,409.829 1136,567.997 720.93,567.997 720.93,568.001 "/>
<path fill-rule="evenodd" clip-rule="evenodd" fill="#FFFFFF" d="M796.477,446.067l43.517,121.934h32l-50.37-121.934H796.477
	L796.477,446.067z M677.833,0.001L1136,469.613v-25.638L677.833,0.001L677.833,0.001z M567.996,0.001l-0.518,3.061h-0.172
	L567.996,0.001L567.996,0.001z M566.816,6.98l-1.363,8.065h-0.848l1.817-8.065H566.816L566.816,6.98z M564.454,20.958l-1.532,9.062
	h-1.69l2.042-9.062H564.454L564.454,20.958z M561.746,36.979l-2.535,15h-2.929l3.38-15H561.746L561.746,36.979z M557.682,61.026
	l-3.539,20.94h-4.618l4.719-20.94H557.682L557.682,61.026z M551.779,95.953l-5.087,30.1h-7.102l6.783-30.1H551.779L551.779,95.953z
	 M542.985,147.981l-9.264,54.814h-11.425l12.352-54.814H542.985L542.985,147.981z M526.277,246.841l-16.919,100.104h-19.546
	l22.558-100.104H526.277L526.277,246.841z M492.605,446.067l-20.608,121.934h-32l27.478-121.934H492.605L492.605,446.067z
	 M553.996,0.001L80,568.001H48L553.996,0.001L553.996,0.001z M690.091,147.981l19.563,54.814h11.475l-22.644-54.814H690.091
	L690.091,147.981z M666.156,0.001l11.564,107.423L581.995,0.001l96.571,115.689l3.698,10.362h7.161l-4.289-10.384L666.156,0.001
	L666.156,0.001z M725.373,246.841L761.1,346.944h19.576l-41.352-100.104H725.373L725.373,246.841z"/>
</svg>
