<?xml version="1.0" encoding="utf-8"?>
<!-- Generator: Adobe Illustrator 14.0.0, SVG Export Plug-In . SVG Version: 6.00 Build 43363)  -->
<!DOCTYPE svg PUBLIC "-//W3C//DTD SVG 1.1//EN" "http://www.w3.org/Graphics/SVG/1.1/DTD/svg11.dtd">
<svg version="1.1" id="Vrstva_1" xmlns="http://www.w3.org/2000/svg" xmlns:xlink="http://www.w3.org/1999/xlink" x="0px" y="0px"
	 width="1136px" height="568px" viewBox="0 0 1136 568" enable-background="new 0 0 1136 568" xml:space="preserve">
<path fill="#373941" d="M1136,350.354L842.136,160c-20.351-13.183-43.668-34.819-55.262-58.92
	c-8.34-17.336-9.35-35.965-0.219-53.333c1.12-2.132,2.353-4.186,3.681-6.156c2.361-3.501,4.858-6.746,7.82-9.735
	c11.871-11.979,28.227-19.889,44.308-24.037c30.08-7.759,64.509-7.799,86.277-7.816h-0.495h-0.496h-0.496h-28.645l-1.708,0.014
	c-35.604,0.146-71.408,1.621-105.934,11.356c-17.338,4.889-34.231,12.334-48.93,22.598c-15.08,10.53-27.126,23.134-35.223,37.804
	c-6.993,12.671-11.094,26.886-11.053,42.641L584,0.001h-32l-552,568h1136V350.354L1136,350.354z"/>
<path fill-rule="evenodd" clip-rule="evenodd" fill="#FFFFFF" d="M581.995,0.001l165.657,192.001h5.408l-28.234-31.697
	c-8.736-9.807-14.602-22.041-16.844-34.96c-1.619-9.325-1.504-19.498,0.721-30.274c1.809-8.759,5.1-17.812,10.146-26.946
	c1.335-2.415,2.789-4.799,4.357-7.138c3.611-5.387,7.726-10.358,12.226-14.884c4.826-4.852,10.521-9.705,16.211-13.61
	c10.902-7.482,22.851-12.997,34.307-17.126c7.746-2.792,15.463-4.937,23.062-6.74c11.204-2.659,22.124-4.28,32.891-5.511
	c2.845-0.325,5.68-0.624,8.504-0.905c5.752-0.574,10.912-0.938,15.992-1.188c2.615-0.128,4.945-0.232,7.493-0.329
	c2.415-0.09,4.832-0.167,7.247-0.249c5.534-0.189,12.106-0.256,15.137-0.256c0.203,0,0.416-0.001,0.633-0.001
	c2.407-0.002,5.725-0.092,9.294-0.12c2.309-0.019,4.616-0.032,6.926-0.042c-0.728,0.006-1.449,0.014-2.166,0.023
	c-3.566,0.049-7.135,0.114-10.699,0.222c-6.611,0.202-12.795,0.517-18.553,0.959c-10.183,0.784-20.725,1.916-31.032,3.824
	c-15.293,2.83-30.167,7.685-43.537,15.783c-7.711,4.671-14.77,10.36-20.861,17.159c-8.973,10.013-14.724,23.157-15.486,36.624
	c-0.627,11.053,2.17,22.391,7.096,33.232c1.752,3.857,3.628,7.532,5.643,11.046c11.405,19.882,28.389,34.188,47.011,47.151
	L1136,378.675v-7.283L832.34,164.083c-18.228-12.444-34.678-26.843-46.098-45.935c-2.037-3.407-3.934-6.955-5.689-10.656
	c-5.031-10.604-7.994-21.724-7.636-32.687c0.439-13.394,5.783-26.691,14.58-36.774c5.751-6.591,12.48-12.151,19.853-16.745
	c13.522-8.425,28.803-13.246,44.359-16.169c9.977-1.876,20.158-3.043,30.019-3.785c5.786-0.435,11.965-0.784,18.544-0.988
	c2.209-0.068,4.423-0.132,6.633-0.167c1.556-0.025,3.134-0.088,4.732-0.102c2.065-0.018,4.193-0.049,6.33-0.053
	c0.519,0,1.037-0.007,1.557-0.009c1.731-0.005,3.056-0.011,5.313-0.014h-5.038h-0.138h-0.008h-0.132l0,0h-0.067h-0.067h-0.003
	h-0.064h-0.066h-0.006h-0.062h-0.067h-0.008h-0.062h-0.061h-0.061h-0.061h-0.061h-0.061h-0.061h-8.1h-0.141h-0.142
	c-1.361,0.002-2.722,0.006-4.083,0.013c-3.119,0.016-6.283,0.078-9.316,0.089c-0.187,0.001-0.378,0.002-0.563,0.003
	c-3.297,0.013-8.624,0.047-13.645,0.202c-0.531,0.017-1.051,0.031-1.56,0.045c-2.41,0.065-4.821,0.12-7.23,0.205
	c-2.553,0.091-4.972,0.197-7.523,0.331c-4.136,0.218-8.637,0.478-14.677,0.987c-2.96,0.25-5.946,0.531-8.951,0.85
	c-18.368,1.951-37.518,5.353-57.041,12.284c-11.793,4.188-23.892,9.722-35.099,17.228c-5.76,3.857-11.251,8.229-16.214,13.03
	c-4.587,4.437-8.819,9.321-12.601,14.697c-1.648,2.344-3.187,4.736-4.606,7.164c-5.459,9.34-8.965,18.648-10.916,27.679
	c-3.764,17.408-1.916,33.422,3.34,46.886c0.379,0.971,0.774,1.928,1.187,2.87L581.995,0.001L581.995,0.001z M563.328,0.001
	l-0.922,3.061h0.086L563.328,0.001L563.328,0.001z M561.224,6.98l-2.433,8.065h0.424l2.206-8.065H561.224L561.224,6.98z
	 M557.008,20.958l-2.734,9.062h0.846l2.478-9.062H557.008L557.008,20.958z M552.174,36.979l-4.524,15h1.464l4.102-15H552.174
	L552.174,36.979z M544.921,61.026l-6.317,20.94h2.309l5.727-20.94H544.921L544.921,61.026z M534.386,95.953l-9.079,30.1h3.551
	l8.231-30.1H534.386L534.386,95.953z M518.692,147.981l-16.534,54.814h5.712l14.99-54.814H518.692L518.692,147.981z
	 M488.872,246.841l-30.195,100.104h9.773l27.375-100.104H488.872L488.872,246.841z M428.777,446.067l-36.78,121.934h16
	l33.345-121.934H428.777L428.777,446.067z M553.996,0.001L64,568.001H48L553.996,0.001L553.996,0.001z M572.662,0.001l0.837,3.061
	h0.086L572.662,0.001L572.662,0.001z M574.57,6.98l2.206,8.065h0.424l-2.433-8.065H574.57L574.57,6.98z M578.393,20.958l2.479,9.062
	h0.846l-2.733-9.062H578.393L578.393,20.958z M582.774,36.979l4.103,15h1.464l-4.524-15H582.774L582.774,36.979z M589.351,61.026
	l5.727,20.94h2.31l-6.316-20.94H589.351L589.351,61.026z M598.902,95.953l8.23,30.1h3.552l-9.079-30.1H598.902L598.902,95.953z
	 M613.13,147.981l14.99,54.814h5.713l-16.534-54.814H613.13L613.13,147.981z M640.166,246.841l27.375,100.104h9.773l-30.195-100.104
	H640.166L640.166,246.841z M694.648,446.067l33.346,121.934h16l-36.78-121.934H694.648L694.648,446.067z"/>
</svg>
