<?xml version="1.0" encoding="utf-8"?>
<!-- Generator: Adobe Illustrator 14.0.0, SVG Export Plug-In . SVG Version: 6.00 Build 43363)  -->
<!DOCTYPE svg PUBLIC "-//W3C//DTD SVG 1.1//EN" "http://www.w3.org/Graphics/SVG/1.1/DTD/svg11.dtd">
<svg version="1.1" id="Vrstva_1" xmlns="http://www.w3.org/2000/svg" xmlns:xlink="http://www.w3.org/1999/xlink" x="0px" y="0px"
	 width="1136px" height="568px" viewBox="0 0 1136 568" enable-background="new 0 0 1136 568" xml:space="preserve">
<path fill="#0080FF" d="M574.662,0.001L579.994,0l451.998,567.995l-247.998,0.002L574.662,0.001L574.662,0.001z M570.669,0.001
	h-5.341l-117.332,568l239.998,0.001L570.669,0.001L570.669,0.001z M561.328,0.001l-5.333,0.001L103.999,568l247.998,0.001
	L561.328,0.001L561.328,0.001z"/>
<g>
	<path opacity="0.1" fill-rule="evenodd" clip-rule="evenodd" d="M547.052,166.566l-5.487,6.329h16.318l0.472-6.329H547.052
		L547.052,166.566z M543.096,399.997l-0.55,7.874h51.294l-0.543-7.874H543.096L543.096,399.997z M579.274,172.895h16.271
		l-5.588-6.329H578.83L579.274,172.895L579.274,172.895z"/>
	<path fill-rule="evenodd" clip-rule="evenodd" fill="#265385" d="M593.793,379.638v20.359h-51.313v-20.359H593.793L593.793,379.638
		z M541.368,166.566l0.002-12.402h17.908l-0.924,12.402H541.368L541.368,166.566z M577.959,154.164h17.39h0.001v12.402h-16.52
		L577.959,154.164L577.959,154.164z"/>
	<path opacity="0.1" fill-rule="evenodd" clip-rule="evenodd" d="M486.169,166.566l1.949,6.329h-17.39L355.771,407.871h-51.294
		l4.945-7.874h43.855l117.635-233.431H486.169L486.169,166.566z M439.773,172.895h-5.635l9.126-6.329h0.728L439.773,172.895
		L439.773,172.895z"/>
	<path fill-rule="evenodd" clip-rule="evenodd" fill="#265385" d="M353.276,399.997h-51.313v-20.359h51.326l117.649-225.474h17.391
		v12.402h-17.417L353.276,399.997L353.276,399.997z M443.992,166.566h-9.644l0.002-12.402h17.909L443.992,166.566L443.992,166.566z"
		/>
	<polygon fill-rule="evenodd" clip-rule="evenodd" fill="#F5F8FF" points="478.975,123.316 488.329,154.164 470.938,154.164 
		353.29,379.638 301.963,379.638 452.259,154.164 434.349,154.164 478.975,123.316 	"/>
	<polygon fill-rule="evenodd" clip-rule="evenodd" fill="#F5F8FF" points="567.732,123.316 595.349,154.164 577.959,154.164 
		593.799,379.638 542.473,379.638 559.278,154.164 541.368,154.164 567.732,123.316 	"/>
	<path opacity="0.1" fill-rule="evenodd" clip-rule="evenodd" d="M649.947,166.566l-1.949,6.329h17.391l114.957,234.977h51.295
		l-4.945-7.874H782.84L665.205,166.566H649.947L649.947,166.566z M696.344,172.895h5.635l-9.126-6.329h-0.728L696.344,172.895
		L696.344,172.895z"/>
	<path fill-rule="evenodd" clip-rule="evenodd" fill="#265385" d="M782.84,399.997h51.313v-20.359h-51.326L665.178,154.164h-17.391
		v12.402h17.418L782.84,399.997L782.84,399.997z M692.125,166.566h9.645l-0.003-12.402h-17.909L692.125,166.566L692.125,166.566z"/>
	<polygon fill-rule="evenodd" clip-rule="evenodd" fill="#F5F8FF" points="657.142,123.316 647.787,154.164 665.178,154.164 
		782.827,379.638 834.153,379.638 683.857,154.164 701.768,154.164 657.142,123.316 	"/>
</g>
</svg>
