<?xml version="1.0" encoding="utf-8"?>
<!-- Generator: Adobe Illustrator 14.0.0, SVG Export Plug-In . SVG Version: 6.00 Build 43363)  -->
<!DOCTYPE svg PUBLIC "-//W3C//DTD SVG 1.1//EN" "http://www.w3.org/Graphics/SVG/1.1/DTD/svg11.dtd">
<svg version="1.1" id="Vrstva_1" xmlns="http://www.w3.org/2000/svg" xmlns:xlink="http://www.w3.org/1999/xlink" x="0px" y="0px"
	 width="1136px" height="568px" viewBox="0 0 1136 568" enable-background="new 0 0 1136 568" xml:space="preserve">
<path fill="#373941" d="M0,568L552,0h15.996l11.066,83.061c35.533-36.552,87.849-60.093,137.268-70.554
	C775.758-0.073,835.174,0.038,867.511,0.029c1.432,0,3.205-0.012,5.173-0.029h20.713c0.591,0.018,1.141,0.039,1.642,0.064
	c-4.593,0.148-16.986,0.776-21.563,0.981c-37.3,1.678-73.806,5.371-103.077,13.148c-30.752,8.167-77.121,25.121-74.38,64.522
	c0.478,6.843,2.063,13.672,4.5,20.416c8.234,22.783,22.214,43.481,38.97,60.873L1135.991,568H0L0,568z"/>
<path fill-rule="evenodd" clip-rule="evenodd" fill="#FFFFFF" d="M725.769,160l346.224,408h15.999L730.275,160
	c-21.149-24.124-46.815-60.271-37.633-94.513c5.506-20.528,23.367-32.75,41.731-40.894c14.452-6.409,30.331-10.685,45.238-13.87
	c13.999-2.99,28.268-5.101,42.42-6.56c9.169-0.945,18.37-1.603,27.578-2.154c5.559-0.333,11.11-0.821,16.672-1.035
	c9.057-0.349,18.621-0.784,28.744-0.909l-0.03,0h0.01c-6.67-0.05-13.425,0.04-20.222,0.1c-8.354,0.073-16.779,0.144-25.261,0.363
	c-23.481,0.61-45.485,1.338-71.073,3.56C735.577,7.81,683.925,19.62,642.056,42.796c-33.037,18.287-63.202,45.955-72.761,83.635
	c-0.361,1.426-0.693,2.869-0.998,4.326L565.995,0l-2.029,192.109l-0.113,10.685h5.713l-0.189-10.739l-0.693-39.363
	c-0.152-8.637,1.328-17.213,3.482-25.563c9.626-37.313,38.766-64.788,71.485-83.256C684.915,20.581,735.902,8.6,778.623,4.639
	c23.508-2.18,47.269-3.272,70.865-3.84c5.942-0.145,12.171-0.353,18.013-0.436c0.991-0.015,1.864,0.014,2.748,0.038
	c-1.932,0.035-4.453,0.091-7.188,0.171c-3.986,0.117-8.729,0.336-13.549,0.539c-11.7,0.491-23.412,1.067-35.098,1.95h6.912
	c9.397-0.681,18.805-1.202,28.186-1.667c4.902-0.243,9.725-0.498,13.751-0.65c3.982-0.151,7.494-0.254,9.341-0.321l0.062-0.001
	c-2.351,0.078-4.649,0.29-6.898,0.371c-5.415,0.194-10.822,0.63-16.237,0.938c-8.771,0.498-17.542,1.058-26.284,1.88
	c-14.507,1.365-29.194,3.413-43.577,6.392c-14.966,3.101-30.78,7.308-45.273,13.569c-19.124,8.261-37.083,20.307-43.274,41.393
	C681.165,98.872,704.852,135.354,725.769,160L725.769,160z M778.658,6.979c-0.575,0.087-1.15,0.174-1.727,0.263
	c-12.343,1.918-24.691,4.531-36.57,7.802h3.279c11.128-3.037,22.63-5.482,34.124-7.258c1.823-0.282,3.649-0.55,5.478-0.808H778.658
	L778.658,6.979z M721.531,20.957c-7.384,2.625-14.834,5.653-22.042,9.062h2.798c7.306-3.41,14.856-6.438,22.327-9.062H721.531
	L721.531,20.957z M686.443,36.979c-7.4,4.466-14.122,9.492-20.084,15h2.305c5.98-5.509,12.772-10.535,20.31-15H686.443
	L686.443,36.979z M657.621,61.025c-5.573,6.494-10.205,13.507-13.79,20.94h2.573c3.459-7.43,8.001-14.444,13.541-20.94H657.621
	L657.621,61.025z M638.48,95.952c-2.754,9.564-3.889,19.655-3.222,30.1h3.56c-0.939-10.434-0.059-20.527,2.496-30.1H638.48
	L638.48,95.952z M639.232,147.98c1.167,3.933,2.584,7.896,4.268,11.882l18.141,42.932h5.709l-19.39-43.021
	c-1.782-3.954-3.3-7.887-4.569-11.792H639.232L639.232,147.98z M680.251,246.84l42.297,100.104h9.771L687.201,246.84H680.251
	L680.251,246.84z M764.431,446.066L815.993,568.1h16l-55-122.033H764.431L764.431,446.066z M553.996,0L63.999,568H48L553.996,0
	L553.996,0z M559.996,0l-1.293,3.061h-0.086L559.996,0L559.996,0z M557.046,6.979l-3.408,8.065h-0.424l3.635-8.065H557.046
	L557.046,6.979z M551.141,20.957l-3.829,9.062h-0.846l4.084-9.062H551.141L551.141,20.957z M544.371,36.979l-6.337,15h-1.464
	l6.76-15H544.371L544.371,36.979z M534.21,61.025l-8.848,20.94h-2.309l9.438-20.94H534.21L534.21,61.025z M519.453,95.952
	l-12.718,30.1h-3.551l13.566-30.1H519.453L519.453,95.952z M497.469,147.98l-23.161,54.814h-5.712l24.705-54.814H497.469
	L497.469,147.98z M455.698,246.84l-42.297,100.104h-9.773l45.117-100.104H455.698L455.698,246.84z M371.518,446.066L319.998,568h-16
	l54.955-121.934H371.518L371.518,446.066z"/>
</svg>
