<?xml version="1.0" encoding="utf-8"?>
<!-- Generator: Adobe Illustrator 14.0.0, SVG Export Plug-In . SVG Version: 6.00 Build 43363)  -->
<!DOCTYPE svg PUBLIC "-//W3C//DTD SVG 1.1//EN" "http://www.w3.org/Graphics/SVG/1.1/DTD/svg11.dtd">
<svg version="1.1" id="Vrstva_1" xmlns="http://www.w3.org/2000/svg" xmlns:xlink="http://www.w3.org/1999/xlink" x="0px" y="0px"
	 width="1136px" height="568px" viewBox="0 0 1136 568" enable-background="new 0 0 1136 568" xml:space="preserve">
<polygon fill="#373941" points="0,568 447.997,0 479.996,0 567.996,160 655.994,0 687.994,0 1135.991,567.996 0,568 "/>
<path fill-rule="evenodd" clip-rule="evenodd" fill="#FFFFFF" d="M685.994,0l385.997,568h16L685.994,0L685.994,0z M449.997,0L64,568
	H48L449.997,0L449.997,0z M671.995,0l0.388,3.061h-0.086L671.995,0L671.995,0z M672.879,6.979l1.023,8.065h-0.424l-0.796-8.065
	H672.879L672.879,6.979z M674.651,20.957l1.148,9.062h-0.846l-0.894-9.062H674.651L674.651,20.957z M676.682,36.979l1.902,15h-1.465
	l-1.479-15H676.682L676.682,36.979z M679.73,61.025l2.654,20.94h-2.309l-2.064-20.94H679.73L679.73,61.025z M684.157,95.952
	l3.815,30.1h-3.551l-2.967-30.1H684.157L684.157,95.952z M690.752,147.98l6.949,54.814h-5.713l-5.404-54.814H690.752L690.752,147.98
	z M703.284,246.84l12.688,100.104H706.2l-9.869-100.104H703.284L703.284,246.84z M728.538,446.066L743.994,568h-16l-12.021-121.934
	H728.538L728.538,446.066z M463.996,0l-0.302,3.061h-0.086L463.996,0L463.996,0z M463.308,6.979l-0.795,8.065h-0.424l1.022-8.065
	H463.308L463.308,6.979z M461.93,20.957l-0.894,9.062h-0.846l1.149-9.062H461.93L461.93,20.957z M460.351,36.979l-1.479,15h-1.465
	l1.902-15H460.351L460.351,36.979z M457.979,61.025l-2.064,20.94h-2.309l2.654-20.94H457.979L457.979,61.025z M454.536,95.952
	l-2.967,30.1h-3.551l3.815-30.1H454.536L454.536,95.952z M449.407,147.98l-5.404,54.814h-5.712l6.948-54.814H449.407L449.407,147.98
	z M439.66,246.84l-9.87,100.104h-9.772l12.689-100.104H439.66L439.66,246.84z M420.018,446.066L407.997,568h-16l15.456-121.934
	H420.018L420.018,446.066z M570.662,189.333l-5.333,0L477.996,0l90,183.765L657.994,0L570.662,189.333L570.662,189.333z"/>
</svg>
