<?xml version="1.0" encoding="utf-8"?>
<!-- Generator: Adobe Illustrator 14.0.0, SVG Export Plug-In . SVG Version: 6.00 Build 43363)  -->
<!DOCTYPE svg PUBLIC "-//W3C//DTD SVG 1.1//EN" "http://www.w3.org/Graphics/SVG/1.1/DTD/svg11.dtd">
<svg version="1.1" id="Vrstva_1" xmlns="http://www.w3.org/2000/svg" xmlns:xlink="http://www.w3.org/1999/xlink" x="0px" y="0px"
	 width="1136px" height="568px" viewBox="0 0 1136 568" enable-background="new 0 0 1136 568" xml:space="preserve">
<path fill="#0080FF" d="M669.994,0l18.001,567.999L439.997,568L659.995,0L669.994,0L669.994,0z M683.994,0l347.998,567.999
	L783.994,568l-110-568L683.994,0L683.994,0z"/>
<g>
	<path opacity="0.1" fill-rule="evenodd" clip-rule="evenodd" d="M722.183,166.565l-2.945,6.315h17.391l77.752,234.99h51.314
		l-3.698-7.874h-43.522l-80.852-233.431H722.183L722.183,166.565z M765.7,172.88h7.518l-8.105-6.315h-2.591l-0.143-0.283
		L765.7,172.88L765.7,172.88z"/>
	<path fill-rule="evenodd" clip-rule="evenodd" fill="#265385" d="M869.787,379.633h-0.002l0.002,0.004V379.633L869.787,379.633z
		 M762.521,166.565h11.667l-0.003-12.402h-17.908L762.521,166.565L762.521,166.565z M737.598,154.163h-17.391v12.402h17.415
		l80.852,233.431h51.313v-20.359h-51.326L737.598,154.163L737.598,154.163z"/>
	<path opacity="0.1" fill-rule="evenodd" clip-rule="evenodd" d="M656.892,166.565l4.461,6.315h-17.391l-21.358,234.99h-51.314
		l1.809-7.874h44.541l24.032-233.431H656.892L656.892,166.565z M618.234,172.88h-10.862l6.59-6.315h5.858L618.234,172.88
		L618.234,172.88z"/>
	<path fill-rule="evenodd" clip-rule="evenodd" fill="#265385" d="M566.327,379.633L566.327,379.633l-0.001,0.004h51.326
		l23.961-225.474h0.058h17.851l0.002,12.402h-17.853l-24.032,233.431h-51.313v-20.359L566.327,379.633L566.327,379.633z
		 M622.934,154.163h-17.391l0,0v12.402h14.277L622.934,154.163L622.934,154.163z"/>
	<polygon fill-rule="evenodd" clip-rule="evenodd" fill="#F5F8FF" points="734.594,123.315 720.207,154.163 737.598,154.163 
		818.461,379.637 869.787,379.637 756.277,154.163 774.188,154.163 734.594,123.315 	"/>
	<polygon fill-rule="evenodd" clip-rule="evenodd" fill="#F5F8FF" points="638.737,123.315 605.543,154.163 622.934,154.163 
		566.326,379.637 617.652,379.637 641.613,154.163 659.523,154.163 638.737,123.315 	"/>
</g>
</svg>
