<?xml version="1.0" encoding="utf-8"?>
<!-- Generator: Adobe Illustrator 14.0.0, SVG Export Plug-In . SVG Version: 6.00 Build 43363)  -->
<!DOCTYPE svg PUBLIC "-//W3C//DTD SVG 1.1//EN" "http://www.w3.org/Graphics/SVG/1.1/DTD/svg11.dtd">
<svg version="1.1" id="Vrstva_1" xmlns="http://www.w3.org/2000/svg" xmlns:xlink="http://www.w3.org/1999/xlink" x="0px" y="0px"
	 width="1136px" height="568px" viewBox="0 0 1136 568" enable-background="new 0 0 1136 568" xml:space="preserve">
<path fill="#0080FF" d="M465.997,0l-18,567.999L695.994,568L475.996,0L465.997,0L465.997,0z M451.997,0L103.999,567.999L351.997,568
	L461.996,0L451.997,0L451.997,0z"/>
<g>
	<path opacity="0.1" fill-rule="evenodd" clip-rule="evenodd" d="M414.172,166.565l2.945,6.315h-17.391l-77.751,234.99H270.66
		l3.699-7.874h43.522l80.852-233.431H414.172L414.172,166.565z M370.654,172.88h-7.518l8.106-6.315h2.591l0.143-0.283
		L370.654,172.88L370.654,172.88z"/>
	<path fill-rule="evenodd" clip-rule="evenodd" fill="#265385" d="M266.568,379.633h0.002l-0.002,0.004V379.633L266.568,379.633z
		 M373.833,166.565h-11.667l0.003-12.402h17.908L373.833,166.565L373.833,166.565z M398.757,154.163h17.39v12.402h-17.415
		l-80.852,233.431h-51.313v-20.359h51.326L398.757,154.163L398.757,154.163z"/>
	<path opacity="0.1" fill-rule="evenodd" clip-rule="evenodd" d="M479.463,166.565l-4.46,6.315h17.39l21.358,234.99h51.314
		l-1.81-7.874h-44.541l-24.031-233.431H479.463L479.463,166.565z M518.12,172.88h10.862l-6.59-6.315h-5.857L518.12,172.88
		L518.12,172.88z"/>
	<path fill-rule="evenodd" clip-rule="evenodd" fill="#265385" d="M570.027,379.633L570.027,379.633l0.001,0.004h-51.326
		l-23.961-225.474h-0.058h-17.85l-0.002,12.402h17.853l24.031,233.431h51.313v-20.359L570.027,379.633L570.027,379.633z
		 M513.422,154.163h17.39h0.001v12.402h-14.277L513.422,154.163L513.422,154.163z"/>
	<polygon fill-rule="evenodd" clip-rule="evenodd" fill="#F5F8FF" points="401.761,123.315 416.147,154.163 398.757,154.163 
		317.894,379.637 266.568,379.637 380.077,154.163 362.167,154.163 401.761,123.315 	"/>
	<polygon fill-rule="evenodd" clip-rule="evenodd" fill="#F5F8FF" points="497.617,123.315 530.812,154.163 513.422,154.163 
		570.028,379.637 518.702,379.637 494.741,154.163 476.831,154.163 497.617,123.315 	"/>
</g>
</svg>
