<?xml version="1.0" encoding="utf-8"?>
<!-- Generator: Adobe Illustrator 14.0.0, SVG Export Plug-In . SVG Version: 6.00 Build 43363)  -->
<!DOCTYPE svg PUBLIC "-//W3C//DTD SVG 1.1//EN" "http://www.w3.org/Graphics/SVG/1.1/DTD/svg11.dtd">
<svg version="1.1" id="Vrstva_1" xmlns="http://www.w3.org/2000/svg" xmlns:xlink="http://www.w3.org/1999/xlink" x="0px" y="0px"
	 width="1136px" height="568px" viewBox="0 0 1136 568" enable-background="new 0 0 1136 568" xml:space="preserve">
<polygon fill="#0080FF" points="653.008,0 1136.022,532.717 1136.022,567.999 992.015,567.996 651.018,0 653.008,0 "/>
<g>
	<polygon opacity="0.1" fill-rule="evenodd" clip-rule="evenodd" points="756.775,142.022 760.263,144.588 763.105,167.298 
		775.54,167.298 935.262,400 962.587,400 968.79,407.996 932.486,407.996 773.187,172.87 760.519,172.87 756.775,142.022 	"/>
	<path fill-rule="evenodd" clip-rule="evenodd" fill="#265385" d="M759.273,123.315v0.022l0.283,0.208L759.273,123.315
		L759.273,123.315z M759.272,123.549l-0.029,12.902l3.862,30.847h12.435L935.262,400h36.291v-20.363h-2.968H935.25L775.411,154.163
		h-2.746h-9.555L759.272,123.549L759.272,123.549z M799.28,167.298h2.011v-13.136H789.73h-1.107L799.28,167.298L799.28,167.298z"/>
	<polygon fill-rule="evenodd" clip-rule="evenodd" fill="#F5F8FF" points="759.243,123.315 763.11,154.163 775.411,154.163 
		935.25,379.637 971.553,379.637 788.623,154.163 801.291,154.163 759.243,123.315 	"/>
</g>
</svg>
