<?xml version="1.0" encoding="utf-8"?>
<!-- Generator: Adobe Illustrator 14.0.0, SVG Export Plug-In . SVG Version: 6.00 Build 43363)  -->
<!DOCTYPE svg PUBLIC "-//W3C//DTD SVG 1.1//EN" "http://www.w3.org/Graphics/SVG/1.1/DTD/svg11.dtd">
<svg version="1.1" id="Vrstva_1" xmlns="http://www.w3.org/2000/svg" xmlns:xlink="http://www.w3.org/1999/xlink" x="0px" y="0px"
	 width="1136px" height="568px" viewBox="0 0 1136 568" enable-background="new 0 0 1136 568" xml:space="preserve">
<path fill="#0080FF" d="M572.005,0h-2.68l94.669,568l183.999,0.001L703.662,225.107L572.005,0L572.005,0z M565.335,0h-2.681
	L383.997,568l183.998,0.001L565.335,0L565.335,0z M555.996,0L103.999,567.999L287.998,568L558.664,0H555.996L555.996,0z"/>
<g>
	<path opacity="0.1" fill-rule="evenodd" clip-rule="evenodd" d="M553.484,166.565l3.104,6.305H544.39l-21.051,235.126h-36.001
		l1.496-8h30.451l22.829-233.431H553.484L553.484,166.565z M525.239,172.87h-6.515l4.637-6.305h3.158L525.239,172.87L525.239,172.87
		z"/>
	<polygon opacity="0.1" fill-rule="evenodd" clip-rule="evenodd" points="466.983,151.954 467.142,172.87 454.944,172.87 
		319.966,407.996 283.964,407.996 289.336,399.996 316.817,399.996 454.564,166.565 466.529,166.565 466.983,151.954 	"/>
	<path fill-rule="evenodd" clip-rule="evenodd" fill="#265385" d="M519.284,399.996h-36.008v-20.359h36.002l22.86-225.474h12.197
		v12.402h-12.223L519.284,399.996L519.284,399.996z M526.519,166.565h-10.05l0.006-12.402h12.561L526.519,166.565L526.519,166.565z"
		/>
	<path fill-rule="evenodd" clip-rule="evenodd" fill="#265385" d="M316.817,399.996h-36.008v-20.359h36.002l137.516-225.474h0.238
		h11.96l0.962-30.838v12.393l-0.958,30.847h-11.964L316.817,399.996L316.817,399.996z M432.4,166.565h-3.739l0.006-12.402h12.557
		L432.4,166.565L432.4,166.565z M467.487,123.316L467.487,123.316L467.487,123.316L467.487,123.316L467.487,123.316z"/>
	<path opacity="0.1" fill-rule="evenodd" clip-rule="evenodd" d="M647.447,166.565l5.823,6.305h-3.833l-2.289-6.305H647.447
		L647.447,166.565z M718.726,399.996l2.734,8h-36.001L627.97,172.87h-12.563l1.917-6.305h12.229l58.938,233.431H718.726
		L718.726,399.996z"/>
	<path fill-rule="evenodd" clip-rule="evenodd" fill="#265385" d="M724.498,379.637v20.359H688.49l-58.938-233.431H616.98
		l0.006-12.402h12.557l58.953,225.474H724.498L724.498,379.637z M642.646,154.163h12.198h0.003v12.402h-7.699L642.646,154.163
		L642.646,154.163z"/>
	<polygon fill-rule="evenodd" clip-rule="evenodd" fill="#F5F8FF" points="467.487,123.315 466.525,154.163 454.327,154.163 
		316.811,379.637 280.809,379.637 441.224,154.163 428.661,154.163 467.487,123.315 	"/>
	<polygon fill-rule="evenodd" clip-rule="evenodd" fill="#F5F8FF" points="539.613,123.315 554.336,154.163 542.139,154.163 
		519.278,379.637 483.276,379.637 529.036,154.163 516.473,154.163 539.613,123.315 	"/>
	<polygon fill-rule="evenodd" clip-rule="evenodd" fill="#F5F8FF" points="625.795,123.315 654.845,154.163 642.646,154.163 
		724.498,379.637 688.496,379.637 629.543,154.163 616.98,154.163 625.795,123.315 	"/>
</g>
</svg>
