<?xml version="1.0" encoding="utf-8"?>
<!-- Generator: Adobe Illustrator 14.0.0, SVG Export Plug-In . SVG Version: 6.00 Build 43363)  -->
<!DOCTYPE svg PUBLIC "-//W3C//DTD SVG 1.1//EN" "http://www.w3.org/Graphics/SVG/1.1/DTD/svg11.dtd">
<svg version="1.1" id="Vrstva_1" xmlns="http://www.w3.org/2000/svg" xmlns:xlink="http://www.w3.org/1999/xlink" x="0px" y="0px"
	 width="1136px" height="568px" viewBox="0 0 1136 568" enable-background="new 0 0 1136 568" xml:space="preserve">
<polygon fill="#373941" points="655.996,0 1136,473.338 1136,567.996 0,568 552,0 575.996,0 686.424,146.061 647.994,0 655.996,0 
	"/>
<path fill-rule="evenodd" clip-rule="evenodd" fill="#FFFFFF" d="M553.996,0L64,568H48L553.996,0L553.996,0z M567.329,0l0.306,3.061
	h-0.087L567.329,0L567.329,0z M568.025,6.979l0.805,8.065h-0.424l-0.578-8.065H568.025L568.025,6.979z M569.42,20.957l0.904,9.062
	h-0.846l-0.649-9.062H569.42L569.42,20.957z M571.018,36.979l1.497,15h-1.464l-1.074-15H571.018L571.018,36.979z M573.417,61.025
	l2.089,20.94h-2.309l-1.5-20.94H573.417L573.417,61.025z M576.901,95.952l3.003,30.1h-3.551l-2.154-30.1H576.901L576.901,95.952z
	 M582.092,147.98l5.469,54.814h-5.713l-3.924-54.814H582.092L582.092,147.98z M591.955,246.84l9.986,100.104h-9.773l-7.166-100.104
	H591.955L591.955,246.84z M611.831,446.066L623.995,568h-16l-8.729-121.934H611.831L611.831,446.066z M560.671,0l-1.167,3.061
	h-0.086L560.671,0L560.671,0z M558.009,6.979l-3.077,8.065h-0.424l3.305-8.065H558.009L558.009,6.979z M552.677,20.957l-3.457,9.062
	h-0.845l3.711-9.062H552.677L552.677,20.957z M546.564,36.979l-5.722,15h-1.464l6.145-15H546.564L546.564,36.979z M537.392,61.025
	l-7.988,20.94h-2.309l8.578-20.94H537.392L537.392,61.025z M524.068,95.952l-11.482,30.1h-3.551l12.33-30.1H524.068L524.068,95.952z
	 M504.222,147.98l-20.91,54.814h-5.713l22.454-54.814H504.222L504.222,147.98z M466.51,246.84l-38.187,100.104h-9.773
	l41.006-100.104H466.51L466.51,246.84z M390.511,446.066L343.998,568h-16l49.948-121.934H390.511L390.511,446.066z M828.965,446.066
	L887.99,568h16l-62.46-121.934H828.965L828.965,446.066z M649.986,0l66.672,208.065L574,0l147.103,223.998h6.971L649.986,0
	L649.986,0z M732.522,246.84l48.459,100.104h9.773L739.477,246.84H732.522L732.522,246.84z M653.996,0L1136,515.76v16.884L653.996,0
	L653.996,0z"/>
</svg>
