<?xml version="1.0" encoding="utf-8"?>
<!-- Generator: Adobe Illustrator 14.0.0, SVG Export Plug-In . SVG Version: 6.00 Build 43363)  -->
<!DOCTYPE svg PUBLIC "-//W3C//DTD SVG 1.1//EN" "http://www.w3.org/Graphics/SVG/1.1/DTD/svg11.dtd">
<svg version="1.1" id="Vrstva_1" xmlns="http://www.w3.org/2000/svg" xmlns:xlink="http://www.w3.org/1999/xlink" x="0px" y="0px"
	 width="1136px" height="568px" viewBox="0 0 1136 568" enable-background="new 0 0 1136 568" xml:space="preserve">
<path fill="#0080FF" d="M580.018,0l459.997,567.994l-175.999,0.002L577.019,0H580.018L580.018,0z M573.019,0h-3.001l38,568
	l175.999,0.001L573.019,0L573.019,0z M566.018,0h-2.999L352.02,568l175.999,0.001L566.018,0L566.018,0z M556.007,0L96.021,567.999
	L272.021,568L559.02,0H556.007L556.007,0z"/>
<g>
	<path opacity="0.1" fill-rule="evenodd" clip-rule="evenodd" d="M543.963,166.616l2.557,6.253h-12.3l-41.041,235.126h-36.303
		l2.181-7.996h31.161l41.547-232.702h12.198V166.616L543.963,166.616z M513.097,172.87h-4.757l4.618-5.571h1.734L513.097,172.87
		L513.097,172.87z"/>
	<polygon opacity="0.1" fill-rule="evenodd" clip-rule="evenodd" points="670.25,142.022 672.748,143.979 673.667,167.298 
		685.981,167.298 826.481,400 854.979,400 860.529,407.996 824.227,407.996 684.14,172.87 671.473,172.87 670.25,142.022 	"/>
	<path fill-rule="evenodd" clip-rule="evenodd" fill="#265385" d="M862.772,379.637h-2.968H826.47L685.973,154.163h-2.603h-9.697
		l-1.193-30.136l-0.028,12.425l1.216,30.847h12.314L826.481,400h36.291V379.637L862.772,379.637z M708.716,167.298h3.137v-13.136
		h-12.668L708.716,167.298L708.716,167.298z M672.612,123.442l-0.131-0.126v0.023L672.612,123.442L672.612,123.442z"/>
	<path opacity="0.1" fill-rule="evenodd" clip-rule="evenodd" d="M622.794,167.298l4.613,5.571h-5.498l-1.441-5.571H622.794
		L622.794,167.298z M670.701,400l1.958,7.996h-36.303L601.896,172.87h-12.668l2.33-5.687l-0.001,0.115h12.239L639.112,400H670.701
		L670.701,400z"/>
	<path fill-rule="evenodd" clip-rule="evenodd" fill="#265385" d="M505.808,154.163l-0.029,13.136h8.914l3.758-13.136H505.808
		L505.808,154.163z M453.926,379.637V400h36.292l41.547-232.702h12.198v-13.136h-12.198h-0.102l-41.435,225.474H453.926
		L453.926,379.637z"/>
	<path fill-rule="evenodd" clip-rule="evenodd" fill="#265385" d="M591.587,154.163l-0.03,13.136h12.239L639.112,400h36.291v-20.363
		h-2.968h-33.335l-35.244-225.474h-0.061H591.587L591.587,154.163z M620.468,167.298h9.274v-13.136h-0.005h-12.668L620.468,167.298
		L620.468,167.298z"/>
	<polygon fill-rule="evenodd" clip-rule="evenodd" fill="#F5F8FF" points="672.451,123.315 673.673,154.163 685.973,154.163 
		826.47,379.637 862.772,379.637 699.185,154.163 711.853,154.163 672.451,123.315 	"/>
	<polygon fill-rule="evenodd" clip-rule="evenodd" fill="#F5F8FF" points="531.632,123.315 543.963,154.163 531.663,154.163 
		490.229,379.637 453.926,379.637 518.45,154.163 505.783,154.163 531.632,123.315 	"/>
	<polygon opacity="0.1" fill-rule="evenodd" clip-rule="evenodd" points="464.232,142.022 464.12,172.87 451.82,172.87 
		313.798,407.996 277.496,407.996 282.975,400 312.002,400 450.7,167.298 463.129,167.298 463.929,142.267 464.232,142.022 	"/>
	<polygon fill-rule="evenodd" clip-rule="evenodd" fill="#F5F8FF" points="604.735,123.315 591.557,154.163 603.856,154.163 
		639.101,379.637 675.403,379.637 617.069,154.163 629.737,154.163 604.735,123.315 	"/>
	<path fill-rule="evenodd" clip-rule="evenodd" fill="#265385" d="M424.974,154.163l-0.03,13.136h3.235l9.432-13.136h-3.688H424.974
		L424.974,154.163z M275.711,379.637V400h36.291L450.7,167.298h12.43l0.985-30.847v-13.136l-0.991,30.847h-7.112h-5.188
		L312.014,379.637H275.711L275.711,379.637z"/>
	<polygon fill-rule="evenodd" clip-rule="evenodd" fill="#F5F8FF" points="464.115,123.315 463.124,154.163 450.824,154.163 
		312.014,379.637 275.711,379.637 437.612,154.163 424.944,154.163 464.115,123.315 	"/>
</g>
</svg>
