<?xml version="1.0" encoding="utf-8"?>
<!-- Generator: Adobe Illustrator 14.0.0, SVG Export Plug-In . SVG Version: 6.00 Build 43363)  -->
<!DOCTYPE svg PUBLIC "-//W3C//DTD SVG 1.1//EN" "http://www.w3.org/Graphics/SVG/1.1/DTD/svg11.dtd">
<svg version="1.1" id="Vrstva_1" xmlns="http://www.w3.org/2000/svg" xmlns:xlink="http://www.w3.org/1999/xlink" x="0px" y="0px"
	 width="1136px" height="568px" viewBox="0 0 1136 568" enable-background="new 0 0 1136 568" xml:space="preserve">
<polygon fill="#373941" points="648.018,0 656.018,0 1136.022,448.426 1136.022,567.996 0.022,568 552.022,0 584.018,0 
	700.228,119.578 648.018,0 "/>
<path fill-rule="evenodd" clip-rule="evenodd" fill="#FFFFFF" d="M554.019,0L64.022,568h-16L554.019,0L554.019,0z M575.019,0
	l1.385,3.061h-0.087L575.019,0L575.019,0z M578.176,6.979l3.649,8.065h-0.424l-3.422-8.065H578.176L578.176,6.979z M584.5,20.957
	l4.101,9.062h-0.846l-3.845-9.062H584.5L584.5,20.957z M591.749,36.979l6.787,15h-1.464l-6.364-15H591.749L591.749,36.979z
	 M602.63,61.025l9.475,20.94h-2.309l-8.885-20.94H602.63L602.63,61.025z M618.433,95.952l13.619,30.1h-3.551l-12.771-30.1H618.433
	L618.433,95.952z M641.974,147.98l24.801,54.814h-5.713l-23.257-54.814H641.974L641.974,147.98z M686.704,246.84l45.293,100.104
	h-9.773L679.75,246.84H686.704L686.704,246.84z M776.847,446.066L832.016,568h-16L764.28,446.066H776.847L776.847,446.066z
	 M568.019,0l0.043,3.061h-0.086L568.019,0L568.019,0z M568.116,6.979l0.114,8.065h-0.425l0.114-8.065H568.116L568.116,6.979z
	 M568.313,20.957l0.128,9.062h-0.847l0.129-9.062H568.313L568.313,20.957z M568.539,36.979l0.212,15h-1.465l0.211-15H568.539
	L568.539,36.979z M568.878,61.025l0.295,20.94h-2.309l0.295-20.94H568.878L568.878,61.025z M569.37,95.952l0.424,30.1h-3.551
	l0.424-30.1H569.37L569.37,95.952z M570.103,147.98l0.771,54.814h-5.713l0.773-54.814H570.103L570.103,147.98z M571.495,246.84
	l1.41,100.104h-9.773l1.41-100.104H571.495L571.495,246.84z M574.301,446.066L576.019,568h-16l1.717-121.934H574.301
	L574.301,446.066z M561.017,0l-1.299,3.061h-0.086L561.017,0L561.017,0z M558.056,6.979l-3.422,8.065h-0.424l3.649-8.065H558.056
	L558.056,6.979z M552.125,20.957l-3.845,9.062h-0.846l4.101-9.062H552.125L552.125,20.957z M545.327,36.979l-6.364,15h-1.464
	l6.787-15H545.327L545.327,36.979z M535.124,61.025l-8.885,20.94h-2.309l9.475-20.94H535.124L535.124,61.025z M520.306,95.952
	l-12.771,30.1h-3.551l13.619-30.1H520.306L520.306,95.952z M498.23,147.98l-23.257,54.814h-5.713l24.801-54.814H498.23
	L498.23,147.98z M456.285,246.84l-42.473,100.104h-9.773l45.293-100.104H456.285L456.285,246.84z M371.755,446.066L320.02,568h-16
	l55.17-121.934H371.755L371.755,446.066z M654.017,0l482.006,487.151v14.275L654.017,0L654.017,0z M650.018,0l107.551,197.063
	h-5.552L582.018,0l162.302,182.189L650.018,0L650.018,0z"/>
</svg>
