<?xml version="1.0" encoding="utf-8"?>
<!-- Generator: Adobe Illustrator 14.0.0, SVG Export Plug-In . SVG Version: 6.00 Build 43363)  -->
<!DOCTYPE svg PUBLIC "-//W3C//DTD SVG 1.1//EN" "http://www.w3.org/Graphics/SVG/1.1/DTD/svg11.dtd">
<svg version="1.1" id="Vrstva_1" xmlns="http://www.w3.org/2000/svg" xmlns:xlink="http://www.w3.org/1999/xlink" x="0px" y="0px"
	 width="1136px" height="568px" viewBox="0 0 1136 568" enable-background="new 0 0 1136 568" xml:space="preserve">
<path fill="#0080FF" d="M576.996,0.029l2.998,0.005l451.998,567.995l-160,0.002L576.996,0.029L576.996,0.029z M569.996,0.029h3
	l202.998,568l-160,0.002L569.996,0.029L569.996,0.029z M565.995,0.035h-2.999l-202.999,568l160,0.001L565.995,0.035L565.995,0.035z
	 M558.996,0.034l-3,0.002L103.999,568.034l160,0.001L558.996,0.034L558.996,0.034z"/>
<g>
	<path opacity="0.1" fill-rule="evenodd" clip-rule="evenodd" d="M543.525,167.333l2.085,5.567h-12.3l-38.703,235.015h-37.602
		l2.116-7.881h32.922l39.914-232.702H543.525L543.525,167.333z M513.55,172.901h-6.12l4.806-5.567h2.871L513.55,172.901
		L513.55,172.901z M516.481,162.415L516.481,162.415l-0.796,2.85L516.481,162.415L516.481,162.415z"/>
	<polygon opacity="0.1" fill-rule="evenodd" clip-rule="evenodd" points="465,142.054 464.008,172.901 451.708,172.901 
		317.429,407.916 279.827,407.916 285.147,400.035 313.025,400.035 451.815,167.333 464.151,167.333 464.151,154.197 
		464.146,154.197 464.524,142.429 465,142.054 	"/>
	<path fill-rule="evenodd" clip-rule="evenodd" fill="#265385" d="M426.066,154.197L426.066,154.197L426.066,154.197
		L426.066,154.197L426.066,154.197z M464.246,154.197h0.005v13.136h-12.336l-138.79,232.702H276.82v-20.363h36.303l138.823-225.474
		L464.246,154.197L464.246,154.197L464.246,154.197z M429.301,167.333h-3.235v-13.136h12.667L429.301,167.333L429.301,167.333z"/>
	<polygon fill-rule="evenodd" clip-rule="evenodd" fill="#F5F8FF" points="465.238,123.351 464.246,154.198 451.946,154.198 
		313.123,379.672 276.82,379.672 438.733,154.198 426.065,154.198 465.238,123.351 	"/>
	<path fill-rule="evenodd" clip-rule="evenodd" fill="#265385" d="M455.738,400.035v-20.363h0h0l0,0h36.303l39.95-225.474h12.3
		v13.136h-12.334l-39.914,232.702H455.738L455.738,400.035z M515.106,167.333h-9v-13.136h0.006l0,0h12.668L515.106,167.333
		L515.106,167.333z M544.291,154.197L544.291,154.197L544.291,154.197L544.291,154.197L544.291,154.197z"/>
	<polygon fill-rule="evenodd" clip-rule="evenodd" fill="#F5F8FF" points="531.757,123.351 544.291,154.198 531.991,154.198 
		492.041,379.672 455.738,379.672 518.779,154.198 506.111,154.198 531.757,123.351 	"/>
	<path opacity="0.1" fill-rule="evenodd" clip-rule="evenodd" d="M592.484,167.333l-2.086,5.567h12.301l38.703,235.015h37.602
		l-2.115-7.881h-32.922l-39.914-232.702H592.484L592.484,167.333z M622.459,172.901h6.12l-4.806-5.567h-2.871L622.459,172.901
		L622.459,172.901z M619.527,162.415L619.527,162.415l0.797,2.85L619.527,162.415L619.527,162.415z"/>
	<polygon opacity="0.1" fill-rule="evenodd" clip-rule="evenodd" points="671.51,142.054 672.502,172.901 684.802,172.901 
		819.081,407.916 856.683,407.916 851.361,400.035 823.484,400.035 684.695,167.333 672.358,167.333 672.358,154.197 
		672.363,154.197 671.985,142.429 671.51,142.054 	"/>
	<path fill-rule="evenodd" clip-rule="evenodd" fill="#265385" d="M710.544,154.197L710.544,154.197L710.544,154.197
		L710.544,154.197L710.544,154.197z M672.363,154.197h-0.005v13.136h12.337l138.789,232.702h36.305v-20.363h-36.303L684.664,154.198
		L672.363,154.197L672.363,154.197L672.363,154.197z M707.309,167.333h3.235v-13.136h-12.667L707.309,167.333L707.309,167.333z"/>
	<polygon fill-rule="evenodd" clip-rule="evenodd" fill="#F5F8FF" points="671.372,123.351 672.363,154.198 684.664,154.198 
		823.486,379.672 859.789,379.672 697.877,154.198 710.544,154.198 671.372,123.351 	"/>
	<path fill-rule="evenodd" clip-rule="evenodd" fill="#265385" d="M680.271,400.035v-20.363h-0.001h0.001l0,0h-36.303
		l-39.951-225.474h-12.3v13.136h12.335l39.914,232.702H680.271L680.271,400.035z M620.902,167.333h9.001v-13.136h-0.006l0.001,0
		H617.23L620.902,167.333L620.902,167.333z M591.719,154.197L591.719,154.197L591.719,154.197L591.719,154.197L591.719,154.197z"/>
	<polygon fill-rule="evenodd" clip-rule="evenodd" fill="#F5F8FF" points="604.252,123.351 591.718,154.198 604.018,154.198 
		643.969,379.672 680.271,379.672 617.23,154.198 629.898,154.198 604.252,123.351 	"/>
</g>
</svg>
