<?xml version="1.0" encoding="utf-8"?>
<!-- Generator: Adobe Illustrator 14.0.0, SVG Export Plug-In . SVG Version: 6.00 Build 43363)  -->
<!DOCTYPE svg PUBLIC "-//W3C//DTD SVG 1.1//EN" "http://www.w3.org/Graphics/SVG/1.1/DTD/svg11.dtd">
<svg version="1.1" id="Vrstva_1" xmlns="http://www.w3.org/2000/svg" xmlns:xlink="http://www.w3.org/1999/xlink" x="0px" y="0px"
	 width="1136px" height="568px" viewBox="0 0 1136 568" enable-background="new 0 0 1136 568" xml:space="preserve">
<path fill="#0080FF" d="M793.162,12.535c-13.827,6.3-23.781,14.77-33.671,25.888c-14.765,16.599-19.125,40.158-14.585,61.451
	c4.251,19.933,15.84,37.307,30.307,51.306c3.074,2.974,6.404,5.928,10.012,8.855L1136,444.689v123.342h-8.01L737.275,160.035
	c-2.53-2.642-4.891-5.512-7.063-8.569c-2.313-3.254-4.415-6.718-6.284-10.344c-17.187-33.33-14.154-73.623,14.271-99.542
	c3.365-3.069,6.984-5.928,10.793-8.588C762.245,23.735,777.518,16.564,793.162,12.535L793.162,12.535z"/>
<g>
	<polygon opacity="0.1" fill-rule="evenodd" clip-rule="evenodd" points="737.89,142.054 751.894,172.901 764.193,172.901 
		997.604,407.916 1035.205,407.916 1026.561,400.035 1000.061,400.035 764.022,167.333 751.65,167.333 740.887,143.825 
		737.89,142.054 	"/>
	<path fill-rule="evenodd" clip-rule="evenodd" fill="#265385" d="M1000.061,400.035L764.022,167.333H751.65l-14.291-31.211v-12.769
		l14.3,30.844h12.3l236.104,225.474h36.303v20.363H1000.061L1000.061,400.035z M789.836,154.198v11.017l-12.664-11.017H789.836
		L789.836,154.198z M1036.365,379.672L1036.365,379.672L1036.365,379.672L1036.365,379.672L1036.365,379.672z"/>
	<polygon fill-rule="evenodd" clip-rule="evenodd" fill="#F5F8FF" points="737.357,123.351 751.659,154.198 763.959,154.198 
		1000.063,379.672 1036.365,379.672 777.172,154.198 789.839,154.198 737.357,123.351 	"/>
</g>
</svg>
