<?xml version="1.0" encoding="utf-8"?>
<!-- Generator: Adobe Illustrator 14.0.0, SVG Export Plug-In . SVG Version: 6.00 Build 43363)  -->
<!DOCTYPE svg PUBLIC "-//W3C//DTD SVG 1.1//EN" "http://www.w3.org/Graphics/SVG/1.1/DTD/svg11.dtd">
<svg version="1.1" id="Vrstva_1" xmlns="http://www.w3.org/2000/svg" xmlns:xlink="http://www.w3.org/1999/xlink" x="0px" y="0px"
	 width="1136px" height="568px" viewBox="0 0 1136 568" enable-background="new 0 0 1136 568" xml:space="preserve">
<path fill="#0080FF" d="M580.008,0l451.984,567.994l-247.998,0.002L574.662,0H580.008L580.008,0z M570.669,0h-5.341L447.997,568
	l239.998,0.001L570.669,0L570.669,0z M561.328,0h-5.332L103.999,567.999L351.997,568L561.328,0L561.328,0z"/>
<g>
	<path opacity="0.1" fill-rule="evenodd" clip-rule="evenodd" d="M547.052,166.565l-5.487,6.329h16.318l0.472-6.329H547.052
		L547.052,166.565z M543.096,399.997l-0.55,7.873h51.294l-0.543-7.873H543.096L543.096,399.997z M579.274,172.894h16.271
		l-5.588-6.329H578.83L579.274,172.894L579.274,172.894z"/>
	<path fill-rule="evenodd" clip-rule="evenodd" fill="#265385" d="M593.793,379.637v20.36h-51.313v-20.36H593.793L593.793,379.637z
		 M541.368,166.565l0.002-12.402h17.908l-0.924,12.402H541.368L541.368,166.565z M577.959,154.163h17.39h0.001v12.402h-16.52
		L577.959,154.163L577.959,154.163z"/>
	<path opacity="0.1" fill-rule="evenodd" clip-rule="evenodd" d="M486.169,166.565l1.949,6.329h-17.39L355.771,407.87h-51.294
		l4.945-7.873h43.855l117.635-233.432H486.169L486.169,166.565z M439.773,172.894h-5.635l9.126-6.329h0.728L439.773,172.894
		L439.773,172.894z"/>
	<path fill-rule="evenodd" clip-rule="evenodd" fill="#265385" d="M353.276,399.997h-51.313v-20.36h51.326l117.649-225.474h17.391
		v12.402h-17.417L353.276,399.997L353.276,399.997z M443.992,166.565h-9.644l0.002-12.402h17.909L443.992,166.565L443.992,166.565z"
		/>
	<polygon fill-rule="evenodd" clip-rule="evenodd" fill="#F5F8FF" points="478.975,123.315 488.329,154.163 470.938,154.163 
		353.29,379.637 301.963,379.637 452.259,154.163 434.349,154.163 478.975,123.315 	"/>
	<polygon fill-rule="evenodd" clip-rule="evenodd" fill="#F5F8FF" points="567.732,123.315 595.349,154.163 577.959,154.163 
		593.799,379.637 542.473,379.637 559.278,154.163 541.368,154.163 567.732,123.315 	"/>
	<path opacity="0.1" fill-rule="evenodd" clip-rule="evenodd" d="M649.947,166.565l-1.949,6.329h17.391L780.346,407.87h51.295
		l-4.945-7.873H782.84L665.205,166.565H649.947L649.947,166.565z M696.344,172.894h5.635l-9.126-6.329h-0.728L696.344,172.894
		L696.344,172.894z"/>
	<path fill-rule="evenodd" clip-rule="evenodd" fill="#265385" d="M782.84,399.997h51.313v-20.36h-51.326L665.178,154.163h-17.391
		v12.402h17.418L782.84,399.997L782.84,399.997z M692.125,166.565h9.645l-0.003-12.402h-17.909L692.125,166.565L692.125,166.565z"/>
	<polygon fill-rule="evenodd" clip-rule="evenodd" fill="#F5F8FF" points="657.142,123.315 647.787,154.163 665.178,154.163 
		782.827,379.637 834.153,379.637 683.857,154.163 701.768,154.163 657.142,123.315 	"/>
</g>
</svg>
