<?xml version="1.0" encoding="utf-8"?>
<!-- Generator: Adobe Illustrator 14.0.0, SVG Export Plug-In . SVG Version: 6.00 Build 43363)  -->
<!DOCTYPE svg PUBLIC "-//W3C//DTD SVG 1.1//EN" "http://www.w3.org/Graphics/SVG/1.1/DTD/svg11.dtd">
<svg version="1.1" id="Vrstva_1" xmlns="http://www.w3.org/2000/svg" xmlns:xlink="http://www.w3.org/1999/xlink" x="0px" y="0px"
	 width="1136px" height="568px" viewBox="0 0 1136 568" enable-background="new 0 0 1136 568" xml:space="preserve">
<polygon fill="#0080FF" points="653,0 1127.991,567.994 943.992,567.996 747.29,225.262 650.99,0 653,0 "/>
<g>
	<polygon opacity="0.1" fill-rule="evenodd" clip-rule="evenodd" points="736.181,142.023 737.995,143.415 740.464,166.565 
		753.077,166.565 900.478,399.996 928.117,399.996 933.891,407.996 897.89,407.996 751.087,172.87 738.524,172.87 736.181,142.023 	
		"/>
	<path fill-rule="evenodd" clip-rule="evenodd" fill="#265385" d="M936.485,379.637v20.359h-36.008l-147.4-233.431h-12.613
		l-3.289-30.847l0.004-12.36l3.289,30.805h12.563l147.453,225.474H936.485L936.485,379.637z M737.179,123.319v-0.003l0.015,0.015
		L737.179,123.319L737.179,123.319z M778.331,154.163v12.402h-2.827l-9.371-12.402H778.331L778.331,154.163z"/>
	<polygon fill-rule="evenodd" clip-rule="evenodd" fill="#F5F8FF" points="737.175,123.315 778.331,154.163 766.133,154.163 
		936.485,379.637 900.483,379.637 753.03,154.163 740.468,154.163 737.175,123.315 	"/>
</g>
</svg>
