<?xml version="1.0" encoding="utf-8"?>
<!-- Generator: Adobe Illustrator 14.0.0, SVG Export Plug-In . SVG Version: 6.00 Build 43363)  -->
<!DOCTYPE svg PUBLIC "-//W3C//DTD SVG 1.1//EN" "http://www.w3.org/Graphics/SVG/1.1/DTD/svg11.dtd">
<svg version="1.1" id="Vrstva_1" xmlns="http://www.w3.org/2000/svg" xmlns:xlink="http://www.w3.org/1999/xlink" x="0px" y="0px"
	 width="1136px" height="568px" viewBox="0 0 1136 568" enable-background="new 0 0 1136 568" xml:space="preserve">
<path fill="#0080FF" d="M572.014,0h-2.68l102.67,568l175.998,0.001L572.014,0L572.014,0z M565.344,0h-2.681L392.006,568l184,0.001
	L565.344,0L565.344,0z M556.005,0L104.008,567.999L296.007,568L558.673,0H556.005L556.005,0z"/>
<g>
	<path opacity="0.1" fill-rule="evenodd" clip-rule="evenodd" d="M610.104,165.515l-1.947,7.351h11.352l65.037,235.131h33.506
		L715.115,400h-27.639l-65.875-232.702h-11.498V165.515L610.104,165.515z M640.896,172.866h2.498l-4.473-5.1L640.896,172.866
		L640.896,172.866z"/>
	<path fill-rule="evenodd" clip-rule="evenodd" fill="#265385" d="M720.992,379.637H698.51h-11.025l-66.027-225.474h-11.354v13.136
		h11.498L687.477,400h33.516V379.637L720.992,379.637z M638.74,167.298h6.613l-0.023-13.136h-11.678L638.74,167.298L638.74,167.298z
		"/>
	<polygon fill-rule="evenodd" clip-rule="evenodd" fill="#F5F8FF" points="617.686,123.315 610.104,154.163 621.457,154.163 
		687.484,379.637 720.992,379.637 633.652,154.163 645.344,154.163 617.686,123.315 	"/>
	<path opacity="0.1" fill-rule="evenodd" clip-rule="evenodd" d="M527.547,167.298l-4.014,5.567h6.765l1.032-5.567H527.547
		L527.547,167.298z M494.179,400l-1.434,7.997h33.507l20.829-235.131h11.691l-2.346-5.567h-10.331L525.453,400H494.179L494.179,400z
		"/>
	<path fill-rule="evenodd" clip-rule="evenodd" fill="#265385" d="M546.096,167.298h11.578l-0.023-13.136h-11.555h-0.134
		l-20.517,225.474h-7.896h-25.61V400h33.515L546.096,167.298L546.096,167.298z M533.768,154.163h-11.342v13.136h8.905
		L533.768,154.163L533.768,154.163z"/>
	<polygon opacity="0.1" fill-rule="evenodd" clip-rule="evenodd" points="469.269,142.019 468.729,142.472 466.865,167.298 
		455.056,167.298 323.349,400 297.132,400 291.962,407.997 325.469,407.997 456.165,172.866 467.857,172.866 469.269,142.019 	"/>
	<path fill-rule="evenodd" clip-rule="evenodd" fill="#265385" d="M466.865,167.298l2.316-30.847l-0.023-12.831l-2.302,30.542
		h-11.692L323.341,379.637h-11.579h-21.928V400h33.515l131.707-232.702H466.865L466.865,167.298z M469.158,123.335v-0.02
		l-0.057,0.065L469.158,123.335L469.158,123.335z M431.616,154.163v13.136h2.432l8.921-13.136H431.616L431.616,154.163z"/>
	<polygon fill-rule="evenodd" clip-rule="evenodd" fill="#F5F8FF" points="544.751,123.315 522.415,154.163 533.768,154.163 
		491.938,379.637 525.445,379.637 545.962,154.163 557.655,154.163 544.751,123.315 	"/>
	<polygon fill-rule="evenodd" clip-rule="evenodd" fill="#F5F8FF" points="469.181,123.315 431.616,154.163 442.969,154.163 
		289.834,379.637 323.341,379.637 455.164,154.163 466.856,154.163 469.181,123.315 	"/>
</g>
</svg>
