<?xml version="1.0" encoding="utf-8"?>
<!-- Generator: Adobe Illustrator 14.0.0, SVG Export Plug-In . SVG Version: 6.00 Build 43363)  -->
<!DOCTYPE svg PUBLIC "-//W3C//DTD SVG 1.1//EN" "http://www.w3.org/Graphics/SVG/1.1/DTD/svg11.dtd">
<svg version="1.1" id="Vrstva_1" xmlns="http://www.w3.org/2000/svg" xmlns:xlink="http://www.w3.org/1999/xlink" x="0px" y="0px"
	 width="1136px" height="568px" viewBox="0 0 1136 568" enable-background="new 0 0 1136 568" xml:space="preserve">
<path fill="#0080FF" d="M569.328,0.01h2.668l203.998,568l-160,0.002L569.328,0.01L569.328,0.01z M565.328,0.016h-2.666l-202.665,568
	l160,0.001L565.328,0.016L565.328,0.016z M558.662,0.015l-2.666,0.002L103.999,568.015l160,0.001L558.662,0.015L558.662,0.015z"/>
<g>
	<path opacity="0.1" fill-rule="evenodd" clip-rule="evenodd" d="M544.025,167.314l2.085,5.567h-12.3l-38.704,235.015h-37.602
		l2.116-7.881h32.922l39.914-232.702H544.025L544.025,167.314z M514.051,172.881h-6.12l4.806-5.567h2.871L514.051,172.881
		L514.051,172.881z M516.982,162.396L516.982,162.396l-0.797,2.85L516.982,162.396L516.982,162.396z"/>
	<polygon opacity="0.1" fill-rule="evenodd" clip-rule="evenodd" points="465.801,142.034 464.809,172.881 452.509,172.881 
		318.229,407.896 280.627,407.896 285.948,400.016 313.826,400.016 452.615,167.314 464.952,167.314 464.952,154.178 
		464.946,154.178 465.325,142.409 465.801,142.034 	"/>
	<path fill-rule="evenodd" clip-rule="evenodd" fill="#265385" d="M426.767,154.178L426.767,154.178L426.767,154.178
		L426.767,154.178L426.767,154.178z M464.946,154.178h0.005v13.136h-12.336l-138.79,232.702h-36.305v-20.363h36.303l138.822-225.474
		L464.946,154.178L464.946,154.178L464.946,154.178z M430.001,167.314h-3.234v-13.136h12.667L430.001,167.314L430.001,167.314z"/>
	<polygon fill-rule="evenodd" clip-rule="evenodd" fill="#F5F8FF" points="465.938,123.331 464.946,154.178 452.646,154.178 
		313.824,379.652 277.521,379.652 439.434,154.178 426.766,154.178 465.938,123.331 	"/>
	<path fill-rule="evenodd" clip-rule="evenodd" fill="#265385" d="M456.239,400.016v-20.363h0h0l0,0h36.303l39.951-225.474h12.299
		v13.136h-12.334l-39.914,232.702H456.239L456.239,400.016z M515.607,167.314h-9.001v-13.136h0.006l0,0h12.667L515.607,167.314
		L515.607,167.314z M544.791,154.178L544.791,154.178L544.791,154.178L544.791,154.178L544.791,154.178z"/>
	<polygon fill-rule="evenodd" clip-rule="evenodd" fill="#F5F8FF" points="532.258,123.331 544.791,154.178 532.492,154.178 
		492.542,379.652 456.239,379.652 519.279,154.178 506.612,154.178 532.258,123.331 	"/>
	<path opacity="0.1" fill-rule="evenodd" clip-rule="evenodd" d="M591.384,167.314l-2.085,5.567h12.3l38.703,235.015h37.603
		l-2.116-7.881h-32.923l-39.914-232.702H591.384L591.384,167.314z M621.359,172.881h6.119l-4.806-5.567h-2.871L621.359,172.881
		L621.359,172.881z M618.427,162.396L618.427,162.396l0.797,2.85L618.427,162.396L618.427,162.396z"/>
	<path fill-rule="evenodd" clip-rule="evenodd" fill="#265385" d="M679.17,400.016v-20.363l0,0l0,0l0,0h-36.303l-39.95-225.474
		h-12.3v13.136h12.334l39.914,232.702H679.17L679.17,400.016z M619.802,167.314h9.001v-13.136h-0.006v0h-12.668L619.802,167.314
		L619.802,167.314z M590.617,154.178L590.617,154.178L590.617,154.178L590.617,154.178L590.617,154.178z"/>
	<polygon fill-rule="evenodd" clip-rule="evenodd" fill="#F5F8FF" points="603.152,123.331 590.617,154.178 602.917,154.178 
		642.867,379.652 679.17,379.652 616.129,154.178 628.797,154.178 603.152,123.331 	"/>
</g>
</svg>
