<?xml version="1.0" encoding="utf-8"?>
<!-- Generator: Adobe Illustrator 14.0.0, SVG Export Plug-In . SVG Version: 6.00 Build 43363)  -->
<!DOCTYPE svg PUBLIC "-//W3C//DTD SVG 1.1//EN" "http://www.w3.org/Graphics/SVG/1.1/DTD/svg11.dtd">
<svg version="1.1" id="Vrstva_1" xmlns="http://www.w3.org/2000/svg" xmlns:xlink="http://www.w3.org/1999/xlink" x="0px" y="0px"
	 width="1136px" height="568px" viewBox="0 0 1136 568" enable-background="new 0 0 1136 568" xml:space="preserve">
<path fill="#0080FF" d="M563.995,0l-1.999,0.001L359.997,567.999L519.996,568L563.995,0L563.995,0z M557.995,0l-1.999,0.001
	L103.999,567.999L263.998,568L557.995,0L557.995,0z"/>
<g>
	<path opacity="0.1" fill-rule="evenodd" clip-rule="evenodd" d="M512.685,166.565l-5.062,6.386h4.596l1.647-6.386H512.685
		L512.685,166.565z M463.654,399.996l-1.955,8h33.984l35.823-235.045h11.858l-2.337-6.386h-11.495l-36.635,233.431H463.654
		L463.654,399.996z"/>
	<polygon opacity="0.1" fill-rule="evenodd" clip-rule="evenodd" points="463.748,142.104 463.063,142.669 460.962,166.565 
		449.175,166.565 313.057,399.996 286.734,399.996 281.411,407.996 315.396,407.996 450.191,172.951 462.05,172.951 
		463.748,142.104 	"/>
	<path fill-rule="evenodd" clip-rule="evenodd" fill="#265385" d="M279.061,379.637v20.359h33.996l136.118-233.431h11.787
		l2.712-30.847v-12.402l-2.684,30.847h-11.858L313.046,379.637H279.061L279.061,379.637z M425.248,154.163v12.402h2.84l8.674-12.402
		H425.248L425.248,154.163z"/>
	<path fill-rule="evenodd" clip-rule="evenodd" fill="#265385" d="M458.901,379.637v20.359h33.996l36.635-233.431h11.761v-12.402
		h-11.761h-0.098l-36.549,225.474H458.901L458.901,379.637z M517.065,154.163h-11.486v12.402h8.287L517.065,154.163L517.065,154.163
		z"/>
	<polygon fill-rule="evenodd" clip-rule="evenodd" fill="#F5F8FF" points="463.674,123.315 425.248,154.163 436.762,154.163 
		279.061,379.637 313.046,379.637 449.131,154.163 460.99,154.163 463.674,123.315 	"/>
	<polygon fill-rule="evenodd" clip-rule="evenodd" fill="#F5F8FF" points="530.359,123.315 505.551,154.163 517.065,154.163 
		458.901,379.637 492.886,379.637 529.435,154.163 541.293,154.163 530.359,123.315 	"/>
</g>
</svg>
