<?xml version="1.0" encoding="utf-8"?>
<!-- Generator: Adobe Illustrator 14.0.0, SVG Export Plug-In . SVG Version: 6.00 Build 43363)  -->
<!DOCTYPE svg PUBLIC "-//W3C//DTD SVG 1.1//EN" "http://www.w3.org/Graphics/SVG/1.1/DTD/svg11.dtd">
<svg version="1.1" id="Vrstva_1" xmlns="http://www.w3.org/2000/svg" xmlns:xlink="http://www.w3.org/1999/xlink" x="0px" y="0px"
	 width="1136px" height="568px" viewBox="0 0 1136 568" enable-background="new 0 0 1136 568" xml:space="preserve">
<path fill="#0080FF" d="M780.641,8.59c-11.271,2.743-22.57,5.198-33.562,8.941c-6.325,2.154-12.768,4.23-18.878,6.989
	c-20.816,9.4-36.077,24.117-43.089,42.039c-5.194,13.273-5.495,27.518-2.841,41.428c3.637,19.062,13.504,37.508,25.03,51.993
	l324.69,408.019L871.993,568L660.814,160.005c-32.498-62.784,1.327-114.789,65.767-138.217c11.554-4.201,23.062-7.442,34.88-10.056
	C767.79,10.332,774.183,9.227,780.641,8.59L780.641,8.59z M780.368,5.738c-9.559,1.495-19.088,3.326-28.558,5.293
	c-14.949,3.104-31.228,7.792-46.375,14.137c-11.857,4.967-23.781,11.159-34.698,18.732c-38.765,26.891-56.301,69.816-39.829,116.133
	l145.086,407.965L615.995,568l-31.604-407.975c-1.833-23.659-1.22-44.538,10.756-65.397c21.862-38.079,67.724-60.585,107.915-73.868
	c16.417-5.425,32.915-9.193,48.326-11.76C760.992,7.402,770.658,6.45,780.368,5.738L780.368,5.738z"/>
<g>
	<path opacity="0.1" fill-rule="evenodd" clip-rule="evenodd" d="M624.262,166.565l5.063,6.386h-4.596l-1.648-6.386H624.262
		L624.262,166.565z M673.293,399.996l1.955,8h-33.984L605.44,172.951h-11.858l2.338-6.386h11.494l36.636,233.431H673.293
		L673.293,399.996z"/>
	<polygon opacity="0.1" fill-rule="evenodd" clip-rule="evenodd" points="672.798,142.104 673.484,142.669 675.585,166.565 
		687.371,166.565 823.489,399.996 849.812,399.996 855.135,407.996 821.15,407.996 686.355,172.951 674.496,172.951 
		672.798,142.104 	"/>
	<path fill-rule="evenodd" clip-rule="evenodd" fill="#265385" d="M857.485,379.637v20.359h-33.996L687.371,166.565h-11.786
		l-2.712-30.847v-12.402l2.684,30.847h11.858L823.5,379.637H857.485L857.485,379.637z M711.299,154.163v12.402h-2.841l-8.674-12.402
		H711.299L711.299,154.163z"/>
	<path fill-rule="evenodd" clip-rule="evenodd" fill="#265385" d="M678.046,379.637v20.359H644.05l-36.636-233.431h-11.76v-12.402
		h11.76h0.099l36.548,225.474H678.046L678.046,379.637z M619.881,154.163h11.487v12.402h-8.288L619.881,154.163L619.881,154.163z"/>
	<polygon fill-rule="evenodd" clip-rule="evenodd" fill="#F5F8FF" points="672.873,123.315 711.299,154.163 699.784,154.163 
		857.485,379.637 823.5,379.637 687.415,154.163 675.557,154.163 672.873,123.315 	"/>
	<polygon fill-rule="evenodd" clip-rule="evenodd" fill="#F5F8FF" points="606.588,123.315 631.396,154.163 619.881,154.163 
		678.046,379.637 644.061,379.637 607.513,154.163 595.654,154.163 606.588,123.315 	"/>
</g>
</svg>
