<?xml version="1.0" encoding="utf-8"?>
<!-- Generator: Adobe Illustrator 14.0.0, SVG Export Plug-In . SVG Version: 6.00 Build 43363)  -->
<!DOCTYPE svg PUBLIC "-//W3C//DTD SVG 1.1//EN" "http://www.w3.org/Graphics/SVG/1.1/DTD/svg11.dtd">
<svg version="1.1" id="Vrstva_1" xmlns="http://www.w3.org/2000/svg" xmlns:xlink="http://www.w3.org/1999/xlink" x="0px" y="0px"
	 width="1136px" height="568px" viewBox="0 0 1136 568" enable-background="new 0 0 1136 568" xml:space="preserve">
<path fill="#373941" d="M1136,386.259v181.757H0l552-568h23.996l58.469,106.349c4.949-14.451,12.82-26.943,21.801-37.869
	c34.199-41.607,89.091-59.427,140.636-65.81c9.174-1.136,18.362-1.883,27.411-2.261c10.347-0.434,20.693-0.394,31.046-0.396
	L873.1,0.021c4.695-0.039,9.392-0.015,14.082-0.006c0.271,0,0.541,0,0.812,0l0,0l-5.499,0.196
	c-31.546,0.757-73.21,4.457-99.544,22.526c-12.713,8.723-22.557,20.913-24.743,37.766c-5.229,40.306,28.862,77.983,59.18,99.511
	L1136,386.259L1136,386.259z"/>
<path fill-rule="evenodd" clip-rule="evenodd" fill="#FFFFFF" d="M966.811,446.082l105.181,121.934h16L979.376,446.082H966.811
	L966.811,446.082z M553.996,0.016L64,568.016H48L553.996,0.016L553.996,0.016z M567.328,0.016l0.047,3.061h-0.086L567.328,0.016
	L567.328,0.016z M567.436,6.995l0.123,8.065h-0.424l0.104-8.065H567.436L567.436,6.995z M567.648,20.972l0.139,9.062h-0.846
	l0.117-9.062H567.648L567.648,20.972z M567.893,36.994l0.229,15h-1.464l0.193-15H567.893L567.893,36.994z M568.26,61.041
	l0.319,20.94h-2.309l0.271-20.94H568.26L568.26,61.041z M568.793,95.967l0.459,30.1h-3.551l0.389-30.1H568.793L568.793,95.967z
	 M569.587,147.996l0.836,54.814h-5.712l0.707-54.814H569.587L569.587,147.996z M571.096,246.855l1.527,100.104h-9.773l1.292-100.104
	H571.096L571.096,246.855z M574.135,446.082l1.861,121.934h-16l1.574-121.934H574.135L574.135,446.082z M560.662,0.016l-1.297,3.061
	h-0.087L560.662,0.016L560.662,0.016z M557.704,6.995l-3.417,8.065h-0.424l3.645-8.065H557.704L557.704,6.995z M551.782,20.972
	l-3.84,9.062h-0.845l4.094-9.062H551.782L551.782,20.972z M544.994,36.994l-6.356,15h-1.464l6.777-15H544.994L544.994,36.994z
	 M534.805,61.041l-8.873,20.94h-2.309l9.463-20.94H534.805L534.805,61.041z M520.006,95.967l-12.753,30.1h-3.551l13.601-30.1
	H520.006L520.006,95.967z M497.962,147.996l-23.225,54.814h-5.712l24.769-54.814H497.962L497.962,147.996z M456.075,246.855
	L413.66,346.959h-9.773l45.234-100.104H456.075L456.075,246.855z M371.661,446.082l-51.664,121.934h-16l55.098-121.934H371.661
	L371.661,446.082z M887.992,0.016L887.992,0.016L887.992,0.016L887.992,0.016L887.992,0.016L887.992,0.016L887.992,0.016z
	 M887.992,0.016L887.992,0.016L887.992,0.016h-0.002l0,0H887.992h-0.002H887.992L887.992,0.016L887.992,0.016L887.992,0.016z
	 M802.386,6.995c-0.955,0.219-1.908,0.445-2.859,0.678c-7.905,1.931-15.845,4.38-23.621,7.388h1.494
	c7.608-2.978,15.426-5.41,23.401-7.335c1.038-0.251,2.078-0.495,3.12-0.73H802.386L802.386,6.995z M762.356,20.972
	c-5.521,2.702-10.891,5.717-16.034,9.062h1.822c3.486-2.277,7.048-4.393,10.669-6.355c1.726-0.935,3.466-1.837,5.22-2.707H762.356
	L762.356,20.972z M736.58,36.994c-2.103,1.651-4.152,3.366-6.143,5.147c-3.428,3.068-6.879,6.354-10.154,9.853h1.639
	c3.005-3.238,6.172-6.271,9.335-9.079c2.325-2.063,4.702-4.037,7.126-5.921H736.58L736.58,36.994z M712.674,61.041
	c-3.711,4.993-6.852,10.337-8.99,16.021c-0.607,1.61-1.145,3.252-1.619,4.92h2.273c0.47-1.797,1.016-3.57,1.639-5.314
	c1.974-5.515,4.936-10.743,8.469-15.626H712.674L712.674,61.041z M699.604,95.967c-0.771,9.933,0.335,20.26,2.989,30.1h3.36
	c-2.944-9.789-4.332-20.089-3.773-30.1H699.604L699.604,95.967z M711.592,147.996c2.486,4.337,5.307,8.368,8.416,11.974
	l36.954,42.84h5.712l-38.306-43.003c-3.171-3.579-6.078-7.551-8.673-11.811H711.592L711.592,147.996z M887.99,0.016h-0.002l0,0l0,0
	H887.99L887.99,0.016z M887.988,0.016h-0.002h-0.002h0.002H887.988L887.988,0.016z M887.984,0.016L887.984,0.016h-0.002H887.984
	L887.984,0.016L887.984,0.016z M887.982,0.016L887.982,0.016L887.982,0.016L887.982,0.016z M887.981,0.016h-0.003H887.981
	L887.981,0.016z M887.979,0.016h-0.003H887.979L887.979,0.016z M887.976,0.016L887.976,0.016h-0.004h-0.004h-0.001h-0.003h-0.005
	h-0.002h-0.008h-0.01h-0.009h-0.001h-0.008h-0.001h-0.008h-0.001h-0.009h-0.001h-0.007h-0.001h-0.009h-0.001h-0.008l0,0h-0.009
	h-0.001h-0.008l0,0h-0.002l-0.444,0.002c-0.759,0.004-1.517,0.006-2.274,0.007c-0.771,0.002-1.546,0.002-2.316,0.006
	c-4.336,0.023-8.673,0.078-13.008,0.074c-1.52-0.001-3.04-0.012-4.56-0.01c-2.252,0.004-4.462,0.024-6.637,0.016
	c-4.887-0.02-9.592-0.072-14.122,0.06c-12.953,0.375-24.515,0.907-35,1.986c-10.491,1.08-21.089,2.773-31.627,5.196
	c-25.974,5.973-53.266,14.768-76.736,28.718c-35.829,21.297-59.994,55.375-61.223,98.36c-0.072,2.551-0.049,5.097,0.096,7.608
	L573.995,0.016l83.127,192.001h5.408l-14.439-32.039c-0.962-2.188-1.858-4.395-2.495-6.703c-0.695-2.52-1.191-5.15-1.574-7.845
	c-0.525-3.706-0.736-7.538-0.713-11.381c0.268-41.685,23.654-74.912,57.616-96.488c6.138-3.899,12.632-6.945,19.516-10.116
	c10.098-4.651,20.591-8.996,31.095-12.419c9.269-3.021,18.554-5.562,27.595-7.621c9.983-2.272,19.962-3.907,29.757-5.031
	c11.943-1.371,23.752-1.731,35.511-2.111c4.214-0.136,8.54-0.097,13.019-0.07c0.946,0.006,1.927,0.009,2.87,0.012
	c1.036,0.003,2.039,0.01,3.082-0.008c0.646-0.011,1.277-0.022,1.904-0.031c1.489-0.021,2.956-0.016,4.544-0.017
	c4.334-0.001,8.671-0.083,13.004-0.096l2.318-0.018l2.694-0.02l-0.42,0.008c-0.183,0.003-0.367,0.004-0.552,0.006
	c-0.561,0.007-1.135,0.015-1.715,0.025c-0.763,0.014-1.537,0.029-2.315,0.035c-2.603,0.021-5.237,0.089-7.439,0.111
	c-3.237,0.033-5.565,0.104-5.575,0.104c-3.508,0.044-7.011,0.119-10.521,0.239c-0.251,0.009-0.506,0.016-0.761,0.021
	c-9.506,0.184-19.35,0.923-28.683,1.91c-1.728,0.183-3.454,0.382-5.179,0.6h1.532c1.03-0.134,2.062-0.261,3.091-0.382
	c9.707-1.147,19.453-1.648,29.211-2.005c0.253-0.009,0.505-0.018,0.759-0.027c1.65-0.059,3.303-0.115,4.953-0.168
	c1.871-0.06,3.733-0.105,5.597-0.146c0.011,0,2.339-0.073,5.576-0.11c2.207-0.025,4.845-0.1,7.453-0.123
	c0.728-0.006,1.544-0.035,2.305-0.048c0.429-0.008,0.843-0.013,1.214-0.017c-0.396,0.012-0.797,0.026-1.201,0.039
	c-0.745,0.025-1.506,0.049-2.266,0.059c-2.625,0.033-5.271,0.128-7.49,0.168c-3.242,0.059-5.576,0.212-5.585,0.212
	c-4.29,0.173-8.574,0.39-12.86,0.719c-14.764,1.137-26.854,3.068-37.108,5.229c-12.369,2.605-22.151,6.194-30.116,10.158
	c-7.386,3.675-14.555,8.774-20.762,14.736c-14.892,14.302-22.743,31.697-19.637,52.733c0.481,3.261,1.161,6.502,2.02,9.711
	c6.675,24.95,26.347,50.675,46.471,66.163L1136,420.25v-8.917L802.62,160.19c-20.844-15.702-41.26-40.827-48.606-66.355
	c-0.941-3.271-1.699-6.601-2.253-9.986c-3.42-20.914,3.526-37.937,18.159-52.431c6.191-6.132,13.332-11.121,20.554-14.64
	c7.666-3.736,17.157-7.498,29.479-10.08c10.326-2.165,22.428-4.251,37.025-5.351c4.089-0.307,8.363-0.571,12.84-0.768
	c0.01,0,2.339-0.157,5.577-0.221c2.218-0.043,4.875-0.153,7.503-0.189c0.761-0.011,1.543-0.05,2.264-0.071
	c0.639-0.019,1.227-0.038,1.699-0.051l0.938-0.028h0.002l0.003,0l0.023,0h0.016l0.016-0.001l0,0h0.017l0,0l0.008,0l0.066-0.001
	h0.005l0.002,0h0.001v0H887.976h-0.019h0.01H887.976L887.976,0.016L887.976,0.016z M794.956,246.855l86.351,100.104h9.773
	l-89.171-100.104H794.956L794.956,246.855z"/>
</svg>
