<?xml version="1.0" encoding="utf-8"?>
<!-- Generator: Adobe Illustrator 14.0.0, SVG Export Plug-In . SVG Version: 6.00 Build 43363)  -->
<!DOCTYPE svg PUBLIC "-//W3C//DTD SVG 1.1//EN" "http://www.w3.org/Graphics/SVG/1.1/DTD/svg11.dtd">
<svg version="1.1" id="Vrstva_1" xmlns="http://www.w3.org/2000/svg" xmlns:xlink="http://www.w3.org/1999/xlink" x="0px" y="0px"
	 width="1136px" height="568px" viewBox="0 0 1136 568" enable-background="new 0 0 1136 568" xml:space="preserve">
<polygon fill="#373941" points="640.004,0 656.006,0 1136.01,473.338 1136.01,567.996 0.009,568 549.569,2.511 552.009,0 576.004,0 
	630.695,82.618 640.004,0 "/>
<path fill-rule="evenodd" clip-rule="evenodd" fill="#FFFFFF" d="M654.006,0l482.004,515.76v16.884L654.006,0L654.006,0z M648.004,0
	l1.338,3.061h0.086L648.004,0L648.004,0z M651.053,6.979l3.521,8.065h0.424l-3.75-8.065H651.053L651.053,6.979z M657.154,20.957
	l3.957,9.062h0.846l-4.213-9.062H657.154L657.154,20.957z M664.15,36.979l6.549,15h1.465l-6.973-15H664.15L664.15,36.979z
	 M674.648,61.025l9.145,20.94h2.309l-9.732-20.94H674.648L674.648,61.025z M689.898,95.952l13.143,30.1h3.551l-13.99-30.1H689.898
	L689.898,95.952z M712.615,147.98l23.932,54.814h5.713l-25.477-54.814H712.615L712.615,147.98z M755.779,246.84l43.707,100.104
	h9.771L762.732,246.84H755.779L755.779,246.84z M842.764,446.066L896.002,568h16L855.33,446.066H842.764L842.764,446.066z M560.68,0
	l-1.124,3.061h-0.086L560.68,0L560.68,0z M558.117,6.979l-2.964,8.065h-0.424l3.19-8.065H558.117L558.117,6.979z M552.981,20.957
	l-3.329,9.062h-0.846l3.584-9.062H552.981L552.981,20.957z M547.095,36.979l-5.511,15h-1.464l5.933-15H547.095L547.095,36.979z
	 M538.261,61.025l-7.693,20.94h-2.309l8.283-20.94H538.261L538.261,61.025z M525.429,95.952l-11.058,30.1h-3.551l11.907-30.1
	H525.429L525.429,95.952z M506.315,147.98l-20.138,54.814h-5.712l21.682-54.814H506.315L506.315,147.98z M469.996,246.84
	l-36.777,100.104h-9.773l39.596-100.104H469.996L469.996,246.84z M396.803,446.066L352.006,568h-16l48.231-121.934H396.803
	L396.803,446.066z M567.339,0l0.349,3.061h-0.086L567.339,0L567.339,0z M568.134,6.979l0.918,8.065h-0.424l-0.69-8.065H568.134
	L568.134,6.979z M569.727,20.957l1.031,9.062h-0.846l-0.777-9.062H569.727L569.727,20.957z M571.551,36.979l1.707,15h-1.465
	l-1.285-15H571.551L571.551,36.979z M574.287,61.025l2.385,20.94h-2.309l-1.795-20.94H574.287L574.287,61.025z M578.264,95.952
	l3.426,30.1h-3.549l-2.58-30.1H578.264L578.264,95.952z M584.188,147.98l6.24,54.814h-5.713l-4.697-54.814H584.188L584.188,147.98z
	 M595.441,246.84l11.396,100.104h-9.773l-8.576-100.104H595.441L595.441,246.84z M618.123,446.066L632.004,568h-16l-10.447-121.934
	H618.123L618.123,446.066z M554.005,0L64.009,568h-16L554.005,0L554.005,0z M642.004,0l-3.516,110.982L574.01,0l64.309,116.331
	h3.277L642.004,0L642.004,0z"/>
</svg>
