<?xml version="1.0" encoding="utf-8"?>
<!-- Generator: Adobe Illustrator 14.0.0, SVG Export Plug-In . SVG Version: 6.00 Build 43363)  -->
<!DOCTYPE svg PUBLIC "-//W3C//DTD SVG 1.1//EN" "http://www.w3.org/Graphics/SVG/1.1/DTD/svg11.dtd">
<svg version="1.1" id="Vrstva_1" xmlns="http://www.w3.org/2000/svg" xmlns:xlink="http://www.w3.org/1999/xlink" x="0px" y="0px"
	 width="1136px" height="568px" viewBox="0 0 1136 568" enable-background="new 0 0 1136 568" xml:space="preserve">
<path fill="#0080FF" d="M465.997,0l-66.008,568h136.002V189.346L475.996,0.002L469.054,0H465.997L465.997,0z M451.997,0L103.99,568
	h200L461.996,0.002L451.997,0L451.997,0z"/>
<g>
	<path opacity="0.1" fill-rule="evenodd" clip-rule="evenodd" d="M408.443,166.565l2.902,6.322h-17.391l-87.23,234.983h-51.326
		l4.017-7.874h44.102l89.005-233.431H408.443L408.443,166.565z M363.734,172.887h-6.37l8.16-6.322h1.62L363.734,172.887
		L363.734,172.887z"/>
	<path opacity="0.1" fill-rule="evenodd" clip-rule="evenodd" d="M511.03,166.565l5.455,6.322h-17.391l8.524,234.983h-51.326
		l0.808-7.874h47.05v-20.359h0.013l-8.523-225.474l0.469,12.402H511.03L511.03,166.565z M474.958,172.887h-12.453l5.608-6.322h7.521
		l1.032-9.641L474.958,172.887L474.958,172.887z"/>
	<path fill-rule="evenodd" clip-rule="evenodd" fill="#265385" d="M355.928,154.163h17.908l-6.691,12.402h-11.22L355.928,154.163
		L355.928,154.163z M392.522,154.163h17.384v12.402h-17.384l-89.005,233.431h-51.313v-20.359h51.311l89.001-225.474H392.522
		L392.522,154.163z"/>
	<path fill-rule="evenodd" clip-rule="evenodd" fill="#265385" d="M452.838,379.633L452.838,379.633v0.004V379.633L452.838,379.633z
		 M504.151,379.637v20.359h-51.313v-20.359H504.151L504.151,379.637z M459.052,154.163h17.909l-1.327,12.402H459.05L459.052,154.163
		L459.052,154.163z M495.641,154.163h17.391v12.402H496.11L495.641,154.163L495.641,154.163z"/>
	<polygon fill-rule="evenodd" clip-rule="evenodd" fill="#F5F8FF" points="396.633,123.315 409.906,154.163 392.516,154.163 
		303.515,379.637 252.188,379.637 373.836,154.163 355.926,154.163 396.633,123.315 	"/>
	<polygon fill-rule="evenodd" clip-rule="evenodd" fill="#F5F8FF" points="486.416,123.315 513.031,154.163 495.641,154.163 
		504.164,379.637 452.838,379.637 476.961,154.163 459.051,154.163 486.416,123.315 	"/>
</g>
</svg>
