<?xml version="1.0" encoding="utf-8"?>
<!-- Generator: Adobe Illustrator 14.0.0, SVG Export Plug-In . SVG Version: 6.00 Build 43363)  -->
<!DOCTYPE svg PUBLIC "-//W3C//DTD SVG 1.1//EN" "http://www.w3.org/Graphics/SVG/1.1/DTD/svg11.dtd">
<svg version="1.1" id="Vrstva_1" xmlns="http://www.w3.org/2000/svg" xmlns:xlink="http://www.w3.org/1999/xlink" x="0px" y="0px"
	 width="1136px" height="568px" viewBox="0 0 1136 568" enable-background="new 0 0 1136 568" xml:space="preserve">
<path fill="#0080FF" d="M652.006,0L1128,567.994l-175.998,0.002L650.023,0H652.006L652.006,0z M646.004,0l209.998,567.994
	l-175.998,0.002L644.004,0H646.004L646.004,0z"/>
<g>
	<polygon opacity="0.1" fill-rule="evenodd" clip-rule="evenodd" points="750.096,142.019 752.436,172.866 763.789,172.866 
		909.004,407.997 942.51,407.997 936.848,400 910.053,400 764.416,167.298 752.996,167.298 750.301,142.188 750.096,142.019 	"/>
	<path fill-rule="evenodd" clip-rule="evenodd" fill="#265385" d="M943.568,379.637h-24.188h-9.32L764.357,154.163h-11.352
		l-3.32-30.847v13.136l3.311,30.847h11.42L910.053,400h33.516V379.637L943.568,379.637z M786.283,167.298h1.963l-0.025-13.136
		h-11.668L786.283,167.298L786.283,167.298z"/>
	<polygon fill-rule="evenodd" clip-rule="evenodd" fill="#F5F8FF" points="749.686,123.315 753.006,154.163 764.357,154.163 
		910.061,379.637 943.568,379.637 776.553,154.163 788.246,154.163 749.686,123.315 	"/>
	<path opacity="0.1" fill-rule="evenodd" clip-rule="evenodd" d="M666.953,167.298l-2.17,5.567h11.352l35.701,235.131h33.508
		L743.404,400h-29.031L677.66,167.298H666.953L666.953,167.298z M694.734,172.866h5.287l-4.189-5.567h-2.529L694.734,172.866
		L694.734,172.866z"/>
	<path fill-rule="evenodd" clip-rule="evenodd" fill="#265385" d="M747.889,379.637h-25.025h-8.482l-36.65-225.474h-0.07h-11.281
		v13.136h11.281L714.373,400h33.516V379.637L747.889,379.637z M693.303,167.298h8.324l-0.023-13.136h-11.678L693.303,167.298
		L693.303,167.298z"/>
	<polygon fill-rule="evenodd" clip-rule="evenodd" fill="#F5F8FF" points="677.979,123.315 666.379,154.163 677.73,154.163 
		714.381,379.637 747.889,379.637 689.926,154.163 701.617,154.163 677.979,123.315 	"/>
</g>
</svg>
