<?xml version="1.0" encoding="utf-8"?>
<!-- Generator: Adobe Illustrator 14.0.0, SVG Export Plug-In . SVG Version: 6.00 Build 43363)  -->
<!DOCTYPE svg PUBLIC "-//W3C//DTD SVG 1.1//EN" "http://www.w3.org/Graphics/SVG/1.1/DTD/svg11.dtd">
<svg version="1.1" id="Vrstva_1" xmlns="http://www.w3.org/2000/svg" xmlns:xlink="http://www.w3.org/1999/xlink" x="0px" y="0px"
	 width="1136px" height="568px" viewBox="0 0 1136 568" enable-background="new 0 0 1136 568" xml:space="preserve">
<polygon fill="#373941" points="0,568 447.997,0 479.996,0 567.996,160 655.994,0 687.994,0 1135.991,567.996 0,568 "/>
<path fill-rule="evenodd" clip-rule="evenodd" fill="#FFFFFF" d="M449.997,0L64,568H48L449.997,0L449.997,0z M671.994,0l0.561,3.061
	h0.086L671.994,0L671.994,0z M673.272,6.979l1.478,8.065h0.423l-1.704-8.065H673.272L673.272,6.979z M675.832,20.957l1.659,9.062
	h0.845l-1.914-9.062H675.832L675.832,20.957z M678.766,36.979l2.746,15h1.464l-3.169-15H678.766L678.766,36.979z M683.168,61.025
	l3.834,20.94h2.309l-4.424-20.94H683.168L683.168,61.025z M689.563,95.952l5.511,30.1h3.551l-6.359-30.1H689.563L689.563,95.952z
	 M699.09,147.98l10.035,54.814h5.713l-11.58-54.814H699.09L699.09,147.98z M717.19,246.84l18.329,100.104h9.772L724.144,246.84
	H717.19L717.19,246.84z M753.668,446.066L775.994,568h16l-25.761-121.934H753.668L753.668,446.066z M463.996,0l-0.56,3.061h-0.086
	L463.996,0L463.996,0z M462.718,6.979l-1.477,8.065h-0.424l1.704-8.065H462.718L462.718,6.979z M460.159,20.957l-1.659,9.062h-0.846
	l1.915-9.062H460.159L460.159,20.957z M457.226,36.979l-2.746,15h-1.464l3.169-15H457.226L457.226,36.979z M452.823,61.025
	l-3.834,20.94h-2.309l4.424-20.94H452.823L452.823,61.025z M446.428,95.952l-5.511,30.1h-3.551l6.359-30.1H446.428L446.428,95.952z
	 M436.902,147.98l-10.037,54.814h-5.712l11.581-54.814H436.902L436.902,147.98z M418.801,246.84l-18.329,100.104h-9.773
	l21.148-100.104H418.801L418.801,246.84z M382.323,446.066L359.997,568h-16l25.761-121.934H382.323L382.323,446.066z
	 M571.473,246.84l1.41,100.104h-9.773l1.41-100.104H571.473L571.473,246.84z M574.278,446.066L575.996,568h-16l1.717-121.934
	H574.278L574.278,446.066z M570.662,189.333l0.189,13.461h-5.712l0.189-13.461l0,0L477.996,0l90,183.765L657.995,0L570.662,189.333
	L570.662,189.333z M685.994,0l385.997,568h16L685.994,0L685.994,0z"/>
</svg>
