<?xml version="1.0" encoding="utf-8"?>
<!-- Generator: Adobe Illustrator 14.0.0, SVG Export Plug-In . SVG Version: 6.00 Build 43363)  -->
<!DOCTYPE svg PUBLIC "-//W3C//DTD SVG 1.1//EN" "http://www.w3.org/Graphics/SVG/1.1/DTD/svg11.dtd">
<svg version="1.1" id="Vrstva_1" xmlns="http://www.w3.org/2000/svg" xmlns:xlink="http://www.w3.org/1999/xlink" x="0px" y="0px"
	 width="1136px" height="568px" viewBox="0 0 1136 568" enable-background="new 0 0 1136 568" xml:space="preserve">
<path fill="#0080FF" d="M683.994,0l-10,0.002L831.984,568h199.997L683.994,0L683.994,0z M669.994,0l-9.999,0.002l-60.004,189.344
	V568h135.994L669.994,0L669.994,0z"/>
<g>
	<path opacity="0.1" fill-rule="evenodd" clip-rule="evenodd" d="M727.646,166.565l-2.902,6.322h17.391l87.229,234.983h51.326
		l-4.017-7.874h-44.102l-89.005-233.431H727.646L727.646,166.565z M772.354,172.887h6.37l-8.16-6.322h-1.62L772.354,172.887
		L772.354,172.887z"/>
	<path opacity="0.1" fill-rule="evenodd" clip-rule="evenodd" d="M625.058,166.565l-5.454,6.322h17.39l-8.524,234.983h51.326
		l-0.808-7.874h-47.05v-20.359h-0.014l8.523-225.474l-0.469,12.402H625.058L625.058,166.565z M661.131,172.887h12.453l-5.608-6.322
		h-7.521l-1.031-9.641L661.131,172.887L661.131,172.887z"/>
	<path fill-rule="evenodd" clip-rule="evenodd" fill="#265385" d="M780.16,154.163h-17.908l6.691,12.402h11.22L780.16,154.163
		L780.16,154.163z M743.566,154.163h-17.385v12.402h17.385l89.005,233.431h51.313v-20.359h-51.312l-89.001-225.474H743.566
		L743.566,154.163z"/>
	<path fill-rule="evenodd" clip-rule="evenodd" fill="#265385" d="M683.25,379.633L683.25,379.633v0.004V379.633L683.25,379.633z
		 M631.938,379.637v20.359h51.313v-20.359H631.938L631.938,379.637z M677.035,154.163h-17.908l1.327,12.402h16.584L677.035,154.163
		L677.035,154.163z M640.447,154.163h-17.391v12.402h16.922L640.447,154.163L640.447,154.163z"/>
	<polygon fill-rule="evenodd" clip-rule="evenodd" fill="#F5F8FF" points="739.455,123.315 726.182,154.163 743.572,154.163 
		832.573,379.637 883.899,379.637 762.252,154.163 780.162,154.163 739.455,123.315 	"/>
	<polygon fill-rule="evenodd" clip-rule="evenodd" fill="#F5F8FF" points="649.673,123.315 623.057,154.163 640.447,154.163 
		631.924,379.637 683.25,379.637 659.127,154.163 677.037,154.163 649.673,123.315 	"/>
</g>
</svg>
