<?xml version="1.0" encoding="utf-8"?>
<!-- Generator: Adobe Illustrator 14.0.0, SVG Export Plug-In . SVG Version: 6.00 Build 43363)  -->
<!DOCTYPE svg PUBLIC "-//W3C//DTD SVG 1.1//EN" "http://www.w3.org/Graphics/SVG/1.1/DTD/svg11.dtd">
<svg version="1.1" id="Vrstva_1" xmlns="http://www.w3.org/2000/svg" xmlns:xlink="http://www.w3.org/1999/xlink" x="0px" y="0px"
	 width="1136px" height="568px" viewBox="0 0 1136 568" enable-background="new 0 0 1136 568" xml:space="preserve">
<path fill="#0080FF" d="M793.163,12.535c-13.828,6.3-23.782,14.77-33.672,25.888c-14.765,16.599-19.125,40.158-14.585,61.451
	c4.251,19.933,15.84,37.307,30.307,51.306c3.073,2.974,6.405,5.928,10.012,8.855L1136,444.689v123.342h-8.01L737.275,160.035
	c-2.53-2.642-4.891-5.512-7.063-8.569c-2.313-3.254-4.415-6.718-6.284-10.344c-17.187-33.33-14.154-73.623,14.271-99.542
	c3.365-3.069,6.984-5.928,10.793-8.588C762.245,23.735,777.519,16.564,793.163,12.535L793.163,12.535z"/>
<g>
	<polygon opacity="0.1" fill-rule="evenodd" clip-rule="evenodd" points="737.09,142.054 751.094,172.901 763.393,172.901 
		996.803,407.916 1034.404,407.916 1025.76,400.035 999.261,400.035 763.223,167.333 750.85,167.333 740.086,143.825 
		737.09,142.054 	"/>
	<path fill-rule="evenodd" clip-rule="evenodd" fill="#265385" d="M999.261,400.035L763.223,167.333H750.85l-14.291-31.211v-12.769
		l14.3,30.844h12.3l236.104,225.474h36.303v20.363H999.261L999.261,400.035z M789.035,154.198v11.017l-12.664-11.017H789.035
		L789.035,154.198z M1035.564,379.672L1035.564,379.672L1035.564,379.672L1035.564,379.672L1035.564,379.672z"/>
	<polygon fill-rule="evenodd" clip-rule="evenodd" fill="#F5F8FF" points="736.558,123.351 750.858,154.198 763.158,154.198 
		999.262,379.672 1035.564,379.672 776.371,154.198 789.039,154.198 736.558,123.351 	"/>
</g>
</svg>
