<?xml version="1.0" encoding="utf-8"?>
<!-- Generator: Adobe Illustrator 14.0.0, SVG Export Plug-In . SVG Version: 6.00 Build 43363)  -->
<!DOCTYPE svg PUBLIC "-//W3C//DTD SVG 1.1//EN" "http://www.w3.org/Graphics/SVG/1.1/DTD/svg11.dtd">
<svg version="1.1" id="Vrstva_1" xmlns="http://www.w3.org/2000/svg" xmlns:xlink="http://www.w3.org/1999/xlink" x="0px" y="0px"
	 width="1136px" height="568px" viewBox="0 0 1136 568" enable-background="new 0 0 1136 568" xml:space="preserve">
<polygon fill="#373941" points="647.995,0 655.994,0 655.996,0 1136,370.438 1136,567.996 0,568 552,0 559.996,0 583.995,0 
	713.875,133.642 647.995,0 "/>
<path fill-rule="evenodd" clip-rule="evenodd" fill="#FFFFFF" d="M553.996,0L64,568H48L553.996,0L553.996,0z M653.994,0
	L1136,396.784v9.419L653.994,0L653.994,0z M649.995,0l139.689,231.998h-7.552L581.995,0l191.158,214.583L649.995,0L649.995,0z
	 M801.89,246.84l89.177,100.104h-9.773L794.936,246.84H801.89L801.89,246.84z M979.369,446.066L1087.991,568h-16L966.803,446.066
	H979.369L979.369,446.066z M574.996,0l1.385,3.061h-0.087L574.996,0L574.996,0z M578.153,6.979l3.649,8.065h-0.424l-3.422-8.065
	H578.153L578.153,6.979z M584.478,20.957l4.101,9.062h-0.846l-3.846-9.062H584.478L584.478,20.957z M591.727,36.979l6.787,15h-1.465
	l-6.363-15H591.727L591.727,36.979z M602.607,61.025l9.475,20.94h-2.309l-8.885-20.94H602.607L602.607,61.025z M618.41,95.952
	l13.619,30.1h-3.551l-12.771-30.1H618.41L618.41,95.952z M641.951,147.98l24.801,54.814h-5.713l-23.257-54.814H641.951
	L641.951,147.98z M686.681,246.84l45.294,100.104h-9.773L679.728,246.84H686.681L686.681,246.84z M776.823,446.066L831.993,568h-16
	l-51.735-121.934H776.823L776.823,446.066z M567.996,0l0.043,3.061h-0.086L567.996,0L567.996,0z M568.094,6.979l0.114,8.065h-0.425
	l0.114-8.065H568.094L568.094,6.979z M568.291,20.957l0.128,9.062h-0.847l0.129-9.062H568.291L568.291,20.957z M568.517,36.979
	l0.212,15h-1.465l0.211-15H568.517L568.517,36.979z M568.855,61.025l0.295,20.94h-2.309l0.295-20.94H568.855L568.855,61.025z
	 M569.348,95.952l0.424,30.1h-3.551l0.424-30.1H569.348L569.348,95.952z M570.08,147.98l0.771,54.814h-5.713l0.773-54.814H570.08
	L570.08,147.98z M571.473,246.84l1.41,100.104h-9.773l1.41-100.104H571.473L571.473,246.84z M574.278,446.066L575.996,568h-16
	l1.717-121.934H574.278L574.278,446.066z M560.994,0l-1.299,3.061h-0.086L560.994,0L560.994,0z M558.033,6.979l-3.422,8.065h-0.424
	l3.649-8.065H558.033L558.033,6.979z M552.103,20.957l-3.845,9.062h-0.846l4.101-9.062H552.103L552.103,20.957z M545.305,36.979
	l-6.364,15h-1.464l6.786-15H545.305L545.305,36.979z M535.102,61.025l-8.885,20.94h-2.309l9.475-20.94H535.102L535.102,61.025z
	 M520.283,95.952l-12.771,30.1h-3.551l13.619-30.1H520.283L520.283,95.952z M498.208,147.98l-23.257,54.814h-5.713l24.801-54.814
	H498.208L498.208,147.98z M456.263,246.84L413.79,346.943h-9.773L449.31,246.84H456.263L456.263,246.84z M371.733,446.066
	L319.998,568h-16l55.17-121.934H371.733L371.733,446.066z"/>
</svg>
