<?xml version="1.0" encoding="utf-8"?>
<!-- Generator: Adobe Illustrator 14.0.0, SVG Export Plug-In . SVG Version: 6.00 Build 43363)  -->
<!DOCTYPE svg PUBLIC "-//W3C//DTD SVG 1.1//EN" "http://www.w3.org/Graphics/SVG/1.1/DTD/svg11.dtd">
<svg version="1.1" id="Vrstva_1" xmlns="http://www.w3.org/2000/svg" xmlns:xlink="http://www.w3.org/1999/xlink" x="0px" y="0px"
	 width="1136px" height="568px" viewBox="0 0 1136 568" enable-background="new 0 0 1136 568" xml:space="preserve">
<path fill="#0080FF" d="M576.995,0.029h3.008l451.989,568l-160,0.002L576.995,0.029L576.995,0.029z M569.996,0.029h2.999
	l202.999,568l-160,0.002L569.996,0.029L569.996,0.029z M565.995,0.035h-3l-202.998,568l160,0.001L565.995,0.035L565.995,0.035z
	 M558.994,0.034h-3.006l-451.989,568l160,0.001L558.994,0.034L558.994,0.034z"/>
<g>
	<path opacity="0.1" fill-rule="evenodd" clip-rule="evenodd" d="M543.926,167.333l2.085,5.567h-12.3l-38.704,235.015h-37.602
		l2.116-7.881h32.922l39.914-232.702H543.926L543.926,167.333z M513.95,172.901h-6.12l4.806-5.567h2.87L513.95,172.901
		L513.95,172.901z M516.882,162.415L516.882,162.415l-0.796,2.85L516.882,162.415L516.882,162.415z"/>
	<polygon opacity="0.1" fill-rule="evenodd" clip-rule="evenodd" points="463.899,142.054 462.908,172.901 450.607,172.901 
		316.328,407.916 278.726,407.916 284.047,400.035 311.924,400.035 450.714,167.333 463.05,167.333 463.05,154.197 463.045,154.197 
		463.423,142.429 463.899,142.054 	"/>
	<path fill-rule="evenodd" clip-rule="evenodd" fill="#265385" d="M424.865,154.197L424.865,154.197L424.865,154.197
		L424.865,154.197L424.865,154.197z M463.045,154.197h0.005v13.136h-12.336l-138.79,232.702H275.62v-20.363h36.302l138.823-225.474
		L463.045,154.197L463.045,154.197L463.045,154.197z M428.1,167.333h-3.234v-13.136h12.667L428.1,167.333L428.1,167.333z"/>
	<polygon fill-rule="evenodd" clip-rule="evenodd" fill="#F5F8FF" points="464.037,123.351 463.045,154.198 450.745,154.198 
		311.922,379.672 275.62,379.672 437.533,154.198 424.865,154.198 464.037,123.351 	"/>
	<path fill-rule="evenodd" clip-rule="evenodd" fill="#265385" d="M456.139,400.035v-20.363h0h0l0,0h36.303l39.95-225.474h12.3
		v13.136h-12.334l-39.914,232.702H456.139L456.139,400.035z M515.507,167.333h-9v-13.136h0.006l0,0h12.668L515.507,167.333
		L515.507,167.333z M544.691,154.197L544.691,154.197L544.691,154.197L544.691,154.197L544.691,154.197z"/>
	<polygon fill-rule="evenodd" clip-rule="evenodd" fill="#F5F8FF" points="532.157,123.351 544.691,154.198 532.392,154.198 
		492.441,379.672 456.139,379.672 519.18,154.198 506.512,154.198 532.157,123.351 	"/>
	<path opacity="0.1" fill-rule="evenodd" clip-rule="evenodd" d="M591.984,167.333l-2.086,5.567h12.301l38.703,235.015h37.602
		l-2.115-7.881h-32.922l-39.915-232.702H591.984L591.984,167.333z M621.959,172.901h6.12l-4.806-5.567h-2.871L621.959,172.901
		L621.959,172.901z M619.027,162.415L619.027,162.415l0.797,2.85L619.027,162.415L619.027,162.415z"/>
	<polygon opacity="0.1" fill-rule="evenodd" clip-rule="evenodd" points="671.309,142.054 672.301,172.901 684.602,172.901 
		818.881,407.916 856.482,407.916 851.162,400.035 823.284,400.035 684.494,167.333 672.158,167.333 672.158,154.197 
		672.164,154.197 671.785,142.429 671.309,142.054 	"/>
	<path fill-rule="evenodd" clip-rule="evenodd" fill="#265385" d="M710.344,154.197L710.344,154.197L710.344,154.197
		L710.344,154.197L710.344,154.197z M672.164,154.197h-0.006v13.136h12.336l138.79,232.702h36.305v-20.363h-36.303L684.464,154.198
		L672.164,154.197L672.164,154.197L672.164,154.197z M707.109,167.333h3.234v-13.136h-12.668L707.109,167.333L707.109,167.333z"/>
	<polygon fill-rule="evenodd" clip-rule="evenodd" fill="#F5F8FF" points="671.172,123.351 672.164,154.198 684.464,154.198 
		823.286,379.672 859.589,379.672 697.676,154.198 710.344,154.198 671.172,123.351 	"/>
	<path fill-rule="evenodd" clip-rule="evenodd" fill="#265385" d="M679.771,400.035v-20.363l0,0l0,0l0,0h-36.303l-39.95-225.474
		h-12.3v13.136h12.334l39.915,232.702H679.771L679.771,400.035z M620.402,167.333h9v-13.136h-0.006l0.001,0H616.73L620.402,167.333
		L620.402,167.333z M591.218,154.197L591.218,154.197L591.218,154.197L591.218,154.197L591.218,154.197z"/>
	<polygon fill-rule="evenodd" clip-rule="evenodd" fill="#F5F8FF" points="603.752,123.351 591.218,154.198 603.518,154.198 
		643.468,379.672 679.771,379.672 616.73,154.198 629.397,154.198 603.752,123.351 	"/>
</g>
</svg>
