<?xml version="1.0" encoding="utf-8"?>
<!-- Generator: Adobe Illustrator 14.0.0, SVG Export Plug-In . SVG Version: 6.00 Build 43363)  -->
<!DOCTYPE svg PUBLIC "-//W3C//DTD SVG 1.1//EN" "http://www.w3.org/Graphics/SVG/1.1/DTD/svg11.dtd">
<svg version="1.1" id="Vrstva_1" xmlns="http://www.w3.org/2000/svg" xmlns:xlink="http://www.w3.org/1999/xlink" x="0px" y="0px"
	 width="1136px" height="568px" viewBox="0 0 1136 568" enable-background="new 0 0 1136 568" xml:space="preserve">
<polygon fill="#0080FF" points="652.994,0 1136,426.67 1136,567.996 1119.991,567.996 807.993,231.998 650.995,0 652.994,0 "/>
<g>
	<polygon opacity="0.1" fill-rule="evenodd" clip-rule="evenodd" points="770.641,142.022 774.785,144.616 784.088,167.298 
		796.695,167.298 1013.697,400 1038.132,400 1046.246,407.996 1009.943,407.996 794.427,172.87 781.759,172.87 770.641,142.022 	"/>
	<path fill-rule="evenodd" clip-rule="evenodd" fill="#265385" d="M1049.988,379.637h-2.969h-33.334L796.761,154.163h-12.668
		l-12.627-30.775l-0.029,13.063l12.651,30.847h12.607L1013.697,400h36.291V379.637L1049.988,379.637z M822.272,165.717v-11.555
		h-12.3L822.272,165.717L822.272,165.717z M771.607,123.419l-0.142-0.104v0.019L771.607,123.419L771.607,123.419z"/>
	<polygon fill-rule="evenodd" clip-rule="evenodd" fill="#F5F8FF" points="771.437,123.315 822.272,154.163 809.973,154.163 
		1049.988,379.637 1013.686,379.637 796.761,154.163 784.093,154.163 771.437,123.315 	"/>
</g>
</svg>
