<?xml version="1.0" encoding="utf-8"?>
<!-- Generator: Adobe Illustrator 14.0.0, SVG Export Plug-In . SVG Version: 6.00 Build 43363)  -->
<!DOCTYPE svg PUBLIC "-//W3C//DTD SVG 1.1//EN" "http://www.w3.org/Graphics/SVG/1.1/DTD/svg11.dtd">
<svg version="1.1" id="Vrstva_1" xmlns="http://www.w3.org/2000/svg" xmlns:xlink="http://www.w3.org/1999/xlink" x="0px" y="0px"
	 width="1136px" height="568px" viewBox="0 0 1136 568" enable-background="new 0 0 1136 568" xml:space="preserve">
<path fill="#0080FF" d="M579.995,0l459.997,567.994l-175.999,0.002L576.996,0H579.995L579.995,0z M572.996,0h-3.001l38,568
	l175.999,0.001L572.996,0L572.996,0z M565.994,0h-2.998L351.997,568l175.999,0.001L565.994,0L565.994,0z M555.984,0L95.999,567.999
	L271.998,568L558.996,0H555.984L555.984,0z"/>
<g>
	<polygon opacity="0.1" fill-rule="evenodd" clip-rule="evenodd" points="465.582,142.022 465.733,172.87 453.433,172.87 
		317.425,407.996 281.122,407.996 286.533,400 312.914,400 450.197,167.298 462.604,167.298 463.02,144.102 465.582,142.022 	"/>
	<path opacity="0.1" fill-rule="evenodd" clip-rule="evenodd" d="M542.697,165.475l3.112,7.395h-12.3l-38.162,235.126h-36.303
		l2.083-7.996h30.086l39.205-232.702h12.277V165.475L542.697,165.475z M512.019,172.87h-4.389l4.55-5.571h1.377L512.019,172.87
		L512.019,172.87z"/>
	<path fill-rule="evenodd" clip-rule="evenodd" fill="#265385" d="M276.623,379.637V400h36.291l137.284-232.702h12.406l0.789-43.983
		l-0.794,30.847h-6.784h-5.516L312.925,379.637H276.623L276.623,379.637z M435.717,154.163h-11.269l-0.03,13.136h3.319l9.349-13.136
		H435.717L435.717,154.163z"/>
	<path opacity="0.1" fill-rule="evenodd" clip-rule="evenodd" d="M623.425,167.298l4.675,5.571h-3.44l-1.505-5.571H623.425
		L623.425,167.298z M673.859,400l2.045,7.996h-36.304L602.587,172.87h-12.668l3.927-9.847l-0.01,4.275h12.355L644.236,400H673.859
		L673.859,400z"/>
	<path fill-rule="evenodd" clip-rule="evenodd" fill="#265385" d="M454.923,379.637V400h36.292l39.205-232.702h12.277v-13.136
		H530.42h-0.023l-39.17,225.474H454.923L454.923,379.637z M517.184,154.163h-12.643l-0.03,13.136h9.045L517.184,154.163
		L517.184,154.163z"/>
	<polygon opacity="0.1" fill-rule="evenodd" clip-rule="evenodd" points="669.111,142.022 670.894,143.426 672.402,167.298 
		685.051,167.298 823.789,400 851.922,400 857.412,407.996 821.109,407.996 682.771,172.87 670.104,172.87 669.111,142.022 	"/>
	<path fill-rule="evenodd" clip-rule="evenodd" fill="#265385" d="M680.527,379.637h-2.969h-33.334l-37.832-225.474h-0.201h-12.326
		l-0.029,13.136h12.355L644.236,400h36.291V379.637L680.527,379.637z M623.154,167.298h8.867v-13.136h-0.117h-12.3L623.154,167.298
		L623.154,167.298z"/>
	<path fill-rule="evenodd" clip-rule="evenodd" fill="#265385" d="M860.08,379.637h-2.968h-33.334L685.075,154.163h-12.667
		l-1.927-30.394l-0.028,12.682l1.949,30.847h12.648L823.789,400h36.291V379.637L860.08,379.637z M707.713,167.298h2.875v-13.136
		h-12.301L707.713,167.298L707.713,167.298z M670.52,123.367l-0.037-0.052v0.023L670.52,123.367L670.52,123.367z"/>
	<polygon fill-rule="evenodd" clip-rule="evenodd" fill="#F5F8FF" points="463.392,123.315 462.598,154.163 450.298,154.163 
		312.925,379.637 276.623,379.637 437.086,154.163 424.418,154.163 463.392,123.315 	"/>
	<polygon fill-rule="evenodd" clip-rule="evenodd" fill="#F5F8FF" points="530.055,123.315 542.697,154.163 530.396,154.163 
		491.226,379.637 454.923,379.637 517.184,154.163 504.517,154.163 530.055,123.315 	"/>
	<polygon fill-rule="evenodd" clip-rule="evenodd" fill="#F5F8FF" points="605.57,123.315 631.904,154.163 619.604,154.163 
		680.527,379.637 644.225,379.637 606.393,154.163 593.725,154.163 605.57,123.315 	"/>
	<polygon fill-rule="evenodd" clip-rule="evenodd" fill="#F5F8FF" points="670.453,123.315 710.588,154.163 698.287,154.163 
		860.08,379.637 823.778,379.637 685.075,154.163 672.408,154.163 670.453,123.315 	"/>
</g>
</svg>
