<?xml version="1.0" encoding="utf-8"?>
<!-- Generator: Adobe Illustrator 14.0.0, SVG Export Plug-In . SVG Version: 6.00 Build 43363)  -->
<!DOCTYPE svg PUBLIC "-//W3C//DTD SVG 1.1//EN" "http://www.w3.org/Graphics/SVG/1.1/DTD/svg11.dtd">
<svg version="1.1" id="Vrstva_1" xmlns="http://www.w3.org/2000/svg" xmlns:xlink="http://www.w3.org/1999/xlink" x="0px" y="0px"
	 width="1136px" height="568px" viewBox="0 0 1136 568" enable-background="new 0 0 1136 568" xml:space="preserve">
<path fill="#373941" d="M1136,386.278v181.757H0l552-568h32l107.936,110.873c-0.051-18.877,5.885-36.88,17.611-51.694
	c19.707-24.891,52.034-41.712,81.094-49.91c36.822-10.387,75.417-9.269,113.353-9.269c-31.092,0-88.078,0.103-121.043,22.722
	c-12.713,8.723-22.557,20.913-24.743,37.766c-5.229,40.306,28.862,77.983,59.18,99.511L1136,386.278L1136,386.278z"/>
<path fill-rule="evenodd" clip-rule="evenodd" fill="#FFFFFF" d="M903.993,0.035c-8.857-0.071-17.089-0.009-24.744,0.176
	c-8.045,0.195-15.454,0.528-22.288,1.054c-14.764,1.137-26.854,3.068-37.108,5.229c-12.369,2.605-22.151,6.194-30.116,10.158
	c-7.386,3.675-14.555,8.774-20.762,14.736c-14.892,14.302-22.743,31.697-19.637,52.733c0.481,3.261,1.161,6.502,2.02,9.711
	c6.675,24.95,26.347,50.675,46.471,66.163L1136,420.27v-8.917L802.62,160.21c-20.844-15.702-41.26-40.827-48.606-66.355
	c-0.941-3.271-1.699-6.601-2.253-9.986c-3.42-20.914,3.526-37.937,18.159-52.431c6.191-6.132,13.332-11.121,20.554-14.64
	c7.666-3.736,17.157-7.498,29.479-10.08c10.326-2.165,22.428-4.251,37.025-5.35c6.869-0.517,14.265-0.901,22.26-1.08
	c0.964-0.021,1.937-0.06,2.917-0.076c1.556-0.025,3.134-0.087,4.733-0.102c2.117-0.018,4.299-0.043,6.49-0.046
	C896.836,0.059,898.129,0.035,903.993,0.035L903.993,0.035z M581.995,0.035l137.761,159.663l0.035,0.041l0.103,0.118l37.068,42.972
	h5.712l-38.306-43.003c-2.28-2.574-4.663-5.287-6.877-8.127c-5.136-6.588-8.085-14.217-10.172-22.322
	c-5.053-19.621-3.864-41.079,4.515-59.408c2.217-4.852,4.975-9.443,8.138-13.749c10.099-13.753,23.931-24.443,38.842-32.522
	c13.256-7.182,27.355-12.421,41.987-15.954c9.415-2.274,18.982-3.907,28.495-5.031c11.601-1.371,23.243-2.029,34.908-2.411
	c4.823-0.158,9.797-0.198,15.025-0.2c3.408-0.001,6.937-0.029,10.591-0.039c0.717-0.001,1.432,0,2.158-0.005
	c1.166-0.006,2.34-0.016,3.512-0.024c2.675-0.02,5.41,0,8.503,0c-6.042,0-11.82,0.01-17.352,0
	c-7.939-0.015-15.374-0.03-22.362,0.175c-12.859,0.378-24.213,1.206-34.428,2.286c-10.221,1.08-20.387,2.769-30.325,5.197
	c-30.688,7.496-61.244,22.793-80.974,48.225c-3.219,4.148-6.059,8.576-8.405,13.296c-8.878,17.864-10.903,38.926-6.462,58.522
	c1.076,4.747,2.504,9.383,4.424,13.838L581.995,0.035L581.995,0.035z M794.956,246.875l86.351,100.104h9.772l-89.17-100.104H794.956
	L794.956,246.875z M966.811,446.102l105.181,121.934h16L979.376,446.102H966.811L966.811,446.102z M574.994,0.035l1.299,3.061h0.086
	L574.994,0.035L574.994,0.035z M577.956,7.015l3.422,8.065h0.424l-3.649-8.065H577.956L577.956,7.015z M583.887,20.992l3.844,9.062
	h0.846l-4.1-9.062H583.887L583.887,20.992z M590.684,37.014l6.365,15h1.464l-6.786-15H590.684L590.684,37.014z M600.887,61.061
	l8.885,20.94h2.31l-9.475-20.94H600.887L600.887,61.061z M615.706,95.987l12.771,30.1h3.551l-13.619-30.1H615.706L615.706,95.987z
	 M637.781,148.015l23.258,54.814h5.712l-24.801-54.814H637.781L637.781,148.015z M679.727,246.875L722.2,346.979h9.773
	l-45.293-100.104H679.727L679.727,246.875z M764.258,446.102l51.735,121.934h16l-55.17-121.934H764.258L764.258,446.102z
	 M567.996,0.035l0.043,3.061h-0.086L567.996,0.035L567.996,0.035z M568.094,7.015l0.114,8.065h-0.425l0.114-8.065H568.094
	L568.094,7.015z M568.291,20.992l0.128,9.062h-0.847l0.129-9.062H568.291L568.291,20.992z M568.517,37.014l0.212,15h-1.465l0.211-15
	H568.517L568.517,37.014z M568.855,61.061l0.295,20.94h-2.309l0.295-20.94H568.855L568.855,61.061z M569.348,95.987l0.424,30.1
	h-3.551l0.424-30.1H569.348L569.348,95.987z M570.08,148.015l0.771,54.814h-5.713l0.772-54.814H570.08L570.08,148.015z
	 M571.473,246.875l1.41,100.104h-9.773l1.41-100.104H571.473L571.473,246.875z M574.278,446.102l1.718,121.934h-16l1.717-121.934
	H574.278L574.278,446.102z M560.996,0.035l-1.299,3.061h-0.086L560.996,0.035L560.996,0.035z M558.035,7.015l-3.422,8.065h-0.424
	l3.648-8.065H558.035L558.035,7.015z M552.104,20.992l-3.845,9.062h-0.846l4.1-9.062H552.104L552.104,20.992z M545.307,37.014
	l-6.364,15h-1.464l6.787-15H545.307L545.307,37.014z M535.104,61.061l-8.885,20.94h-2.309l9.475-20.94H535.104L535.104,61.061z
	 M520.285,95.987l-12.771,30.1h-3.551l13.62-30.1H520.285L520.285,95.987z M498.209,148.015l-23.257,54.814h-5.712l24.801-54.814
	H498.209L498.209,148.015z M456.264,246.875l-42.474,100.104h-9.773l45.293-100.104H456.264L456.264,246.875z M371.733,446.102
	l-51.735,121.934h-16l55.17-121.934H371.733L371.733,446.102z M553.996,0.035L64,568.035H48L553.996,0.035L553.996,0.035z"/>
</svg>
