<?xml version="1.0" encoding="utf-8"?>
<!-- Generator: Adobe Illustrator 14.0.0, SVG Export Plug-In . SVG Version: 6.00 Build 43363)  -->
<!DOCTYPE svg PUBLIC "-//W3C//DTD SVG 1.1//EN" "http://www.w3.org/Graphics/SVG/1.1/DTD/svg11.dtd">
<svg version="1.1" id="Vrstva_1" xmlns="http://www.w3.org/2000/svg" xmlns:xlink="http://www.w3.org/1999/xlink" x="0px" y="0px"
	 width="1136px" height="568px" viewBox="0 0 1136 568" enable-background="new 0 0 1136 568" xml:space="preserve">
<path fill="#0080FF" d="M813.124,3.27c-19.392,3.178-34.874,7.329-48.272,13.303c-19.67,8.77-37.887,22.053-49.741,37.866
	c-9.636,12.854-16.608,27.39-18.069,42.542c-2.004,20.765,5.539,42.7,23.492,63.074l359.458,407.939l-127.999,0.002L683.257,159.857
	c-9.345-14.193-13.968-32.214-12.667-49.987c0.949-12.974,5.987-25.008,12.377-35.814c4.33-7.322,9.984-14.131,15.896-20.378
	c6.939-7.333,13.943-13.9,22.222-19.623c14.757-10.202,31.833-17.736,47.446-22.193C781.967,8.027,796.83,4.706,813.124,3.27
	L813.124,3.27z M813.696,6.186c-10.522,3.097-20.12,6.23-27.69,10.08c-9.182,4.668-19.423,10.709-27.661,17.785
	c-11.97,10.278-20.784,24.198-21.581,40.075c-0.36,7.152,0.922,14.486,2.893,22.229c1.631,6.41,3.503,12.497,5.76,17.299
	c8.499,18.083,24.338,33.938,39.733,46.237L1136,440.181v104.104L745.843,159.876c-15.32-15.094-25.14-31.594-29.3-47.884
	c-1.32-5.164-2.177-10.392-2.371-15.597c-0.273-7.349,0.742-14.866,2.832-22.044c2.528-8.683,6.617-16.932,12.236-24.032
	C747.121,27.724,779.425,12.317,813.696,6.186L813.696,6.186z"/>
<g>
	<polygon opacity="0.1" fill-rule="evenodd" clip-rule="evenodd" points="742.035,142.023 760.729,172.87 769.738,172.87 
		1019.877,407.881 1046.454,407.881 1037.499,400 1017.539,400 768.188,167.299 759.191,167.299 742.05,142.032 742.035,142.023 	
		"/>
	<polygon opacity="0.1" fill-rule="evenodd" clip-rule="evenodd" points="686.943,142.023 694.578,172.87 703.588,172.87 
		869.477,407.881 896.054,407.881 889.924,400 868.667,400 703.806,167.299 694.811,167.299 687.193,142.239 686.943,142.023 	"/>
	<path fill-rule="evenodd" clip-rule="evenodd" fill="#265385" d="M895.25,379.637V400h-26.583L703.806,167.299h-8.995
		l-9.377-30.847v-13.136h0.001l9.368,30.846h9.01L868.66,379.637h6.903H895.25L895.25,379.637z M713.49,154.163l9.277,0h0.007
		v11.518L713.49,154.163L713.49,154.163z"/>
	<path fill-rule="evenodd" clip-rule="evenodd" fill="#265385" d="M1044.123,379.637L1044.122,400h-26.583L768.188,167.299h-8.996
		l-20.928-30.847v-13.136l0.001,0l20.926,30.846h9.009l249.333,225.474h6.722H1044.123L1044.123,379.637z M777.878,154.163l9.277,0
		v7.858L777.878,154.163L777.878,154.163z"/>
	<polygon fill-rule="evenodd" clip-rule="evenodd" fill="#F5F8FF" points="738.264,123.315 759.19,154.163 768.199,154.163 
		1017.532,379.637 1044.123,379.637 777.877,154.163 787.156,154.163 738.264,123.315 	"/>
	<polygon fill-rule="evenodd" clip-rule="evenodd" fill="#F5F8FF" points="685.434,123.315 694.803,154.163 703.813,154.163 
		868.66,379.637 895.25,379.637 713.489,154.163 722.768,154.163 685.434,123.315 	"/>
</g>
</svg>
