<?xml version="1.0" encoding="utf-8"?>
<!-- Generator: Adobe Illustrator 14.0.0, SVG Export Plug-In . SVG Version: 6.00 Build 43363)  -->
<!DOCTYPE svg PUBLIC "-//W3C//DTD SVG 1.1//EN" "http://www.w3.org/Graphics/SVG/1.1/DTD/svg11.dtd">
<svg version="1.1" id="Vrstva_1" xmlns="http://www.w3.org/2000/svg" xmlns:xlink="http://www.w3.org/1999/xlink" x="0px" y="0px"
	 width="1136px" height="568px" viewBox="0 0 1136 568" enable-background="new 0 0 1136 568" xml:space="preserve">
<path fill="#0080FF" d="M793.163,12.516c-13.828,6.3-23.784,14.772-33.672,25.888c-9.456,10.631-16.651,24.125-17.962,38.044
	c-1.773,18.824,8.449,43.183,19.33,58.241c4.268,5.906,9.123,11.41,14.354,16.471c3.073,2.974,6.405,5.928,10.012,8.854L1136,444.67
	v123.342h-8.01L737.275,160.016c-20.123-21.013-32.324-55.035-23.697-83.624c3.928-13.016,13.979-25.127,24.621-34.83
	c3.359-3.063,6.984-5.928,10.793-8.588C762.245,23.715,777.519,16.544,793.163,12.516L793.163,12.516z M707.339,160.029
	l324.653,407.981l-160,0.002L660.978,160.014c-9.481-18.334-9.572-41.77-2.882-62.447c8.734-26.998,32.832-50.069,57.172-63.734
	c16.61-9.325,33.898-16.415,51.668-21.336c7.826-2.167,15.754-3.855,23.797-4.94c-6.29,2.125-12.565,4.289-18.727,6.767
	c-8.824,3.551-17.535,7.725-25.812,12.826c-15.895,9.796-32.923,22.948-43.896,38.746
	C684.367,91.707,688.014,135.742,707.339,160.029L707.339,160.029z"/>
<g>
	<path fill-rule="evenodd" clip-rule="evenodd" fill="#265385" d="M707.441,154.178L707.441,154.178L707.441,154.178
		L707.441,154.178L707.441,154.178z M669.262,154.178h-0.005v13.136h12.336l138.79,232.702h36.305v-20.363h-36.303L681.563,154.178
		L669.262,154.178L669.262,154.178L669.262,154.178z M704.207,167.314h3.234v-13.136h-12.667L704.207,167.314L704.207,167.314z"/>
	<polygon fill-rule="evenodd" clip-rule="evenodd" fill="#F5F8FF" points="668.27,123.331 669.262,154.178 681.563,154.178 
		820.385,379.652 856.688,379.652 694.774,154.178 707.442,154.178 668.27,123.331 	"/>
	<polygon opacity="0.1" fill-rule="evenodd" clip-rule="evenodd" points="737.09,142.034 751.094,172.881 763.394,172.881 
		996.803,407.896 1034.404,407.896 1025.76,400.016 999.261,400.016 763.223,167.314 750.851,167.314 740.086,143.805 
		737.09,142.034 	"/>
	<path fill-rule="evenodd" clip-rule="evenodd" fill="#265385" d="M999.261,400.016L763.223,167.314h-12.372l-14.292-31.211v-12.769
		l14.3,30.844h12.3l236.104,225.474h36.303v20.363H999.261L999.261,400.016z M789.035,154.178v11.017l-12.664-11.017H789.035
		L789.035,154.178z M1035.564,379.652L1035.564,379.652L1035.564,379.652L1035.564,379.652L1035.564,379.652z"/>
	<polygon fill-rule="evenodd" clip-rule="evenodd" fill="#F5F8FF" points="736.558,123.331 750.858,154.178 763.158,154.178 
		999.262,379.652 1035.564,379.652 776.371,154.178 789.039,154.178 736.558,123.331 	"/>
	<polygon opacity="0.1" fill-rule="evenodd" clip-rule="evenodd" points="668.407,142.034 669.399,172.881 681.699,172.881 
		815.979,407.896 853.581,407.896 848.26,400.016 820.383,400.016 681.593,167.314 669.257,167.314 669.257,154.178 
		669.262,154.178 668.884,142.409 668.407,142.034 	"/>
</g>
</svg>
