<?xml version="1.0" encoding="utf-8"?>
<!-- Generator: Adobe Illustrator 14.0.0, SVG Export Plug-In . SVG Version: 6.00 Build 43363)  -->
<!DOCTYPE svg PUBLIC "-//W3C//DTD SVG 1.1//EN" "http://www.w3.org/Graphics/SVG/1.1/DTD/svg11.dtd">
<svg version="1.1" id="Vrstva_1" xmlns="http://www.w3.org/2000/svg" xmlns:xlink="http://www.w3.org/1999/xlink" x="0px" y="0px"
	 width="1136px" height="568px" viewBox="0 0 1136 568" enable-background="new 0 0 1136 568" xml:space="preserve">
<path fill="#373941" d="M1136,386.259v181.757H0l552-568h23.996l58.469,106.349c4.949-14.451,12.82-26.943,21.801-37.869
	c34.199-41.607,89.092-59.427,140.636-65.81c9.174-1.136,18.363-1.883,27.411-2.261c10.348-0.434,20.693-0.394,31.046-0.396
	L873.1,0.021c4.695-0.039,9.392-0.015,14.082-0.006c0.271,0,0.541,0,0.812,0l0,0l-5.499,0.196
	c-31.546,0.757-73.21,4.457-99.544,22.526c-12.713,8.723-22.557,20.913-24.743,37.766c-5.229,40.306,28.862,77.983,59.18,99.511
	L1136,386.259L1136,386.259z"/>
<path fill-rule="evenodd" clip-rule="evenodd" fill="#FFFFFF" d="M966.811,446.082l105.181,121.934h16L979.376,446.082H966.811
	L966.811,446.082z M887.993,0.016h-0.002h-0.007l0,0h-0.01h-0.008h-0.01h-0.008h-0.027l-0.068,0.001h-0.013L887.993,0.016
	L887.993,0.016z M887.785,0.017l-0.043,0.001h-0.001h-0.008h-0.01l-0.015,0.001h-0.013h-0.009h-0.009l-0.01,0h-0.008h-0.01h-0.009
	l-0.004,0l-0.023,0h-0.01l0,0l-0.192,0.003c-0.183,0.003-0.367,0.004-0.552,0.006c-0.561,0.007-1.135,0.015-1.715,0.025
	c-0.762,0.014-1.537,0.029-2.315,0.035c-2.603,0.021-5.237,0.088-7.439,0.111c-3.237,0.033-5.565,0.104-5.575,0.104
	c-3.508,0.044-7.011,0.119-10.521,0.239c-0.251,0.009-0.506,0.016-0.761,0.021c-9.506,0.184-19.35,0.923-28.682,1.91
	c-1.729,0.183-3.455,0.382-5.18,0.6h1.532c1.03-0.134,2.062-0.261,3.091-0.382c9.707-1.146,19.453-1.647,29.211-2.004
	c0.253-0.009,0.505-0.018,0.759-0.027c1.65-0.059,3.303-0.115,4.953-0.168c1.871-0.06,3.733-0.105,5.597-0.146
	c0.011,0,2.339-0.073,5.576-0.11c2.207-0.025,4.845-0.1,7.453-0.123c0.728-0.006,1.544-0.035,2.305-0.048
	c0.429-0.008,0.843-0.013,1.214-0.017c-0.396,0.012-0.797,0.026-1.201,0.039c-0.745,0.025-1.506,0.049-2.266,0.059
	c-2.625,0.033-5.271,0.128-7.49,0.168c-3.242,0.059-5.576,0.212-5.585,0.212c-4.29,0.173-8.574,0.39-12.86,0.719
	c-14.764,1.137-26.854,3.068-37.108,5.229c-12.369,2.605-22.151,6.193-30.116,10.158c-7.386,3.675-14.555,8.774-20.762,14.736
	c-14.892,14.302-22.743,31.697-19.637,52.733c0.482,3.261,1.161,6.502,2.02,9.711c6.675,24.95,26.347,50.675,46.471,66.163
	L1136,420.25v-8.917L802.62,160.19c-20.844-15.702-41.259-40.827-48.606-66.355c-0.941-3.271-1.699-6.601-2.252-9.986
	c-3.42-20.914,3.525-37.937,18.158-52.431c6.191-6.132,13.332-11.121,20.554-14.64c7.667-3.736,17.157-7.498,29.479-10.08
	c10.326-2.165,22.428-4.251,37.025-5.351c4.089-0.307,8.363-0.571,12.84-0.768c0.01,0,2.339-0.157,5.577-0.221
	c2.218-0.043,4.875-0.153,7.503-0.189c0.761-0.011,1.543-0.05,2.264-0.071c0.639-0.019,1.227-0.038,1.699-0.051l0.844-0.025
	l0.018-0.001h0.002l0.031,0h0.002l0.146-0.004h0.01l0.07-0.002h-0.01l0.004,0h0.004h0.002h0.002h0.002h0.003h0.001h0.001
	L887.785,0.017L887.785,0.017z M574.006,0.016l64.725,142.501c-0.035-0.2-0.069-0.401-0.103-0.602
	c-2.496-43.287,26.632-84.521,62.505-105.844c23.471-13.951,50.764-22.745,76.736-28.718c10.538-2.423,21.136-4.117,31.627-5.196
	c10.485-1.079,22.047-1.611,35-1.986c4.53-0.131,9.235-0.08,14.122-0.06c2.175,0.009,4.385-0.011,6.637-0.016
	c1.52-0.002,3.04,0.009,4.56,0.01c4.335,0.003,8.672-0.051,13.008-0.074c0.771-0.004,1.545-0.004,2.316-0.006
	c0.758-0.001,1.516-0.005,2.274-0.007l0.41-0.001L574.006,0.016L574.006,0.016z M887.785,0.017l-2.646,0.019l-2.318,0.018
	c-4.333,0.013-8.67,0.095-13.004,0.096c-1.588,0-3.055-0.005-4.544,0.017c-0.627,0.009-1.259,0.02-1.904,0.031
	c-1.043,0.018-2.046,0.012-3.082,0.008c-0.942-0.003-1.924-0.006-2.87-0.012c-4.479-0.027-8.805-0.065-13.019,0.07
	c-11.759,0.379-23.567,0.74-35.511,2.111c-9.795,1.124-19.773,2.758-29.757,5.031c-9.041,2.059-18.325,4.6-27.595,7.621
	c-10.504,3.423-20.997,7.768-31.095,12.419c-6.884,3.17-13.378,6.217-19.516,10.116c-34.583,21.972-64.374,64.796-58.281,107.744
	c0.382,2.695,0.878,5.325,1.574,7.845c0.643,2.331,1.519,4.5,2.495,6.704l0.413,1.148l18.989,41.808h-5.713L574.006,0.016
	L887.785,0.017L887.785,0.017z M686.121,246.855l45.468,100.104h-9.773l-42.647-100.104H686.121L686.121,246.855z M776.611,446.082
	l55.382,121.934h-16l-51.948-121.934H776.611L776.611,446.082z M567.314,0.016l0.047,3.061h-0.086L567.314,0.016L567.314,0.016z
	 M567.421,6.995l0.123,8.065h-0.424l0.104-8.065H567.421L567.421,6.995z M567.635,20.972l0.139,9.062h-0.846l0.116-9.062H567.635
	L567.635,20.972z M567.879,36.994l0.229,15h-1.464l0.193-15H567.879L567.879,36.994z M568.246,61.041l0.32,20.94h-2.309l0.27-20.94
	H568.246L568.246,61.041z M568.781,95.967l0.459,30.1h-3.551l0.389-30.1H568.781L568.781,95.967z M569.576,147.996l0.838,54.814
	h-5.713l0.706-54.814H569.576L569.576,147.996z M571.087,246.855l1.53,100.104h-9.773l1.289-100.104H571.087L571.087,246.855z
	 M574.132,446.082l1.863,121.93h-16l1.571-121.93H574.132L574.132,446.082z M560.637,0.016l-1.297,3.061h-0.086L560.637,0.016
	L560.637,0.016z M557.68,6.995l-3.417,8.065h-0.424l3.645-8.065H557.68L557.68,6.995z M551.758,20.972l-3.839,9.062h-0.845
	l4.094-9.062H551.758L551.758,20.972z M544.971,36.994l-6.355,15h-1.464l6.777-15H544.971L544.971,36.994z M534.783,61.041
	l-8.872,20.94h-2.31l9.462-20.94H534.783L534.783,61.041z M519.986,95.967l-12.752,30.1h-3.551l13.6-30.1H519.986L519.986,95.967z
	 M497.943,147.996l-23.223,54.814h-5.712l24.767-54.814H497.943L497.943,147.996z M456.061,246.855l-42.41,100.104h-9.773
	l45.23-100.104H456.061L456.061,246.855z M371.656,446.082L320,568.012h-16l55.091-121.93H371.656L371.656,446.082z M553.961,0.016
	L64,568.016H48L553.961,0.016L553.961,0.016z M802.386,6.995c-0.955,0.219-1.908,0.445-2.859,0.678
	c-7.905,1.931-15.845,4.38-23.621,7.388h1.494c7.608-2.978,15.426-5.41,23.401-7.335c1.038-0.251,2.078-0.495,3.12-0.73H802.386
	L802.386,6.995z M762.356,20.972c-5.521,2.702-10.891,5.717-16.034,9.062h1.822c3.486-2.277,7.048-4.393,10.669-6.355
	c1.726-0.935,3.466-1.837,5.22-2.707H762.356L762.356,20.972z M736.58,36.994c-2.103,1.651-4.152,3.366-6.143,5.147
	c-3.428,3.068-6.879,6.354-10.154,9.853h1.639c3.005-3.238,6.172-6.271,9.335-9.079c2.325-2.063,4.702-4.037,7.126-5.921H736.58
	L736.58,36.994z M712.674,61.041c-3.71,4.993-6.852,10.337-8.99,16.021c-0.607,1.61-1.145,3.252-1.619,4.92h2.273
	c0.47-1.797,1.016-3.57,1.639-5.314c1.974-5.515,4.936-10.743,8.469-15.626H712.674L712.674,61.041z M699.604,95.967
	c-0.771,9.933,0.335,20.26,2.989,30.1h3.36c-2.944-9.789-4.332-20.089-3.773-30.1H699.604L699.604,95.967z M711.592,147.996
	c2.486,4.337,5.307,8.368,8.416,11.974l36.953,42.84h5.713l-38.305-43.003c-3.172-3.579-6.079-7.551-8.674-11.811H711.592
	L711.592,147.996z M887.993,0.016L887.993,0.016h-0.002l-0.003,0h-0.002h-0.002l0,0L887.993,0.016L887.993,0.016z M794.956,246.855
	l86.351,100.104h9.773l-89.171-100.104H794.956L794.956,246.855z"/>
</svg>
