<?xml version="1.0" encoding="utf-8"?>
<!-- Generator: Adobe Illustrator 14.0.0, SVG Export Plug-In . SVG Version: 6.00 Build 43363)  -->
<!DOCTYPE svg PUBLIC "-//W3C//DTD SVG 1.1//EN" "http://www.w3.org/Graphics/SVG/1.1/DTD/svg11.dtd">
<svg version="1.1" id="Vrstva_1" xmlns="http://www.w3.org/2000/svg" xmlns:xlink="http://www.w3.org/1999/xlink" x="0px" y="0px"
	 width="1136px" height="568px" viewBox="0 0 1136 568" enable-background="new 0 0 1136 568" xml:space="preserve">
<path fill="#373941" d="M583.995,0l69.194,107.639c10.945-44.719,43.203-73.583,84.416-90.068
	c26.645-10.66,56.217-15.75,85.742-17.022c10.634-0.458,21.3-0.534,32.011-0.537L873.1,0.006L873.907,0h13.055h0.22
	c0.271,0,0.541,0,0.812,0l-5.499,0.196c-31.546,0.757-73.211,4.458-99.544,22.526c-13.925,9.554-25.466,22.353-29.415,36.595
	c-5.304,19.133,4.646,41.283,15.591,56.805c12.79,18.14,30.879,34.276,44.438,43.841L1136,387.415v180.579L0,568L552,0H583.995
	L583.995,0z"/>
<path fill-rule="evenodd" clip-rule="evenodd" fill="#FFFFFF" d="M553.996,0L64,568H48L553.996,0L553.996,0z M560.995,0
	l-1.515,3.061h-0.086L560.995,0L560.995,0z M557.543,6.979l-3.99,8.065h-0.424l4.217-8.065H557.543L557.543,6.979z M550.628,20.957
	l-4.483,9.062h-0.846l4.738-9.062H550.628L550.628,20.957z M542.701,36.979l-7.42,15h-1.465l7.844-15H542.701L542.701,36.979z
	 M530.806,61.025l-10.359,20.94h-2.31l10.949-20.94H530.806L530.806,61.025z M513.527,95.952l-14.891,30.1h-3.551l15.739-30.1
	H513.527L513.527,95.952z M487.788,147.98l-27.117,54.814h-5.713l28.661-54.814H487.788L487.788,147.98z M438.881,246.84
	l-49.522,100.104h-9.773l52.342-100.104H438.881L438.881,246.84z M340.322,446.066L280,568h-16l63.756-121.934H340.322
	L340.322,446.066z M567.996,0l-0.432,3.061h-0.086L567.996,0L567.996,0z M567.013,6.979l-1.136,8.065h-0.424l1.363-8.065H567.013
	L567.013,6.979z M565.044,20.957l-1.276,9.062h-0.846l1.531-9.062H565.044L565.044,20.957z M562.787,36.979l-2.112,15h-1.464
	l2.535-15H562.787L562.787,36.979z M559.4,61.025l-2.949,20.94h-2.309l3.539-20.94H559.4L559.4,61.025z M554.481,95.952l-4.239,30.1
	h-3.551l5.087-30.1H554.481L554.481,95.952z M547.154,147.98l-7.721,54.814h-5.713l9.265-54.814H547.154L547.154,147.98z
	 M533.23,246.84l-14.1,100.104h-9.773l16.918-100.104H533.23L533.23,246.84z M505.17,446.066L487.997,568h-16l20.608-121.934H505.17
	L505.17,446.066z M574.995,0l0.695,3.061h-0.086L574.995,0L574.995,0z M576.58,6.979l1.832,8.065h-0.424l-1.604-8.065H576.58
	L576.58,6.979z M579.755,20.957l2.058,9.062h-0.846l-1.803-9.062H579.755L579.755,20.957z M583.394,36.979l3.407,15h-1.465
	l-2.984-15H583.394L583.394,36.979z M588.855,61.025l4.756,20.94h-2.31l-4.166-20.94H588.855L588.855,61.025z M596.787,95.952
	l6.836,30.1h-3.551l-5.988-30.1H596.787L596.787,95.952z M608.604,147.98l12.449,54.814h-5.713l-10.904-54.814H608.604
	L608.604,147.98z M631.055,246.84l22.735,100.104h-9.772L624.102,246.84H631.055L631.055,246.84z M676.303,446.066L703.994,568h-16
	l-24.258-121.934H676.303L676.303,446.066z M661.943,134.353l0.031,0.033c-0.896-3.742-1.164-7.595-1.404-11.51
	c-2.286-37.242,23.392-69.229,52.898-89.008c12.694-8.509,26.496-15.144,40.047-19.534c11.354-3.678,23.021-6.802,34.783-9.078
	c13.688-2.649,27.544-3.863,41.464-4.48c3.794-0.168,7.59-0.326,11.386-0.427c2.83-0.075,5.663-0.109,8.494-0.137
	c2.599-0.025,5.198-0.061,7.796-0.059c0.956,0.001,1.913-0.032,2.872-0.027c1.034,0.006,2.065-0.003,3.101-0.003
	c0.621,0,1.248-0.009,1.87-0.01c1.52-0.002,3.032-0.021,4.552-0.02c0.769,0,1.538-0.001,2.308-0.003
	c1.955-0.006,3.913-0.033,5.867-0.048c2.156-0.017,4.313-0.019,6.468-0.028c0.471-0.002,0.942-0.005,1.413-0.005
	c0.345,0,0.69-0.002,1.035-0.002c0.164,0,0.329-0.001,0.493-0.001L887.715,0h0.231h0.051h-0.013h-0.017h0.025l-0.026,0h-0.006
	l-0.011,0h-0.002l-0.001,0h-0.003c-0.095,0.004-0.187,0.007-0.279,0.009h-0.007l-0.016,0.001h-0.004h-0.008l-0.02,0l-0.019,0
	l-0.665,0.022c-0.686,0.021-1.594,0.049-2.377,0.073c-2.177,0.066-4.354,0.102-6.531,0.166c-0.921,0.027-1.805,0.055-2.629,0.071
	c-1.238,0.024-2.346,0.067-3.239,0.105c-1.442,0.061-2.335,0.116-2.34,0.116c-2.159,0.094-4.268,0.216-6.335,0.339
	c-2.029,0.121-4.021,0.247-5.966,0.388c-8.424,0.613-16.821,1.544-25.152,2.917c-14.505,2.387-28.812,6.125-42.086,12.555
	c-14.953,7.243-30.675,19.299-39.307,34.209c-4.271,7.377-6.411,15.399-6.357,23.537c0.226,34.238,30.346,66.519,55.63,85.491
	L1136,411.937v8.896L795.73,160c-24.716-18.937-53.719-51.891-53.176-85.575c0.137-8.448,2.627-16.751,7.451-24.361
	c9.144-14.42,24.94-26.426,39.074-33.419c13.299-6.579,28.266-10.275,42.913-12.603c8.375-1.331,17.064-2.24,25.515-2.854
	c1.988-0.145,3.981-0.263,5.97-0.371c2.113-0.114,4.223-0.221,6.337-0.306c0.006,0,0.896-0.049,2.336-0.107
	c0.896-0.036,2.008-0.083,3.252-0.105c0.821-0.014,1.701-0.037,2.617-0.061c2.158-0.056,4.317-0.083,6.475-0.144
	c0.465-0.013,0.93-0.026,1.396-0.041c0.345-0.01,0.691-0.017,1.036-0.024c0.12-0.003,0.241-0.006,0.362-0.012l0.047-0.004h-0.103
	c-0.033,0-0.078,0.003-0.112,0.003c-0.065,0-0.13,0.002-0.194,0.004c-0.346,0.008-0.692,0.012-1.038,0.017
	c-0.238,0.003-0.477,0.013-0.714,0.017c-0.218,0.004-0.438,0.011-0.658,0.014c-1.266,0.02-2.532,0.039-3.798,0.055
	c-0.899,0.013-1.806,0.031-2.706,0.039c-1.957,0.016-3.917,0.038-5.871,0.126c-1.102,0.05-2.316,0.059-3.594,0.102
	c-1.596,0.054-3.32,0.118-5.112,0.176c-1.918,0.062-3.923,0.127-5.96,0.2c-2.679,0.095-5.417,0.206-8.086,0.341
	c-2.704,0.137-5.415,0.339-8.111,0.56c-3.354,0.274-6.741,0.591-10.035,0.927c-1.493,0.152-2.992,0.307-4.494,0.468h-2.471
	c2.356-0.252,4.705-0.492,7.036-0.731c3.321-0.342,6.646-0.61,9.981-0.838c2.688-0.184,5.391-0.349,8.08-0.481
	c2.673-0.132,5.413-0.243,8.096-0.337c2.037-0.072,4.042-0.136,5.962-0.194c1.791-0.055,3.516-0.094,5.114-0.147
	c1.275-0.042,2.489-0.049,3.591-0.099c1.942-0.087,3.909-0.09,5.879-0.1c0.899-0.004,1.804-0.029,2.703-0.039
	c1.246-0.013,2.491-0.03,3.736-0.043c0.236-0.003,0.474-0.009,0.708-0.011c0.241-0.002,0.483-0.01,0.724-0.012
	c0.345-0.003,0.691-0.01,1.037-0.012l0.497-0.006h0.01h0.003l0.023-0.001h0.008h0.002l0.026-0.001h0.004l0.064-0.001l0.005,0h0.01
	h0.021l0.032,0h0.001l0.073-0.001l0,0l0.032-0.001h0.003l0.027-0.001h0.002h0.007l0.09-0.001l-0.942,0.007l-1.036,0.01l-1.386,0.01
	c-2.165,0.016-4.331,0.014-6.496,0.037c-1.952,0.021-3.909,0.058-5.862,0.068c-0.767,0.004-1.535,0.001-2.302,0.001
	c-1.589,0-3.046,0.025-4.531,0.046c-0.626,0.009-1.257,0.02-1.9,0.031c-1.04,0.018-2.051,0-3.086-0.002
	c-0.942-0.002-1.931,0.031-2.875,0.026c-2.597-0.014-5.194,0.043-7.79,0.073c-2.843,0.033-5.671,0.086-8.51,0.2
	c-3.8,0.151-7.572,0.331-11.364,0.514c-13.967,0.674-27.684,2.016-41.386,4.794c-11.677,2.367-23.282,5.336-34.527,9.195
	c-13.272,4.555-26.767,11.108-39.154,19.407c-29.083,19.479-53.755,51.678-51.248,88.275c0.48,7.014,2.001,13.857,4.629,20.281
	c1.29,3.153,2.854,6.237,4.542,9.025l2.248,4.106L696.248,192h-5.408L581.995,0L661.943,134.353L661.943,134.353z M775.83,15.045
	c7.809-3.252,16.325-6.059,24.728-7.959l0.471-0.106h-2.449c-8.29,1.887-16.755,4.808-24.535,8.065H775.83L775.83,15.045z
	 M761.341,20.957c-5.3,2.732-10.446,5.75-15.339,9.062h1.799c4.896-3.313,10.045-6.33,15.341-9.062H761.341L761.341,20.957z
	 M736.656,36.979c-5.525,4.54-10.568,9.534-14.945,15h1.838c4.35-5.468,9.384-10.461,14.906-15H736.656L736.656,36.979z
	 M715.369,61.025c-3.891,6.415-6.897,13.387-8.791,20.94h2.173c1.769-7.556,4.688-14.528,8.522-20.94H715.369L715.369,61.025z
	 M704.443,95.952c-0.012,0.207-0.029,0.412-0.039,0.62c-0.308,5.859,0.313,11.759,1.55,17.605c0.852,4.025,2.031,7.993,3.493,11.875
	h3.281c-1.641-4.003-2.982-8.115-3.972-12.314c-1.33-5.645-2.072-11.341-1.909-17.01c0.008-0.26,0.021-0.517,0.032-0.776H704.443
	L704.443,95.952z M721.171,147.98c2.992,4.257,6.278,8.285,9.767,12.02l39.968,42.794h5.713l-41.155-42.775
	c-3.619-3.762-7.055-7.79-10.205-12.039H721.171L721.171,147.98z M812.043,246.84l93.494,100.104h9.772L818.996,246.84H812.043
	L812.043,246.84z M998.114,446.066l113.877,121.93h16l-117.312-121.93H998.114L998.114,446.066z"/>
</svg>
