<?xml version="1.0" encoding="utf-8"?>
<!-- Generator: Adobe Illustrator 14.0.0, SVG Export Plug-In . SVG Version: 6.00 Build 43363)  -->
<!DOCTYPE svg PUBLIC "-//W3C//DTD SVG 1.1//EN" "http://www.w3.org/Graphics/SVG/1.1/DTD/svg11.dtd">
<svg version="1.1" id="Vrstva_1" xmlns="http://www.w3.org/2000/svg" xmlns:xlink="http://www.w3.org/1999/xlink" x="0px" y="0px"
	 width="1136px" height="568px" viewBox="0 0 1136 568" enable-background="new 0 0 1136 568" xml:space="preserve">
<path fill="#0080FF" d="M579.995,0l291.998,567.994l-135.999,0.002L576.995,0H579.995L579.995,0z M572.995,0h-3l-49.999,568
	l135.998,0.001L572.995,0L572.995,0z M565.994,0h-2.999L311.998,568l127.999,0.001L565.994,0L565.994,0z M555.996,0L95.999,567.999
	L231.998,568L558.994,0H555.996L555.996,0z"/>
<g>
	<path opacity="0.1" fill-rule="evenodd" clip-rule="evenodd" d="M568.504,167.299h-6.896l-2.529,5.571h9.01l0.785,175.119
		L568.504,167.299L568.504,167.299z M569.105,400l0.036,7.881h26.577L595.117,400H569.105L569.105,400z M579.597,172.87h7.446
		l-2.521-5.571h-5.354L579.597,172.87L579.597,172.87z"/>
	<polygon opacity="0.1" fill-rule="evenodd" clip-rule="evenodd" points="629.162,156.596 627.496,172.87 636.506,172.87 
		720.186,407.881 746.764,407.881 743.391,400 722.352,400 638.168,167.299 629.162,167.299 629.162,156.596 	"/>
	<path opacity="0.1" fill-rule="evenodd" clip-rule="evenodd" d="M517.528,153.948L517.528,153.948L517.528,153.948z
		 M515.752,167.299h-7.479L444.061,400h-1.801h-20.648l-2.737,7.881h26.577L510.16,172.87h9.278l-1.884-18.668v13.097H515.752
		L515.752,167.299z"/>
	<polygon opacity="0.1" fill-rule="evenodd" clip-rule="evenodd" points="459.824,142.023 458.61,143.07 452.368,167.299 
		451.768,167.299 443.091,167.299 293.832,400 293.231,400 273.881,400 268.357,407.881 294.935,407.881 442.751,172.87 
		452.029,172.87 459.824,142.023 	"/>
	<path fill-rule="evenodd" clip-rule="evenodd" fill="#265385" d="M444.061,400h-26.583v-20.363h26.59l64.207-225.474l9.278,0
		v13.136h-9.28L444.061,400L444.061,400z M493.872,167.299h-4.282v-13.136h9.008L493.872,167.299L493.872,167.299z"/>
	<path fill-rule="evenodd" clip-rule="evenodd" fill="#265385" d="M595.527,379.637V400h-26.583v-20.363H595.527L595.527,379.637z
		 M559.469,154.163v13.136h9.035l-0.025-13.136H559.469L559.469,154.163z M579.168,167.299h8.266v-13.136l-9.278,0L579.168,167.299
		L579.168,167.299z"/>
	<path fill-rule="evenodd" clip-rule="evenodd" fill="#265385" d="M748.936,379.637L748.935,400h-26.583l-84.184-232.701h-9.006
		v-13.136h9.006v0h0.003l84.174,225.474h3.71H748.936L748.936,379.637z M647.849,154.163l9.277,0v13.136h-3.389L647.849,154.163
		L647.849,154.163z"/>
	<polygon fill-rule="evenodd" clip-rule="evenodd" fill="#F5F8FF" points="572.59,123.315 559.469,154.163 568.479,154.163 
		568.938,379.637 595.527,379.637 578.155,154.163 587.434,154.163 572.59,123.315 	"/>
	<polygon fill-rule="evenodd" clip-rule="evenodd" fill="#F5F8FF" points="513.871,123.315 489.588,154.163 498.598,154.163 
		417.478,379.637 444.068,379.637 508.275,154.163 517.554,154.163 513.871,123.315 	"/>
	<polygon fill-rule="evenodd" clip-rule="evenodd" fill="#F5F8FF" points="630.83,123.315 629.162,154.163 638.171,154.163 
		722.345,379.637 748.936,379.637 647.849,154.163 657.127,154.163 630.83,123.315 	"/>
	<path fill-rule="evenodd" clip-rule="evenodd" fill="#265385" d="M443.091,154.163L443.091,154.163h9.272l7.951-30.847v13.137
		c-2.649,10.282-5.298,20.564-7.947,30.847h-9.276L293.832,400h-26.583v-20.363h26.59l149.246-225.474H443.091L443.091,154.163z
		 M424.404,166.381v-12.218l9.003,0L424.404,166.381L424.404,166.381z"/>
	<polygon fill-rule="evenodd" clip-rule="evenodd" fill="#F5F8FF" points="460.314,123.315 424.398,154.163 433.407,154.163 
		267.249,379.637 293.839,379.637 443.085,154.163 452.363,154.163 460.314,123.315 	"/>
</g>
</svg>
