<?xml version="1.0" encoding="utf-8"?>
<!-- Generator: Adobe Illustrator 14.0.0, SVG Export Plug-In . SVG Version: 6.00 Build 43363)  -->
<!DOCTYPE svg PUBLIC "-//W3C//DTD SVG 1.1//EN" "http://www.w3.org/Graphics/SVG/1.1/DTD/svg11.dtd">
<svg version="1.1" id="Vrstva_1" xmlns="http://www.w3.org/2000/svg" xmlns:xlink="http://www.w3.org/1999/xlink" x="0px" y="0px"
	 width="1136px" height="568px" viewBox="0 0 1136 568" enable-background="new 0 0 1136 568" xml:space="preserve">
<path fill="#0080FF" d="M572.005,0h-2.68l-17.329,568l127.999,0.001l-44.359-332.553L572.005,0L572.005,0z M565.335,0h-2.681
	L327.998,568l127.999,0.001L565.335,0L565.335,0z M555.996,0L103.999,567.999l128,0.001L558.664,0H555.996L555.996,0z"/>
<g>
	<path opacity="0.1" fill-rule="evenodd" clip-rule="evenodd" d="M579.133,167.298l-2.244,5.567h8.85l-0.213-5.567H579.133
		L579.133,167.298z M594.508,400l0.295,7.997h27.28L621.198,400H594.508L594.508,400z M597.854,172.866h7.726l-2.934-5.567h-5.435
		L597.854,172.866L597.854,172.866z"/>
	<polygon opacity="0.1" fill-rule="evenodd" clip-rule="evenodd" points="460.737,142.019 454.959,172.866 445.716,172.866 
		298.188,407.997 270.907,407.997 276.514,400 295.009,400 443.335,167.298 452.854,167.298 458.5,144.02 460.737,142.019 	"/>
	<path fill-rule="evenodd" clip-rule="evenodd" fill="#265385" d="M452.854,167.298l7.482-30.847l-0.02-13.057l-7.481,30.768h-3.52
		h-5.98h-0.019L294.998,379.637h-27.281V400h27.292l148.326-232.702H452.854L452.854,167.298z M460.317,123.332v-0.017l-0.043,0.053
		L460.317,123.332L460.317,123.332z M431.75,154.163h-7.606v12.58l9.243-12.58H431.75L431.75,154.163z"/>
	<path opacity="0.1" fill-rule="evenodd" clip-rule="evenodd" d="M524.269,163.351l1.83,9.515h-9.243L458.59,407.997h-27.281
		l2.572-7.997h21.169l59.643-232.702h9.582L524.269,163.351L524.269,163.351z M498.433,172.866h-1.026l1.912-2.592L498.433,172.866
		L498.433,172.866z"/>
	<path fill-rule="evenodd" clip-rule="evenodd" fill="#265385" d="M524.274,167.298l-0.019-13.136h-9.501l-59.716,225.474h-27.281
		V400h27.292l59.643-232.702H524.274L524.274,167.298z M504.826,154.163h-9.244h-0.019v13.136h4.773L504.826,154.163
		L504.826,154.163z"/>
	<path fill-rule="evenodd" clip-rule="evenodd" fill="#265385" d="M597.213,167.298h8.023l-0.02-13.136l0,0h-9.52L597.213,167.298
		L597.213,167.298z M585.525,154.163h-9.001v13.136h9.001L594.414,400h27.293v-20.363h-27.281l-8.658-225.474H585.525
		L585.525,154.163z"/>
	<polygon fill-rule="evenodd" clip-rule="evenodd" fill="#F5F8FF" points="519.653,123.315 495.582,154.163 504.826,154.163 
		427.757,379.637 455.039,379.637 514.754,154.163 524.274,154.163 519.653,123.315 	"/>
	<polygon fill-rule="evenodd" clip-rule="evenodd" fill="#F5F8FF" points="588.867,123.315 576.524,154.163 585.768,154.163 
		594.426,379.637 621.707,379.637 595.697,154.163 605.217,154.163 588.867,123.315 	"/>
	<polygon fill-rule="evenodd" clip-rule="evenodd" fill="#F5F8FF" points="460.336,123.315 424.144,154.163 433.387,154.163 
		267.716,379.637 294.998,379.637 443.316,154.163 452.835,154.163 460.336,123.315 	"/>
</g>
</svg>
