<?xml version="1.0" encoding="utf-8"?>
<!-- Generator: Adobe Illustrator 14.0.0, SVG Export Plug-In . SVG Version: 6.00 Build 43363)  -->
<!DOCTYPE svg PUBLIC "-//W3C//DTD SVG 1.1//EN" "http://www.w3.org/Graphics/SVG/1.1/DTD/svg11.dtd">
<svg version="1.1" id="Vrstva_1" xmlns="http://www.w3.org/2000/svg" xmlns:xlink="http://www.w3.org/1999/xlink" x="0px" y="0px"
	 width="1136px" height="568px" viewBox="0 0 1136 568" enable-background="new 0 0 1136 568" xml:space="preserve">
<path fill="#0080FF" d="M569.332,0.016h2.66L775.994,568.01l-160,0.002L569.332,0.016L569.332,0.016z M565.336,0.016h-2.685
	l-202.654,568l160,0.001L565.336,0.016L565.336,0.016z M558.655,0.016l-2.667-0.001l-451.989,568l160,0.001L558.655,0.016
	L558.655,0.016z"/>
<g>
	<path opacity="0.1" fill-rule="evenodd" clip-rule="evenodd" d="M545.426,167.314l2.086,5.567h-12.301l-38.703,235.015h-37.602
		l2.116-7.881h32.922l39.915-232.702H545.426L545.426,167.314z M515.451,172.881h-6.12l4.806-5.567h2.871L515.451,172.881
		L515.451,172.881z M518.383,162.396L518.383,162.396l-0.796,2.85L518.383,162.396L518.383,162.396z"/>
	<polygon opacity="0.1" fill-rule="evenodd" clip-rule="evenodd" points="467.402,142.034 466.41,172.881 454.11,172.881 
		319.83,407.896 282.229,407.896 287.549,400.016 315.427,400.016 454.216,167.314 466.553,167.314 466.553,154.178 
		466.547,154.178 466.926,142.409 467.402,142.034 	"/>
	<path fill-rule="evenodd" clip-rule="evenodd" fill="#265385" d="M428.367,154.178L428.367,154.178L428.367,154.178
		L428.367,154.178L428.367,154.178z M466.547,154.178h0.005v13.136h-12.336l-138.79,232.702h-36.305v-20.363h36.303l138.822-225.474
		L466.547,154.178L466.547,154.178L466.547,154.178z M431.602,167.314h-3.235v-13.136h12.667L431.602,167.314L431.602,167.314z"/>
	<polygon fill-rule="evenodd" clip-rule="evenodd" fill="#F5F8FF" points="467.54,123.331 466.547,154.178 454.247,154.178 
		315.425,379.652 279.122,379.652 441.035,154.178 428.367,154.178 467.54,123.331 	"/>
	<path fill-rule="evenodd" clip-rule="evenodd" fill="#265385" d="M457.64,400.016v-20.363h0h0l0,0h36.303l39.95-225.474h12.3
		v13.136h-12.334l-39.915,232.702H457.64L457.64,400.016z M517.008,167.314h-9v-13.136h0.006l0,0h12.668L517.008,167.314
		L517.008,167.314z M546.192,154.178L546.192,154.178L546.192,154.178L546.192,154.178L546.192,154.178z"/>
	<polygon fill-rule="evenodd" clip-rule="evenodd" fill="#F5F8FF" points="533.658,123.331 546.192,154.178 533.893,154.178 
		493.942,379.652 457.64,379.652 520.681,154.178 508.013,154.178 533.658,123.331 	"/>
	<path opacity="0.1" fill-rule="evenodd" clip-rule="evenodd" d="M590.383,167.314l-2.085,5.567h12.3l38.703,235.015h37.603
		l-2.116-7.881h-32.922l-39.914-232.702H590.383L590.383,167.314z M620.358,172.881h6.12l-4.807-5.567h-2.871L620.358,172.881
		L620.358,172.881z M617.426,162.396L617.426,162.396l0.797,2.85L617.426,162.396L617.426,162.396z"/>
	<path fill-rule="evenodd" clip-rule="evenodd" fill="#265385" d="M678.17,400.016v-20.363l0,0l0,0l0,0h-36.303l-39.951-225.474
		h-12.299v13.136h12.334l39.914,232.702H678.17L678.17,400.016z M618.801,167.314h9.002v-13.136h-0.007l0.001,0h-12.668
		L618.801,167.314L618.801,167.314z M589.617,154.178L589.617,154.178L589.617,154.178L589.617,154.178L589.617,154.178z"/>
	<polygon fill-rule="evenodd" clip-rule="evenodd" fill="#F5F8FF" points="602.151,123.331 589.617,154.178 601.916,154.178 
		641.867,379.652 678.17,379.652 615.129,154.178 627.797,154.178 602.151,123.331 	"/>
</g>
</svg>
