<?xml version="1.0" encoding="utf-8"?>
<!-- Generator: Adobe Illustrator 14.0.0, SVG Export Plug-In . SVG Version: 6.00 Build 43363)  -->
<!DOCTYPE svg PUBLIC "-//W3C//DTD SVG 1.1//EN" "http://www.w3.org/Graphics/SVG/1.1/DTD/svg11.dtd">
<svg version="1.1" id="Vrstva_1" xmlns="http://www.w3.org/2000/svg" xmlns:xlink="http://www.w3.org/1999/xlink" x="0px" y="0px"
	 width="1136px" height="568px" viewBox="0 0 1136 568" enable-background="new 0 0 1136 568" xml:space="preserve">
<path fill="#0080FF" d="M651.996,0l483.995,567.994l-135.999,0.002L650.015,0H651.996L651.996,0z M645.995,0l273.998,567.994
	l-135.999,0.002L643.995,0H645.995L645.995,0z"/>
<g>
	<polygon opacity="0.1" fill-rule="evenodd" clip-rule="evenodd" points="753.845,142.023 762.13,172.87 771.139,172.87 
		930.93,407.694 957.521,407.694 951.73,400 932.94,400 773.584,167.299 764.608,167.299 758.707,146.16 753.845,142.023 	"/>
	<polygon opacity="0.1" fill-rule="evenodd" clip-rule="evenodd" points="695.417,142.023 692.183,172.87 701.191,172.87 
		773.294,407.694 799.884,407.694 796.967,400 776.953,400 704.198,167.299 695.208,167.299 695.208,154.163 704.198,154.163 
		704.198,154.163 695.208,154.163 696.358,143.197 695.417,142.023 	"/>
	<path fill-rule="evenodd" clip-rule="evenodd" fill="#265385" d="M803.537,379.637L803.536,400h-26.583l-72.755-232.701h-8.99
		v-13.136h8.99v0h0.019l72.73,225.474H803.537L803.537,379.637z M714.272,154.163L714.272,154.163h8.899v13.136h-4.055
		l-5.223-13.136H714.272L714.272,154.163z"/>
	<path fill-rule="evenodd" clip-rule="evenodd" fill="#265385" d="M959.523,379.637V400H932.94L773.584,167.299h-8.976
		l-8.612-30.847v-13.135l0,0l8.611,30.846h5.653v0h3.323v0h0.033l159.316,225.474H959.523L959.523,379.637z M784.063,154.163
		L784.063,154.163h8.511v11.871l-9.278-11.871H784.063L784.063,154.163z"/>
	<polygon fill-rule="evenodd" clip-rule="evenodd" fill="#F5F8FF" points="755.996,123.315 764.607,154.163 773.617,154.163 
		932.934,379.637 959.523,379.637 783.295,154.163 792.573,154.163 755.996,123.315 	"/>
	<polygon fill-rule="evenodd" clip-rule="evenodd" fill="#F5F8FF" points="698.442,123.315 695.208,154.163 704.217,154.163 
		776.947,379.637 803.537,379.637 713.895,154.163 723.173,154.163 698.442,123.315 	"/>
</g>
</svg>
