<?xml version="1.0" encoding="utf-8"?>
<!-- Generator: Adobe Illustrator 14.0.0, SVG Export Plug-In . SVG Version: 6.00 Build 43363)  -->
<!DOCTYPE svg PUBLIC "-//W3C//DTD SVG 1.1//EN" "http://www.w3.org/Graphics/SVG/1.1/DTD/svg11.dtd">
<svg version="1.1" id="Vrstva_1" xmlns="http://www.w3.org/2000/svg" xmlns:xlink="http://www.w3.org/1999/xlink" x="0px" y="0px"
	 width="1136px" height="568px" viewBox="0 0 1136 568" enable-background="new 0 0 1136 568" xml:space="preserve">
<polygon fill="#373941" points="639.995,0 655.996,0 1136,473.338 1136,567.996 0,568 552,0 583.995,0 650.869,102.908 639.995,0 
	"/>
<path fill-rule="evenodd" clip-rule="evenodd" fill="#FFFFFF" d="M653.996,0L1136,532v-16.041L653.996,0L653.996,0z M699.35,95.952
	l16.109,30.1h3.551l-16.958-30.1H699.35L699.35,95.952z M727.195,147.98l29.336,54.814h5.713l-30.881-54.814H727.195L727.195,147.98
	z M780.105,246.84l53.576,100.104h9.773L787.059,246.84H780.105L780.105,246.84z M886.733,446.066L951.992,568h16l-68.693-121.934
	H886.733L886.733,446.066z M553.996,0L64,568H48L553.996,0L553.996,0z M647.995,0l1.638,3.061h0.087L647.995,0L647.995,0z
	 M651.73,6.979l4.316,8.065h0.424l-4.543-8.065H651.73L651.73,6.979z M659.211,20.957l4.85,9.062h0.846l-5.104-9.062H659.211
	L659.211,20.957z M667.787,36.979l8.027,15h1.464l-8.45-15H667.787L667.787,36.979z M680.656,61.025l11.208,20.94h2.309
	l-11.798-20.94H680.656L680.656,61.025z M574.995,0l0.695,3.061h-0.086L574.995,0L574.995,0z M576.58,6.979l1.832,8.065h-0.424
	l-1.604-8.065H576.58L576.58,6.979z M579.755,20.957l2.058,9.062h-0.846l-1.803-9.062H579.755L579.755,20.957z M583.394,36.979
	l3.407,15h-1.465l-2.984-15H583.394L583.394,36.979z M588.855,61.025l4.756,20.94h-2.31l-4.166-20.94H588.855L588.855,61.025z
	 M596.787,95.952l6.836,30.1h-3.551l-5.988-30.1H596.787L596.787,95.952z M608.604,147.98l12.449,54.814h-5.713l-10.904-54.814
	H608.604L608.604,147.98z M631.056,246.84l22.734,100.104h-9.772L624.102,246.84H631.056L631.056,246.84z M676.303,446.066
	L703.995,568h-16.001l-24.258-121.934H676.303L676.303,446.066z M560.995,0l-1.515,3.061h-0.086L560.995,0L560.995,0z
	 M557.543,6.979l-3.99,8.065h-0.424l4.217-8.065H557.543L557.543,6.979z M550.628,20.957l-4.483,9.062h-0.846l4.738-9.062H550.628
	L550.628,20.957z M542.701,36.979l-7.42,15h-1.464l7.843-15H542.701L542.701,36.979z M530.805,61.025l-10.359,20.94h-2.309
	l10.95-20.94H530.805L530.805,61.025z M513.527,95.952l-14.891,30.1h-3.551l15.739-30.1H513.527L513.527,95.952z M487.788,147.98
	l-27.118,54.814h-5.712l28.661-54.814H487.788L487.788,147.98z M438.88,246.84l-49.523,100.104h-9.773l52.343-100.104H438.88
	L438.88,246.84z M340.32,446.066L279.998,568h-16l63.757-121.934H340.32L340.32,446.066z M567.995,0l-0.431,3.061h-0.087L567.995,0
	L567.995,0z M567.012,6.979l-1.136,8.065h-0.424l1.363-8.065H567.012L567.012,6.979z M565.043,20.957l-1.275,9.062h-0.846
	l1.531-9.062H565.043L565.043,20.957z M562.787,36.979l-2.113,15h-1.464l2.535-15H562.787L562.787,36.979z M559.4,61.025
	l-2.949,20.94h-2.31l3.539-20.94H559.4L559.4,61.025z M554.48,95.952l-4.238,30.1h-3.552l5.087-30.1H554.48L554.48,95.952z
	 M547.153,147.98l-7.72,54.814h-5.713l9.264-54.814H547.153L547.153,147.98z M533.229,246.84L519.13,346.943h-9.773l16.918-100.104
	H533.229L533.229,246.84z M505.17,446.066L487.997,568h-16l20.608-121.934H505.17L505.17,446.066z M581.995,0l87.853,160.206h4.514
	L641.995,0l26.156,149.952L581.995,0L581.995,0z"/>
</svg>
