<?xml version="1.0" encoding="utf-8"?>
<!-- Generator: Adobe Illustrator 14.0.0, SVG Export Plug-In . SVG Version: 6.00 Build 43363)  -->
<!DOCTYPE svg PUBLIC "-//W3C//DTD SVG 1.1//EN" "http://www.w3.org/Graphics/SVG/1.1/DTD/svg11.dtd">
<svg version="1.1" id="Vrstva_1" xmlns="http://www.w3.org/2000/svg" xmlns:xlink="http://www.w3.org/1999/xlink" x="0px" y="0px"
	 width="1136px" height="568px" viewBox="0 0 1136 568" enable-background="new 0 0 1136 568" xml:space="preserve">
<path fill="#0080FF" d="M579.995,0l291.998,567.994l-135.999,0.002L578.492,0H579.995L579.995,0z M572.995,0h-3l-49.999,568
	l135.998,0.001L572.995,0L572.995,0z M565.994,0h-2.999L311.998,568l127.999,0.001L565.994,0L565.994,0z M555.996,0L95.999,567.999
	L231.998,568L558.994,0H555.996L555.996,0z"/>
<g>
	<path opacity="0.1" fill-rule="evenodd" clip-rule="evenodd" d="M518.325,142.023l-1.76,2.185l1.189,9.955v13.136h-9.28
		L444.261,400h-20.649l-2.737,7.881h26.577l64.708-235.011h9.278L518.325,142.023L518.325,142.023z M517.754,154.163
		C505.773,154.163,505.768,154.163,517.754,154.163L517.754,154.163z"/>
	<polygon opacity="0.1" fill-rule="evenodd" clip-rule="evenodd" points="460.424,142.023 458.438,143.736 452.368,167.299 
		443.091,167.299 293.832,400 274.481,400 268.958,407.881 295.535,407.881 443.352,172.87 452.63,172.87 460.424,142.023 	"/>
	<path fill-rule="evenodd" clip-rule="evenodd" fill="#265385" d="M444.261,400h-26.583v-20.363h26.59l64.207-225.474l9.279,0
		v13.136h-9.28L444.261,400L444.261,400z M494.072,167.299h-4.282v-13.136h9.008L494.072,167.299L494.072,167.299z"/>
	<polygon fill-rule="evenodd" clip-rule="evenodd" fill="#F5F8FF" points="514.071,123.315 489.789,154.163 498.798,154.163 
		417.678,379.637 444.269,379.637 508.475,154.163 517.754,154.163 514.071,123.315 	"/>
	<path fill-rule="evenodd" clip-rule="evenodd" fill="#265385" d="M443.091,154.163L443.091,154.163h9.272l7.951-30.847v13.136
		c-2.649,10.283-5.298,20.565-7.947,30.847h-9.276L293.832,400h-26.583v-20.363h26.59l149.246-225.474H443.091L443.091,154.163z
		 M424.404,166.381v-12.218l9.003,0L424.404,166.381L424.404,166.381z"/>
	<polygon fill-rule="evenodd" clip-rule="evenodd" fill="#F5F8FF" points="460.314,123.315 424.398,154.163 433.407,154.163 
		267.249,379.637 293.839,379.637 443.085,154.163 452.363,154.163 460.314,123.315 	"/>
	<polygon opacity="0.1" fill-rule="evenodd" clip-rule="evenodd" points="629.162,156.595 627.496,172.87 636.506,172.87 
		720.186,407.881 746.763,407.881 743.391,400 722.352,400 638.168,167.299 629.162,167.299 629.162,156.595 	"/>
	<path fill-rule="evenodd" clip-rule="evenodd" fill="#265385" d="M748.935,379.637V400h-26.583l-84.184-232.701h-9.006v-13.136
		h9.006v0h0.003l84.174,225.474h3.711H748.935L748.935,379.637z M647.849,154.163l9.277,0v13.136h-3.389L647.849,154.163
		L647.849,154.163z"/>
	<polygon fill-rule="evenodd" clip-rule="evenodd" fill="#F5F8FF" points="630.83,123.315 629.162,154.163 638.171,154.163 
		722.345,379.637 748.935,379.637 647.849,154.163 657.127,154.163 630.83,123.315 	"/>
	<path opacity="0.1" fill-rule="evenodd" clip-rule="evenodd" d="M571.006,167.299h-6.897l-2.528,5.571h9.01l0.785,175.119
		L571.006,167.299L571.006,167.299z M571.607,400l0.035,7.881h26.578L597.618,400H571.607L571.607,400z M582.099,172.87h7.446
		l-2.521-5.571h-5.354L582.099,172.87L582.099,172.87z"/>
	<path fill-rule="evenodd" clip-rule="evenodd" fill="#265385" d="M598.029,379.637V400h-26.584v-20.363H598.029L598.029,379.637z
		 M561.971,154.163v13.136h9.035l-0.026-13.136H561.971L561.971,154.163z M581.67,167.299h8.265v-13.136l-9.277,0L581.67,167.299
		L581.67,167.299z"/>
	<polygon fill-rule="evenodd" clip-rule="evenodd" fill="#F5F8FF" points="575.092,123.315 561.971,154.163 570.979,154.163 
		571.439,379.637 598.029,379.637 580.657,154.163 589.936,154.163 575.092,123.315 	"/>
</g>
</svg>
