<?xml version="1.0" encoding="utf-8"?>
<!-- Generator: Adobe Illustrator 14.0.0, SVG Export Plug-In . SVG Version: 6.00 Build 43363)  -->
<!DOCTYPE svg PUBLIC "-//W3C//DTD SVG 1.1//EN" "http://www.w3.org/Graphics/SVG/1.1/DTD/svg11.dtd">
<svg version="1.1" id="Vrstva_1" xmlns="http://www.w3.org/2000/svg" xmlns:xlink="http://www.w3.org/1999/xlink" x="0px" y="0px"
	 width="1136px" height="568px" viewBox="0 0 1136 568" enable-background="new 0 0 1136 568" xml:space="preserve">
<path fill="#0080FF" d="M651.996,0l475.995,567.994l-127.999,0.002L650.015,0H651.996L651.996,0z M645.995,0l257.998,567.994
	l-127.999,0.002l-96.505-332.734L643.995,0H645.995L645.995,0z"/>
<g>
	<path opacity="0.1" fill-rule="evenodd" clip-rule="evenodd" d="M683.739,158.584l-2.028,14.282h9.244l70.109,235.131h27.28
		L785.37,400h-20.038l-72.166-232.702h-9.427V158.584L683.739,158.584z M710.353,172.866h0.051l-0.102-0.129L710.353,172.866
		L710.353,172.866z"/>
	<polygon opacity="0.1" fill-rule="evenodd" clip-rule="evenodd" points="754.011,142.019 761.061,172.866 770.304,172.866 
		927.536,407.997 954.816,407.997 948.879,400 930.286,400 772.484,167.298 763.023,167.298 757.108,144.692 754.011,142.019 	"/>
	<path fill-rule="evenodd" clip-rule="evenodd" fill="#265385" d="M712.45,167.298l-0.019-13.136h-0.001h-9.52l5.227,13.136H712.45
		L712.45,167.298z M692.982,154.163h-9.243v13.136h9.427L765.332,400h27.292v-20.363h-27.281L692.982,154.163L692.982,154.163z"/>
	<path fill-rule="evenodd" clip-rule="evenodd" fill="#265385" d="M791.733,166.401l-0.018-12.238h-9.351h-0.15L791.733,166.401
		L791.733,166.401z M772.286,154.163h-0.646h-8.598l-8.091-30.847v13.136l8.071,30.847h9.461L930.286,400h27.292v-20.363h-27.281
		L772.286,154.163L772.286,154.163z"/>
	<polygon fill-rule="evenodd" clip-rule="evenodd" fill="#F5F8FF" points="687.366,123.315 683.739,154.163 692.982,154.163 
		765.343,379.637 792.624,379.637 702.911,154.163 712.431,154.163 687.366,123.315 	"/>
	<polygon fill-rule="evenodd" clip-rule="evenodd" fill="#F5F8FF" points="754.952,123.315 763.043,154.163 772.286,154.163 
		930.297,379.637 957.578,379.637 782.215,154.163 791.734,154.163 754.952,123.315 	"/>
</g>
</svg>
