<?xml version="1.0" encoding="utf-8"?>
<!-- Generator: Adobe Illustrator 14.0.0, SVG Export Plug-In . SVG Version: 6.00 Build 43363)  -->
<!DOCTYPE svg PUBLIC "-//W3C//DTD SVG 1.1//EN" "http://www.w3.org/Graphics/SVG/1.1/DTD/svg11.dtd">
<svg version="1.1" id="Vrstva_1" xmlns="http://www.w3.org/2000/svg" xmlns:xlink="http://www.w3.org/1999/xlink" x="0px" y="0px"
	 width="1136px" height="568px" viewBox="0 0 1136 568" enable-background="new 0 0 1136 568" xml:space="preserve">
<polygon fill="#373941" points="639.995,0 639.995,146.585 575.996,0 552,0 0,568 1136,567.996 1136,473.338 655.996,0 639.995,0 
	"/>
<path fill-rule="evenodd" clip-rule="evenodd" fill="#FFFFFF" d="M653.996,0L1136,515.76v16.884L653.996,0L653.996,0z M553.996,0
	L64,568H48L553.996,0L553.996,0z M567.33,0l-0.298,3.061h-0.086L567.33,0L567.33,0z M566.65,6.979l-0.785,8.065h-0.424l1.013-8.065
	H566.65L566.65,6.979z M565.289,20.957l-0.883,9.062h-0.846l1.139-9.062H565.289L565.289,20.957z M563.729,36.979l-1.462,15h-1.464
	l1.884-15H563.729L563.729,36.979z M561.385,61.025l-2.039,20.94h-2.309l2.629-20.94H561.385L561.385,61.025z M557.982,95.952
	l-2.932,30.1H551.5l3.78-30.1H557.982L557.982,95.952z M552.914,147.98l-5.34,54.814h-5.712l6.884-54.814H552.914L552.914,147.98z
	 M543.283,246.84l-9.752,100.104h-9.773L536.33,246.84H543.283L543.283,246.84z M523.875,446.066L511.996,568h-16l15.313-121.934
	H523.875L523.875,446.066z M560.671,0l-1.47,3.061h-0.086L560.671,0L560.671,0z M557.32,6.979l-3.871,8.065h-0.424l4.099-8.065
	H557.32L557.32,6.979z M550.61,20.957l-4.35,9.062h-0.846l4.605-9.062H550.61L550.61,20.957z M542.919,36.979l-7.2,15h-1.465
	l7.624-15H542.919L542.919,36.979z M531.375,61.025l-10.053,20.94h-2.309l10.643-20.94H531.375L531.375,61.025z M514.608,95.952
	l-14.45,30.1h-3.551l15.298-30.1H514.608L514.608,95.952z M489.632,147.98l-26.313,54.814h-5.713l27.858-54.814H489.632
	L489.632,147.98z M442.173,246.84l-48.056,100.104h-9.773L435.22,246.84H442.173L442.173,246.84z M346.533,446.066L287.998,568h-16
	l61.97-121.934H346.533L346.533,446.066z M647.995,0l1.595,3.061h0.086L647.995,0L647.995,0z M651.633,6.979l4.203,8.065h0.424
	l-4.431-8.065H651.633L651.633,6.979z M658.916,20.957l4.723,9.062h0.846l-4.979-9.062H658.916L658.916,20.957z M667.266,36.979
	l7.816,15h1.465l-8.239-15H667.266L667.266,36.979z M679.797,61.025l10.913,20.94h2.309l-11.503-20.94H679.797L679.797,61.025z
	 M697.998,95.952l15.686,30.1h3.551l-16.533-30.1H697.998L697.998,95.952z M725.111,147.98l28.564,54.814h5.713l-30.109-54.814
	H725.111L725.111,147.98z M776.629,246.84l52.166,100.104h9.773L783.582,246.84H776.629L776.629,246.84z M880.451,446.066
	L943.993,568h16l-66.978-121.934H880.451L880.451,446.066z M641.995,0l11.333,214.566L574,0l80.416,235.45l21.986,111.494h9.775
	L661.063,235.5h0.005L641.995,0L641.995,0z M695.949,446.066l24.045,121.929h16l-27.478-121.929H695.949L695.949,446.066z"/>
</svg>
